<?xml version="1.0" standalone="no"?>
<!DOCTYPE svg PUBLIC "-//W3C//DTD SVG 1.1//EN" "http://www.w3.org/Graphics/SVG/1.1/DTD/svg11.dtd" >
<svg xmlns="http://www.w3.org/2000/svg" xmlns:xlink="http://www.w3.org/1999/xlink" version="1.1">
<metadata>
Created by FontForge 20170924 at Fri May 15 00:29:10 2020
 By www-data
din studio
</metadata>
<defs>
<font id="Fogie-LightItalic" horiz-adv-x="232" >
  <font-face 
    font-family="Fogie Light"
    font-weight="200"
    font-style="italic"
    font-stretch="normal"
    units-per-em="1000"
    panose-1="0 0 0 0 0 0 0 0 0 0"
    ascent="800"
    descent="-200"
    x-height="512"
    cap-height="700"
    bbox="-237 -208 1317 981"
    underline-thickness="50"
    underline-position="-125"
    slope="-12"
    unicode-range="U+000D-E953"
  />
<missing-glyph horiz-adv-x="250" 
 />
    <glyph glyph-name="uniE94B" unicode="ra" horiz-adv-x="805" 
d="M37 25q7 0 20 5.5t20 35.5l78 361q5 29 -1.5 35t-21.5 6q-7 0 -3 13q1 5 4 12l137 19l-2 -9q-2 -10 -6 -26q36 20 74 27.5t66 7.5q38 0 64.5 -8.5t46.5 -23.5q56 31 127 31q36 0 73 -7.5t64 -26t40.5 -50t3.5 -79.5q-14 -65 -25 -117t-19 -89q-9 -43 -16 -76
q-3 -15 -1.5 -23.5t5.5 -12t9.5 -4.5t8.5 -1q5 0 5.5 -3.5t-1.5 -8.5q-1 -6 -4 -13h-183q-32 0 -68.5 0.5t-71.5 5.5t-66 15.5t-52 29.5t-30 49.5t1 74.5q11 51 38.5 85.5t66 55t85 29.5t94.5 9q44 0 73.5 -8.5t48.5 -19.5l1 7q1 3 2 7.5t2 9.5q10 46 5.5 73.5t-18 41.5
t-33.5 18.5t-42 4.5q-34 0 -57 -17.5t-40 -49.5q-11 -22 -33 -33t-45 -11q-15 0 -29 6q21 18 26 37t-1.5 34t-23.5 25t-41 10q-18 0 -41 -3.5t-45.5 -17t-41.5 -40t-29 -73.5q-18 -87 -29.5 -141.5t-18.5 -86t-9.5 -44.5t-3.5 -17q-3 -14 -1 -22t6 -12.5t9 -5.5t8 -1
q4 0 4.5 -4t-0.5 -8.5t-2.5 -8.5l-1.5 -4h-169q0 7 1 13q1 5 3 8.5t6 3.5zM605 25q17 0 34.5 7t23.5 35l50 235q-14 10 -40.5 18.5t-66.5 8.5q-34 0 -65 -7t-56.5 -24t-44 -47t-28.5 -76q-12 -55 5 -85.5t48 -44.5t69.5 -17t70.5 -3z" />
    <glyph glyph-name="uniE94C" unicode="tt" horiz-adv-x="530" 
d="M128 142q20 97 34 162t23 106q10 47 16 76h-73l6 25h20q45 0 79 18.5t53 56.5h34l-16 -75h71q40 0 67 21.5t45 53.5h34l-17 -75h106l-6 -25h-105l-73 -345q-9 -40 -4.5 -63.5t17.5 -35t31.5 -15t39.5 -3.5l-5 -24h-35t-43.5 3.5t-43.5 11.5t-35.5 24.5t-20 42t2.5 63.5
q20 96 34 160.5t22 105.5q10 47 16 75h-104l-73 -345q-9 -40 -4.5 -63.5t17.5 -35t32 -15t40 -3.5l-5 -24q-22 0 -56.5 1t-65.5 13t-49 41.5t-6 86.5z" />
    <glyph glyph-name="f_f" unicode="ff" horiz-adv-x="592" 
d="M57 25q7 0 20 5.5t20 35.5l89 420h-84l6 26h83l1 6q1 3 3 13q12 55 41.5 88t65.5 51t72.5 24t61.5 6q39 0 66.5 -7t47.5 -20q35 17 70 22t59 5q66 0 101 -19.5t56 -52.5l-70 -21q-2 32 -27.5 51t-61.5 19q-21 0 -42 -5t-39.5 -20t-34 -43t-25.5 -73l-5 -24h153l-6 -26
h-152l-90 -420q-3 -14 -1 -22.5t6 -12.5t9 -5t9 -1t4.5 -3.5t-1.5 -8.5q-1 -6 -4 -13h-169q0 7 1 13q2 5 3.5 8.5t5.5 3.5t9.5 1t11.5 4.5t11 12t8 23.5l90 420h-146l-89 -420q-3 -14 -1 -22.5t6 -12.5t9 -5t8 -1q5 0 5.5 -3.5t-1.5 -8.5q-1 -6 -4 -13h-170q0 7 1 13
q2 5 4 8.5t6 3.5zM434 512l1 6q1 3 3 13q8 40 27 67t42 44q-24 35 -72 35q-21 0 -42 -5t-40 -20t-34.5 -43t-24.5 -73l-6 -24h146z" />
    <glyph glyph-name="fi" unicode="fi" horiz-adv-x="546" 
d="M57 26q7 0 20 5.5t20 35.5l89 419h-84l6 26h83l6 25q11 52 41.5 84t67.5 49.5t74.5 23.5t62.5 6q91 0 133.5 -33.5t29.5 -91.5q-5 -23 -25.5 -42t-49.5 -19q-23 0 -38.5 16.5t-9.5 44.5q5 21 19.5 35.5t34.5 19.5q-9 22 -31 34.5t-66 12.5q-18 0 -39 -3.5t-41 -17
t-37.5 -41t-28.5 -76.5l-5 -27h143l-6 -26h-143l-89 -419q-3 -14 -1 -22.5t6 -12.5t9 -5t8 -1q8 0 4 -13q-1 -6 -4 -13h-170q0 7 1 13q4 13 10 13zM355 26q8 0 20.5 6.5t19.5 34.5l75 350q5 29 -1.5 35t-21.5 6q-4 0 -4.5 4t1.5 9q1 6 4 13l137 18l-93 -435q-3 -15 -1 -23.5
t6 -12.5t9 -5t9 -1t4.5 -3.5t-1.5 -8.5q-1 -6 -4 -13h-169q0 7 1 13q4 13 9 13z" />
    <glyph glyph-name="f_f_i" unicode="ffi" horiz-adv-x="788" 
d="M57 25q7 0 20 5.5t20 35.5l89 421h-83l5 25h83l6 25q11 52 40.5 84t65.5 49.5t72 23.5t60 6q46 0 71.5 -8.5t44.5 -19.5q29 13 61.5 20.5t73.5 7.5q36 0 69 -7.5t56 -23t34.5 -39t4.5 -54.5q-6 -29 -29.5 -45.5t-46.5 -16.5q-22 0 -38.5 16.5t-10.5 45.5q5 21 20.5 36
t34.5 18q-7 20 -30 33.5t-67 13.5q-18 0 -39.5 -3.5t-41.5 -17t-37.5 -41.5t-27.5 -76l-6 -27h144l-6 -25h-143l-90 -421q-3 -14 -1 -22.5t6.5 -12.5t9.5 -5t8 -1q4 0 4.5 -4t-0.5 -8.5t-3 -8.5l-2 -4h-169q0 7 1 13q2 5 4 8.5t6 3.5q7 0 20 5.5t20 35.5l89 421h-145
l-90 -421q-3 -14 -1 -22.5t6.5 -12.5t9.5 -5t8 -1q5 0 5 -3.5t-1 -8.5q-2 -6 -5 -13h-170q0 7 1 13q2 5 4 8.5t6 3.5zM598 26q7 0 20 6.5t20 34.5l74 350q5 29 -1 35t-21 6q-4 0 -4.5 3.5t0.5 8.5t4 12l137 18l-92 -433q-3 -15 -1.5 -24t5.5 -13t9.5 -5t8.5 -1q5 0 5.5 -3.5
t-1.5 -8.5q-1 -5 -4 -12h-169q0 7 1 13q2 13 9 13zM412 512l26 19q8 38 26.5 64.5t42.5 45.5q-11 13 -27 24.5t-45 11.5q-18 0 -38 -3.5t-39.5 -17t-36 -41.5t-26.5 -76l-6 -27h123z" />
    <glyph glyph-name="uniE950" unicode="gi" horiz-adv-x="725" 
d="M9 -78q5 21 15.5 36.5t24 25t29 14.5t29.5 5q17 0 29.5 -5.5t17.5 -16.5q-6 1 -16 0t-20.5 -8t-20 -20.5t-14.5 -36.5q-3 -13 -2 -29.5t14.5 -31.5t43 -24.5t82.5 -9.5q47 1 85 12q33 8 63 27.5t38 56.5q4 17 2 31.5t-18.5 25.5t-51.5 17.5t-97 8.5q-55 1 -90.5 9t-56 19
t-29 24.5t-10.5 25.5t0 21.5t3 12.5q2 8 15 24t36 25q-17 28 -23 63t2 73q9 45 36 84t65.5 68t85 46t95.5 17q29 0 52.5 -4.5t44.5 -17.5q32 5 62.5 12.5t56.5 17t46.5 19t33.5 16.5q-2 7 -3 14.5t1 16.5q5 22 25.5 41.5t49.5 19.5q27 0 40.5 -18.5t8.5 -40.5
q-2 -9 -11.5 -27t-38.5 -31q-19 -10 -49.5 -19t-65 -16t-70.5 -11.5t-65 -4.5q44 -28 64.5 -76t7.5 -106q-9 -45 -35 -84.5t-64 -69t-85 -46.5t-98 -17q-50 0 -92 17t-66 51q-9 -4 -17.5 -11t-10.5 -21q-1 -2 -0.5 -11t15 -18.5t48 -17t98.5 -7.5q10 0 33.5 -1t52 -4.5
t58.5 -11t53 -21t35.5 -33.5t6.5 -49q-7 -39 -38 -71q-13 -13 -33 -25.5t-48.5 -22.5t-66.5 -16t-88 -6q-64 0 -106.5 10.5t-67.5 28t-33 39t-3 43.5zM285 107q33 0 62 14.5t52 40.5t40 61t26 76t6.5 75.5t-15 60t-35.5 39.5t-56 14q-32 0 -61 -14t-52 -39.5t-40 -60
t-26 -75.5t-7 -76t14.5 -61t35.5 -40.5t56 -14.5zM535 26q8 0 20.5 6.5t19.5 34.5l73 344q6 29 -0.5 35t-21.5 6q-6 0 -4 13q1 5 4 12q31 4 71.5 13.5t68.5 20.5l-94 -444q-3 -15 -1.5 -24t5.5 -13t9.5 -5t8.5 -1q5 0 5.5 -3.5t-1.5 -8.5q-1 -5 -4 -12h-169q0 7 1 13
q4 13 9 13z" />
    <glyph glyph-name="uniE951" unicode="ft" horiz-adv-x="517" 
d="M58 25q7 0 20 5.5t20 35.5l89 421h-84l6 25h83l6 25q11 54 41 87t66 50.5t72.5 23.5t60.5 6q66 0 100.5 -19.5t55.5 -51.5l-69 -22q-2 30 -26.5 50t-62.5 20q-18 0 -38 -3.5t-39.5 -17.5t-36 -42.5t-27.5 -78.5l-6 -27h65q27 0 45.5 5.5t32 15.5t23.5 23.5t19 29.5h33
l-16 -74h105l-6 -25h-105l-73 -346q-9 -40 -4.5 -63.5t17.5 -35t32 -14.5t40 -3l-5 -25q-11 0 -31 -0.5t-42.5 2.5t-44.5 10.5t-38 23.5t-22.5 42t1.5 65q20 97 34 162t23 106q10 47 16 76h-104l-89 -421q-3 -14 -1 -22.5t6 -12.5t9 -5t8 -1q5 0 5.5 -3.5t-1.5 -8.5
q-1 -6 -4 -13h-170q0 7 1 13q2 5 4 8.5t6 3.5z" />
    <glyph glyph-name="uniE952" unicode="vi" horiz-adv-x="734" 
d="M120 512h169q2 -7 3 -12q2 -13 -5 -13q-3 0 -8 -1t-9.5 -5t-7 -12.5t-1.5 -22.5q14 -108 26 -192q5 -36 9 -71t8 -62.5t6 -44.5t2 -18l241 437q40 78 90.5 115.5t101.5 37.5q25 0 42 -16.5t10 -45.5q-6 -29 -29 -45.5t-45 -16.5q-24 0 -39 16.5t-10 39.5l-8.5 -2
t-23 -12.5t-34 -32t-40.5 -60.5q-1 -1 -20.5 -37t-48.5 -88.5t-62.5 -113t-62.5 -112.5t-48 -87l-19 -35h-49q-19 0 -29 16.5t-14 43.5l-51 386q-2 15 -6.5 23.5t-10 12t-11 4.5t-8.5 1q-6 0 -8 13q-1 5 0 12zM544 26q8 0 20.5 6.5t19.5 34.5l77 360q5 29 -1.5 35t-21.5 6
q-4 0 -4.5 4t1.5 9q1 6 4 13l136 18l-94 -445q-3 -15 -1.5 -24t5.5 -13t9.5 -5t8.5 -1q5 0 5.5 -3.5t-1.5 -8.5q-1 -5 -4 -12h-169q0 7 1 13q2 13 9 13z" />
    <glyph glyph-name="uniE953" unicode="wi" horiz-adv-x="1055" 
d="M120 511h169q2 -7 3 -12q2 -13 -5 -13q-3 0 -8 -1t-9.5 -5t-7 -12.5t-1.5 -22.5q14 -107 26 -192q5 -36 9 -70.5t8 -62t6 -44.5t2 -18l181 323l-8 64q-5 30 -17 35.5t-20 5.5q-6 0 -8 13q-1 5 0 12h169q2 -7 3 -12q2 -13 -5 -13q-3 0 -8 -1t-9.5 -5t-7 -12.5t-0.5 -22.5
q14 -107 25 -192q5 -36 9.5 -70.5t8 -62t5.5 -44.5t2 -18l242 437q40 76 88.5 114.5t101.5 38.5q17 0 28.5 -5.5t18 -14.5t8 -20t-0.5 -22q-5 -23 -25.5 -42.5t-48.5 -19.5q-22 0 -37 14.5t-13 41.5l-8.5 -3t-23 -13.5t-33 -30.5t-37.5 -55q-68 -122 -114 -204.5t-75 -135.5
t-44.5 -81t-22.5 -40.5t-8 -14.5l-1 -2h-44q-14 0 -22.5 5t-13.5 14t-8 21t-5 25l-36 279q-17 -30 -38 -67.5t-42 -75.5t-41 -74t-36 -64t-25.5 -45.5l-9.5 -17.5h-49q-17 0 -27.5 16.5t-14.5 43.5l-51 385q-2 15 -6.5 23.5t-10 12t-11 4.5t-8.5 1q-6 0 -8 13q-1 5 0 12z
M865 26q7 0 20 6.5t20 34.5l76 360q5 29 -1 35t-21 6q-4 0 -4.5 4t0.5 9q1 6 4 13l137 18l-95 -445q-3 -15 -1 -24t6 -13t9 -5t9 -1t4.5 -3.5t-1.5 -8.5q-1 -5 -4 -12h-169q0 7 1 13q4 13 10 13z" />
    <glyph glyph-name=".notdef" horiz-adv-x="250" 
 />
    <glyph glyph-name=".null" horiz-adv-x="0" 
 />
    <glyph glyph-name=".null" horiz-adv-x="0" 
 />
    <glyph glyph-name="uni000D" unicode="&#xd;" horiz-adv-x="250" 
 />
    <glyph glyph-name="space" unicode=" " horiz-adv-x="250" 
 />
    <glyph glyph-name="A" unicode="A" horiz-adv-x="651" 
d="M29 25q7 0 22 6t32 35l338 606q-2 5 -8 5q-5 0 -7 3.5t-2 8.5t1 11h83q17 0 23 -16.5t10 -43.5l75 -574q2 -15 6.5 -23.5t10 -12t11 -4.5t8.5 -1q5 0 6.5 -3.5t2.5 -8.5v-13h-164q-2 7 -3 13q-1 5 0 8.5t5 3.5q3 0 8 1t9.5 5t7.5 12.5t1 22.5l-26 196h-259l-109 -196
q-9 -15 -10 -23.5t2 -12t8 -4.5t8 -1q5 0 3.5 -3.5t-3.5 -8.5q-4 -6 -9 -13h-100q2 7 5 13q3 5 6.5 8.5t7.5 3.5zM476 291q-13 96 -22 173q-4 32 -8.5 63.5t-7.5 56t-5 40t-2 16.5l-195 -349h240z" />
    <glyph glyph-name="B" unicode="B" horiz-adv-x="668" 
d="M43 25q7 0 20 6.5t20 34.5l121 568q3 14 1 22.5t-6.5 12.5t-9.5 5t-8 1q-6 0 -4 13q1 5 4 12h291q41 0 80.5 -5.5t68.5 -21.5t43 -45t4 -76q-7 -32 -22 -55.5t-35.5 -40t-45.5 -26.5t-52 -15q39 -4 72 -16.5t55.5 -36t31 -61t-3.5 -92.5q-14 -67 -46 -108t-74 -63.5
t-91 -30t-97 -7.5h-327q0 7 1 13q1 5 3 8.5t6 3.5zM205 25h130q34 0 70 6t68 25t57.5 55.5t38.5 97.5t3 98t-34 56.5t-57.5 26t-67.5 6.5h-163l-70 -330q-3 -15 -0.5 -23.5t7 -12t10 -4.5t8.5 -1zM383 422q29 0 59.5 4.5t57.5 18t47.5 39t29.5 68.5q9 42 0 66.5t-28.5 37
t-47 16t-56.5 3.5h-106q-8 0 -20.5 -7t-18.5 -35l-45 -211h128z" />
    <glyph glyph-name="C" unicode="C" horiz-adv-x="718" 
d="M122 338q18 85 65 149.5t108 108.5t128.5 66.5t127.5 22.5q36 0 73 -6t70 -19t59 -32t39 -46l-83 -37q-14 48 -54 78.5t-112 30.5q-51 0 -102 -21.5t-95 -62t-77 -99t-49 -132.5q-15 -72 -6 -129.5t36.5 -97t69 -60.5t90.5 -21q57 0 111 21.5t88 55.5l47 -48
q-49 -31 -113.5 -46.5t-136.5 -15.5q-62 0 -120.5 22.5t-100.5 66t-61 107t-2 144.5z" />
    <glyph glyph-name="D" unicode="D" horiz-adv-x="672" 
d="M42 25q7 0 20 6.5t20 34.5l121 569q3 14 1 22.5t-6.5 12.5t-9.5 5t-8 1q-4 0 -4.5 3.5t0.5 8.5t4 12h270q95 0 150.5 -29.5t81.5 -78.5t27 -112t-13 -129q-14 -67 -44 -130t-79 -112t-117.5 -79t-158.5 -30h-265q0 7 1 13q1 5 3 8.5t6 3.5zM204 25h101q59 0 107 27.5
t85 73.5t62 104.5t38 119.5t11.5 119.5t-19 104t-52.5 73.5t-90 28h-49t-67 -1q-9 0 -18 -9t-14 -32l-121 -567q-3 -15 -0.5 -23t7.5 -12t10.5 -5t8.5 -1z" />
    <glyph glyph-name="E" unicode="E" horiz-adv-x="614" 
d="M42 25q7 0 20 6.5t20 34.5l121 568q3 14 1 22.5t-6.5 12.5t-9.5 5t-8 1q-6 0 -4 13q1 5 4 12h547l-63 -138q-13 -1 -23 2q-8 2 -13.5 7.5t-3.5 16.5q6 21 3.5 37t-11 27t-21 17t-27.5 6h-231q-8 -1 -20 -8t-18 -34l-57 -271h87q15 0 31.5 2.5t31.5 8.5t26.5 16t14.5 26
q2 10 7.5 13.5t11.5 4.5q7 1 15 -1l-35 -164q-8 -2 -15 -1q-5 1 -9 4.5t-3 13.5q3 14 -3 24t-17.5 16t-27.5 9t-33 3h-88l-57 -271q-3 -14 -2 -22t4.5 -12.5t8.5 -5.5t9 -1h228q15 0 30.5 6t29.5 17t24 27.5t13 37.5q2 11 10 16t17 7q10 2 23 1l5 -137h-547q0 7 1 13
q1 5 3 8.5t6 3.5z" />
    <glyph glyph-name="F" unicode="F" horiz-adv-x="613" 
d="M42 25q7 0 20 6.5t20 34.5l121 568q3 14 1 22.5t-6.5 12.5t-9.5 5t-8 1q-6 0 -4 13q1 5 4 12h547l-62 -137q-13 -1 -23 1q-8 2 -14 7.5t-3 16.5q6 21 2 37.5t-14 27.5t-24.5 16.5t-29.5 5.5h-220q-8 0 -21 -7t-19 -35l-58 -271h85q15 0 32 2.5t32.5 8t27 16t15.5 26.5
q2 10 7.5 13.5t11.5 4.5q7 1 15 -1l-35 -164q-9 -2 -16 -2q-5 1 -9 5t-2 14q3 16 -4 26t-20 16t-29 8t-31 2h-85l-58 -271q-3 -15 -1 -23.5t6 -12t9 -4.5t9 -1q5 0 5 -3.5t-1 -8.5q-2 -6 -5 -13h-168q0 7 1 13q1 5 3 8.5t6 3.5z" />
    <glyph glyph-name="G" unicode="G" horiz-adv-x="741" 
d="M122 338q17 81 61.5 145t105 109t131.5 69t142 24q83 0 144.5 -24.5t88.5 -78.5l-97 -37q-3 29 -16.5 50t-34 34t-45 19t-49.5 6q-56 0 -110 -25t-99 -67.5t-77.5 -100t-46.5 -122.5q-13 -63 -5 -119t34.5 -98t70 -66.5t100.5 -24.5q45 0 87.5 15t71.5 42l39 184
q5 26 -3 33.5t-16 8.5h-43q-12 0 -27 -2t-30.5 -8t-30 -17t-25.5 -29q-3 -6 -7.5 -8t-9.5 -1q-6 0 -11 2l35 87h317q0 -7 -1 -12q-2 -5 -3.5 -9t-6.5 -4q-8 0 -21 -6.5t-19 -35.5l-43 -200q-48 -36 -116.5 -54.5t-140.5 -18.5q-71 0 -132 24t-102.5 68t-58.5 107t-1 141z
" />
    <glyph glyph-name="H" unicode="H" horiz-adv-x="647" 
d="M42 25q7 0 20 6.5t20 34.5l121 568q3 14 1 22.5t-6.5 12.5t-9.5 5t-8 1q-6 0 -4 13q1 5 4 12h169q0 -7 -1 -12q-2 -13 -9 -13t-20.5 -6.5t-19.5 -35.5l-73 -342h318l73 343q3 14 1 22.5t-6 12.5t-9 5t-9 1q-6 0 -4 13q2 5 5 12h169q0 -7 -1 -12q-2 -5 -3.5 -9t-6.5 -4
q-7 0 -20 -6.5t-20 -35.5l-120 -567q-3 -15 -1.5 -23.5t5.5 -12t9.5 -4.5t8.5 -1q5 0 5.5 -3.5t-1.5 -8.5q-1 -6 -4 -13h-169q0 7 1 13q1 5 3 8.5t6 3.5q7 0 20 6.5t20 34.5l41 196h-317l-42 -196q-3 -15 -1 -23.5t6 -12t9 -4.5t9 -1q5 0 5 -3.5t-1 -8.5q-2 -6 -5 -13h-168
q0 7 1 13q1 5 3 8.5t6 3.5z" />
    <glyph glyph-name="I" unicode="I" 
d="M42 25q7 0 20 6.5t20 34.5l121 568q3 14 1 22.5t-6.5 12.5t-9.5 5t-8 1q-6 0 -4 13q1 5 4 12h169q0 -7 -1 -12q-2 -13 -9 -13t-20 -6.5t-20 -35.5l-120 -567q-3 -15 -1.5 -23.5t5.5 -12t9 -4.5t9 -1q5 0 5.5 -3.5t-1.5 -8.5q-1 -6 -4 -13h-169q0 7 1 13q1 5 3 8.5t6 3.5z
" />
    <glyph glyph-name="J" unicode="J" horiz-adv-x="574" 
d="M38 150l107 24q-6 -28 -3 -55t17 -47t39.5 -32.5t64.5 -12.5q47 0 80 13.5t55 38.5t35.5 60.5t22.5 78.5l89 416q3 14 1 22.5t-6.5 12.5t-9.5 5t-8 1q-6 0 -4 13q1 5 4 12h169q0 -7 -1 -12q-2 -13 -9 -13t-20.5 -6.5t-19.5 -35.5l-87 -410q-25 -116 -103.5 -169.5
t-193.5 -53.5q-36 0 -74 8t-69.5 26t-52.5 46.5t-23 69.5z" />
    <glyph glyph-name="K" unicode="K" horiz-adv-x="587" 
d="M43 25q7 0 20 6.5t20 34.5l120 568q3 14 1 22.5t-6 12.5t-9 5t-8 1q-6 0 -4 13q1 5 4 12h169q0 -7 -1 -12q-2 -13 -9 -13t-20.5 -6.5t-19.5 -35.5l-76 -358l343 359q13 14 17.5 22t4 12t-4 5.5t-6.5 1.5q-5 0 2 13q4 5 11 12h99q-4 -7 -9 -12t-10 -9t-10 -4q-7 0 -24 -6
t-45 -34l-244 -256l158 -320q15 -30 29.5 -35.5t21.5 -5.5t11 -9q2 -4 3 -9h-173q-4 7 -6 13q-2 5 -2 8.5t4 3.5t9 1t7.5 5t2 12.5t-7.5 22.5l-120 246l-69 -73l-37 -173q-3 -15 -1 -23.5t6 -12t9 -4.5t9 -1q5 0 5 -3.5t-1 -8.5q-2 -6 -5 -13h-168q0 7 1 13q1 5 3 8.5t6 3.5
z" />
    <glyph glyph-name="L" unicode="L" horiz-adv-x="608" 
d="M42 23q7 0 19.5 6.5t19.5 34.5l121 568q3 14 1 22.5t-6 12.5t-9 5t-8 1q-4 0 -4.5 3.5t0.5 8.5t4 12h169q0 -7 -1 -12t-3 -8.5t-6 -3.5q-8 0 -21 -6.5t-20 -35.5l-120 -567q-3 -14 -2 -22t4.5 -12.5t8.5 -5.5t9 -1h223q39 0 66 23.5t38 66.5q6 11 14 15.5t16 6.5
q9 2 19 0l4 -138h-547q0 7 1 13q4 13 10 13z" />
    <glyph glyph-name="M" unicode="M" horiz-adv-x="860" 
d="M45 25q7 0 20 6.5t20 34.5l121 568q3 14 1 22.5t-6.5 12.5t-9.5 5t-8 1q-6 0 -6 13q0 5 2 12h142l137 -566l380 566h139q0 -7 -1 -12q-2 -5 -3.5 -9t-6.5 -4q-7 0 -20 -6.5t-20 -35.5l-120 -567q-3 -15 -1.5 -23.5t5.5 -12t9.5 -4.5t8.5 -1q5 0 5.5 -3.5t-1.5 -8.5
q-1 -6 -4 -13h-170q0 7 1 13q2 5 4 8.5t6 3.5q7 0 20 6.5t20 34.5q34 163 62 292q11 55 22 107.5t19.5 93.5t14 66.5t5.5 26.5q0 -1 -19 -29.5t-50 -74t-70.5 -104t-80.5 -119.5q-96 -143 -218 -325q-44 181 -79 324q-15 61 -29 119.5t-25.5 104.5t-18.5 74.5l-7 28.5
l-5.5 -25.5t-14.5 -67t-20.5 -94t-23.5 -107.5q-27 -128 -62 -291q-3 -15 -1 -23.5t6 -12.5t9 -4.5t9 -0.5q5 0 5 -3.5t-1 -8.5q-2 -6 -5 -13h-96q0 7 1 13q1 5 3 8.5t6 3.5z" />
    <glyph glyph-name="N" unicode="N" horiz-adv-x="584" 
d="M42 25q7 0 20 6.5t20 34.5l121 568q3 14 1 22.5t-6.5 12.5t-9.5 5t-8 1q-6 0 -4 13q1 5 4 12h142l201 -545q8 34 16 72.5t17 78.5t17.5 80t16.5 76q18 86 37 172q3 14 1 22.5t-6.5 12.5t-9.5 5t-8 1q-6 0 -4 13q1 5 4 12h98q0 -7 -1 -12q-2 -5 -3.5 -9t-6.5 -4
q-7 0 -20 -6.5t-20 -35.5l-135 -633h-25q-71 184 -127 329q-24 62 -47 121.5t-41.5 106t-30 75.5t-12.5 30q0 -1 -5.5 -27.5t-14.5 -68.5t-20.5 -95.5t-23.5 -109.5q-28 -130 -63 -295q-3 -15 -1 -23.5t6 -12t9 -4.5t9 -1q5 0 5 -3.5t-1 -8.5q-2 -6 -5 -13h-96q0 7 1 13
q1 5 3 8.5t6 3.5z" />
    <glyph glyph-name="O" unicode="O" horiz-adv-x="802" 
d="M124 347q15 71 56 133t98.5 108.5t127 73t141.5 26.5t130 -26.5t96.5 -73t53 -108.5t-0.5 -133t-54.5 -134t-96.5 -110.5t-127.5 -75.5t-147.5 -28q-76 0 -134 28t-94.5 75.5t-49.5 110.5t2 134zM408 32q55 0 107 25t95.5 67.5t75 100t45.5 122.5t7 121.5t-32 98
t-67 65.5t-98 24q-55 0 -106.5 -24t-94.5 -65.5t-74 -98t-45 -121.5t-7 -122.5t32 -100t66 -67.5t96 -25z" />
    <glyph glyph-name="P" unicode="P" horiz-adv-x="662" 
d="M42 25q7 0 20 6.5t20 34.5l120 568q3 14 1 22.5t-6 12.5t-9 5t-8 1q-6 0 -4 13q1 5 4 12h327q48 0 94 -7.5t78.5 -30t46.5 -63.5t0 -108q-14 -66 -45.5 -108t-74 -65t-91.5 -31.5t-98 -8.5h-194l-44 -211q-3 -15 -1.5 -23t5.5 -12.5t9 -5.5t9 -1q5 0 5 -3.5t-1 -8.5
q-2 -6 -5 -13h-168q0 7 1 13q1 5 3 8.5t6 3.5zM229 304h44t51 -0.5t44.5 -0.5h23.5q34 0 70 6.5t68.5 26.5t58 57t38.5 98t3.5 97.5t-33.5 56t-57.5 25.5t-67.5 6h-130q-8 0 -22 -6t-21 -36z" />
    <glyph glyph-name="Q" unicode="Q" horiz-adv-x="783" 
d="M123 344q15 71 56 134t98.5 110t127 74.5t142.5 27.5t131.5 -27t96 -74t51.5 -110t-1 -135q-10 -49 -33 -94.5t-55 -84.5t-72.5 -70.5t-85.5 -52.5q29 -43 67 -65t70 -22q17 0 29 6q0 -11 -6.5 -23.5t-18.5 -23.5t-29.5 -18.5t-41.5 -7.5q-35 0 -59 13.5t-41 33t-28.5 41
t-22.5 38.5q-45 -13 -105 -13q-71 0 -127.5 27t-93.5 73.5t-50.5 109t1.5 133.5zM255 112q31 17 58.5 25t69.5 8q53 0 90.5 -21t69.5 -50q33 19 63 47t54.5 63t42.5 76.5t28 86.5q14 65 7 122t-32 99t-67 66t-98 24q-55 0 -107 -24.5t-95 -67t-74 -99.5t-45 -122
q-15 -69 -4.5 -129.5t39.5 -103.5zM409 34q15 0 31.5 2t35.5 7q-24 32 -52 54t-66 22q-26 0 -50.5 -5.5t-42.5 -15.5q26 -30 61.5 -47t82.5 -17z" />
    <glyph glyph-name="R" unicode="R" horiz-adv-x="663" 
d="M42 25q7 0 20 6.5t20 34.5l120 568q3 14 1 22.5t-6 12.5t-9 5t-8 1q-6 0 -4 13q1 5 4 12h308q49 0 97.5 -7.5t84.5 -30t53 -63.5t3 -108q-10 -49 -30.5 -84t-46.5 -58t-57 -36.5t-64 -20.5l61 -226q4 -15 10 -23.5t12 -12t11.5 -4.5t9.5 -1q5 0 6.5 -3.5t3.5 -8.5
q1 -6 1 -13h-169q-3 7 -5 13q-1 5 -0.5 8.5t4.5 3.5q3 0 8 1t9 5t5.5 12.5t-2.5 22.5l-57 212h-13.5h-26t-34.5 0.5t-38 0.5h-100l-45 -211q-3 -15 -1.5 -23.5t5.5 -13t9 -5.5t9 -1q5 0 5 -3.5t-1 -8.5q-2 -6 -5 -13h-168q0 7 1 13q1 5 3 8.5t6 3.5zM393 303q34 0 70 6.5
t68.5 26.5t58 57t38.5 98t3 97.5t-34 56t-57 25.5t-68 6h-130q-8 0 -22 -6t-21 -36l-70 -330h44t51.5 -0.5t45 -0.5h23.5z" />
    <glyph glyph-name="S" unicode="S" horiz-adv-x="654" 
d="M71 97l72 110q-8 -38 3.5 -71t37.5 -57t64 -38t81 -14q30 0 64 6t64 22.5t53.5 46.5t33.5 77q7 31 -7.5 53t-41.5 39t-63.5 31t-74 28.5t-73.5 31t-62 39t-38.5 53t-3.5 71.5q11 52 45 85.5t77.5 53.5t89.5 28t82 8q96 0 150 -24t76 -59l-60 -86q4 20 -2.5 44.5t-26.5 47
t-55 37.5t-87 15q-33 0 -66 -7t-61.5 -22.5t-49 -39.5t-27.5 -58q-7 -32 8 -55t43.5 -40t66.5 -30.5t78 -27.5t78 -30t65.5 -38.5t41 -53.5t5.5 -75q-13 -66 -47.5 -105.5t-80 -60t-98 -26.5t-101.5 -6q-63 0 -111 12t-80.5 28t-48 32t-13.5 25z" />
    <glyph glyph-name="T" unicode="T" horiz-adv-x="630" 
d="M149 562l44 138h541l-14 -138q-9 -2 -16 -1q-16 2 -19 15q-3 24 -7.5 42.5t-13 31t-22.5 19t-36 6.5h-70q-9 0 -20.5 -7t-16.5 -34l-123 -574q-3 -15 -1 -23.5t6 -13t9 -5.5t9 -1t4.5 -2.5t0 -6t-2 -6.5l-1.5 -3h-170v9q2 9 9 9t20 6.5t20 34.5l122 576q5 26 -3.5 33.5
t-16.5 7.5h-69q-23 0 -40 -6.5t-30.5 -19t-25.5 -31t-26 -42.5q-5 -8 -12 -10.5t-13 -3.5q-8 -1 -16 0z" />
    <glyph glyph-name="U" unicode="U" horiz-adv-x="645" 
d="M116 229l87 405q3 14 1 22.5t-6.5 12.5t-9.5 5t-8 1q-6 0 -4 13q1 5 4 12h169q0 -7 -1 -12q-2 -13 -9 -13t-20 -5.5t-20 -35.5q-24 -112 -42 -200q-8 -38 -15.5 -74.5t-14 -65t-10.5 -46.5t-4 -19q-7 -36 -9 -72.5t11.5 -66t46 -48t93.5 -18.5q56 0 97 12.5t70.5 38
t48.5 64t30 90.5q30 141 47.5 222t25.5 122q10 47 13 61t1 22.5t-6 12.5t-9 5t-9 1q-7 0 -3 13q1 5 4 12h97q0 -7 -1 -12q-2 -13 -9 -13t-20 -6.5t-20 -35.5q-24 -110 -42 -198q-8 -37 -15.5 -73.5t-14 -65t-10.5 -47t-4 -20.5q-12 -55 -32 -98t-53 -71.5t-81 -43.5
t-114 -15q-134 0 -193.5 58.5t-36.5 169.5z" />
    <glyph glyph-name="V" unicode="V" horiz-adv-x="656" 
d="M159 700h168q3 -7 4 -12q2 -13 -5 -13q-3 0 -8 -1t-9.5 -5t-7 -12.5t-1.5 -22.5q21 -160 37 -287q7 -54 14 -105.5t12 -92t8.5 -66t3.5 -26.5l323 577q8 15 9 23.5t-1.5 12t-7.5 4.5t-9 1q-6 0 1 13q3 5 8 12h97q-2 -7 -5 -12q-7 -13 -14 -13t-22 -6t-32 -35l-352 -634
h-50q-17 0 -27 16.5t-15 43.5l-74 574q-2 15 -6.5 23.5t-10 12t-11 4.5t-8.5 1q-7 0 -9 13v12z" />
    <glyph glyph-name="W" unicode="W" horiz-adv-x="977" 
d="M159 700h169q2 -7 3 -12q2 -13 -5 -13q-3 0 -8 -1t-9.5 -5t-7 -12.5t-1.5 -22.5q21 -160 38 -287q7 -54 13.5 -106t12 -92.5t8.5 -65.5t3 -26l182 325l-33 252q-2 15 -6.5 23.5t-10 12t-11 4.5t-8.5 1q-7 0 -9 13v12h169q2 -7 3 -12q2 -13 -4 -13q-4 0 -9 -1t-9.5 -5
t-6.5 -12.5t-1 -22.5q21 -160 38 -286q7 -54 13.5 -106t12 -92.5t8.5 -65.5t3 -26l322 576q8 15 9 23.5t-1.5 12t-7.5 4.5t-8 1q-4 0 -3 4t3 9q4 5 9 12h97q-3 -7 -6 -12q-2 -5 -5.5 -9t-8.5 -4q-7 0 -21.5 -6t-31.5 -35q-99 -177 -176 -317q-33 -59 -64.5 -116
t-56.5 -101.5t-40 -72l-15 -27.5h-47q-17 0 -29 15t-17 50l-36 280q-17 -30 -38 -67.5t-42 -76t-41.5 -74.5t-36 -64t-25 -45.5l-9.5 -17.5h-47q-20 0 -30 16.5t-15 43.5l-75 574q-2 15 -6.5 23.5t-10 12t-11 4.5t-8.5 1q-6 0 -8 13q-1 5 0 12z" />
    <glyph glyph-name="X" unicode="X" horiz-adv-x="663" 
d="M53 0q5 7 10 13q5 5 9.5 8.5t8.5 3.5q7 0 24 5.5t44 35.5l226 247l-140 320q-13 29 -27.5 35.5t-21.5 6.5q-4 0 -7 4t-5 9t-4 12h169q5 -7 7 -12t3 -9t-4 -4q-3 0 -8 -1t-8 -5t-3 -12.5t6 -22.5l108 -249l226 248q13 15 17 23t3.5 12.5t-5 5.5t-7.5 1q-4 0 -2 4t7 9
t13 12h96q-5 -7 -10 -12q-4 -5 -8.5 -9t-9.5 -4q-7 0 -24.5 -6t-44.5 -35l-243 -267l130 -301q6 -14 13 -22.5t14 -12.5t12.5 -5t9.5 -1t6.5 -3.5t4.5 -8.5q2 -6 4 -13h-169q-4 7 -7 13q-2 5 -2 8.5t4 3.5q3 0 8 1t8 4.5t3 12t-6 23.5l-98 229l-209 -229q-13 -14 -17 -22.5
t-3 -12.5t5.5 -5t7.5 -1q5 0 2.5 -3.5t-6.5 -8.5q-5 -6 -13 -13h-97z" />
    <glyph glyph-name="Y" unicode="Y" horiz-adv-x="681" 
d="M332 700q5 -7 8 -12q2 -5 3 -9t-4 -4q-3 0 -8 -1t-8 -5t-2.5 -12.5t7.5 -22.5l128 -268l238 267q13 15 17 23.5t3.5 12.5t-5 5t-7.5 1q-4 0 -2 4t6 9l12 12h97q-4 -7 -9 -12q-4 -5 -8 -9t-9 -4q-8 0 -25.5 -6t-43.5 -35l-254 -288l-59 -279q-3 -15 -1 -23t6 -12.5t9 -5.5
t8 -1q5 0 5.5 -3.5t-1.5 -8.5q-1 -6 -4 -13h-169q0 7 1 13q1 5 3 8.5t6 3.5q7 0 20 6.5t20 34.5l59 279l-138 288q-14 29 -28.5 35.5t-21.5 6.5q-4 0 -7.5 4t-5.5 9t-4 12h168z" />
    <glyph glyph-name="Z" unicode="Z" horiz-adv-x="606" 
d="M30 0q3 7 7 13q4 5 8 8.5t9 3.5q7 0 23 6t38 35l423 568q9 13 12 21t2.5 12.5t-4 6t-7.5 1.5h-213q-15 0 -32 -2.5t-34.5 -11.5t-34.5 -25.5t-32 -44.5q-6 -11 -13.5 -16t-14.5 -7q-8 -2 -16 -1l40 133h529q-3 -7 -7 -13q-4 -5 -8.5 -9t-9.5 -4q-7 0 -23.5 -6.5
t-39.5 -35.5l-420 -566q-10 -13 -13 -21.5t-2 -12.5t5 -5.5t8 -1.5h221q15 0 30 3.5t30 12.5t29.5 25.5t27.5 42.5q7 12 14.5 17t13.5 7q8 2 16 0l-36 -133h-526z" />
    <glyph glyph-name="a" unicode="a" horiz-adv-x="564" 
d="M72 176q11 51 38.5 85.5t66.5 55t85.5 29.5t95.5 9q43 0 72.5 -8.5t48.5 -19.5l5 24q11 49 5 76.5t-21 41t-34.5 16.5t-37.5 3q-39 0 -68.5 -18t-44.5 -54l-62 31q35 32 81.5 48.5t97.5 16.5q29 0 64.5 -6t65 -23.5t46 -49.5t5.5 -84l-60 -282q-3 -15 -1.5 -23.5t5.5 -12
t9.5 -4.5t8.5 -1q5 0 5.5 -3.5t-1.5 -8.5q-1 -6 -4 -13h-162q-38 0 -78 0.5t-77.5 5t-70 15t-54 30t-30.5 49.5t1 75zM365 26q17 0 34.5 7t23.5 34l50 235q-17 11 -42.5 19.5t-64.5 8.5q-34 0 -65 -7t-56.5 -24t-44 -47t-28.5 -76q-12 -54 4 -84.5t46.5 -45t69.5 -17.5
t73 -3z" />
    <glyph glyph-name="b" unicode="b" horiz-adv-x="556" 
d="M17 26q7 0 20 6.5t20 34.5l117 550q5 29 -1.5 35t-21.5 6q-7 0 -3 13q1 5 4 12l137 18l-52 -242q16 17 49.5 34.5t91.5 17.5q48 0 89.5 -15t69 -46t37.5 -79t-4 -115q-28 -133 -127 -194.5t-254 -61.5h-12h-22.5t-29.5 0.5t-33 0.5h-85q0 7 1 13q1 5 3 8.5t6 3.5zM194 25
q43 0 86.5 11t81.5 38t67 71.5t43 110.5q13 61 9 104.5t-20.5 71.5t-43.5 41t-60 13q-28 0 -48.5 -5.5t-35.5 -14.5t-25 -19t-17 -19l-77 -361q-6 -28 5.5 -35t34.5 -7z" />
    <glyph glyph-name="c" unicode="c" horiz-adv-x="526" 
d="M94 255q12 54 43 101t74 81.5t95 54.5t105 20q36 0 65.5 -7.5t51 -19t35 -25.5t18.5 -26l-73 -23q-11 38 -38 55.5t-65 17.5q-39 0 -73 -18t-61.5 -49t-47.5 -73.5t-30 -90.5q-10 -49 -8 -90.5t16.5 -72t41 -48t64.5 -17.5q36 0 66 15.5t56 39.5l45 -29
q-38 -26 -83.5 -39.5t-93.5 -13.5q-53 0 -95.5 20t-70.5 55t-38 82t1 100z" />
    <glyph glyph-name="d" unicode="d" horiz-adv-x="581" 
d="M95 257q14 67 44.5 115t71 79t88.5 45.5t97 14.5q29 0 49.5 -5t34.5 -12.5t22 -17t12 -17.5l51 242l129 -18q0 -7 -1 -12q-2 -13 -9 -13t-13 -1t-11 -5t-9 -12.5t-7 -22.5l-117 -550q-3 -14 -1 -22.5t6 -12.5t9 -5t9 -1t4.5 -3.5t-1.5 -8.5q-1 -6 -4 -13h-85
q-33 -1 -62 -1h-35q-78 0 -135.5 15.5t-92.5 47t-46.5 80t2.5 114.5zM372 25q23 0 37.5 7.5t20.5 34.5l77 362q-4 9 -10.5 19t-17.5 18.5t-29 14t-46 5.5q-33 0 -65 -13t-60 -40.5t-50 -71t-35 -104.5q-14 -67 -4.5 -111.5t35.5 -71.5t65 -38t82 -11z" />
    <glyph glyph-name="e" unicode="e" horiz-adv-x="579" 
d="M94 255q12 54 41.5 101t70.5 81.5t91.5 54.5t103.5 20q51 0 92 -20t67 -54.5t35 -81t-2 -99.5h-399q-10 -48 -8 -90t16.5 -73t41 -49t64.5 -18q41 0 77.5 20t65.5 54l46 -34q-42 -32 -91 -50.5t-109 -18.5q-53 0 -95.5 20t-70.5 55t-38 82t1 100zM200 283h300
q16 93 -10 148t-95 55t-120.5 -55t-74.5 -148z" />
    <glyph glyph-name="f" unicode="f" horiz-adv-x="349" 
d="M57 25q7 0 20 5.5t20 35.5l89 421h-83l5 25h83l6 26q11 51 39 83.5t63 51t72 25t66 6.5q66 0 101 -20t56 -52l-70 -21q-2 30 -26.5 50t-61.5 20q-18 0 -38.5 -3.5t-40 -17.5t-36 -42.5t-27.5 -78.5l-6 -27h154l-6 -25h-153l-89 -421q-3 -14 -1 -22.5t6 -12.5t9 -5t8 -1
q5 0 5.5 -3.5t-1.5 -8.5q-1 -5 -4 -12h-170q0 7 1 12q2 5 4 8.5t6 3.5z" />
    <glyph glyph-name="g" unicode="g" horiz-adv-x="546" 
d="M7 -86q4 20 14.5 35t24.5 25t29.5 15t30.5 5q34 0 46 -22q-6 1 -16 -0.5t-21 -8t-20 -20.5t-14 -36q-3 -13 -1.5 -29.5t15 -31t43 -24.5t82.5 -10q1 0 13.5 0.5t31 3t41 8.5t43 17t36 27.5t20.5 40.5q4 17 2 31.5t-18 25.5t-51 17.5t-97 7.5q-80 2 -119.5 16.5t-54 33
t-13 36t3.5 25.5t13.5 24t37.5 27q-18 27 -24 62t2 73q10 47 38 86t67 68t85.5 45t92.5 16q59 0 103 -25q6 10 17 25.5t26 29.5t33 24.5t37 10.5l19 -56q-4 1 -8 3q-10 2 -22 2q-17 0 -40.5 -9t-46.5 -38q42 -26 63 -74t8 -106q-10 -49 -38 -89t-67 -69t-85 -45t-92 -16
q-50 0 -91 17.5t-67 49.5q-9 -3 -17.5 -9.5t-10.5 -20.5l-1.5 -8.5t11.5 -19t47.5 -19t104.5 -8.5q12 0 35.5 -1t52 -5t58 -11.5t52 -21t34.5 -33.5t6 -49q-7 -39 -38 -70q-17 -18 -47 -34t-76.5 -26t-111.5 -10q-64 0 -107 10.5t-68 28t-33 39t-3 44.5zM283 98q33 0 62 15
t52.5 41t40 61t25.5 76t6.5 75.5t-15 59.5t-35.5 39t-56 14q-32 0 -60.5 -14t-52 -39t-40 -59.5t-25.5 -75.5t-7.5 -76t14 -61t35.5 -41t56 -15z" />
    <glyph glyph-name="h" unicode="h" horiz-adv-x="561" 
d="M42 26q7 0 20 6.5t20 34.5l117 550q5 29 -1.5 35t-21.5 6q-7 0 -3 13q1 5 4 12l137 18q-2 -6 -3 -15q-2 -8 -4.5 -19t-5.5 -26l-39 -182q16 17 49 34.5t92 17.5q47 0 82.5 -9.5t57.5 -31.5t28.5 -57.5t-4.5 -87.5l-55 -258q-3 -15 -1 -23.5t6 -12.5t9 -5t9 -1q5 0 5 -3.5
t-1 -8.5q-2 -5 -5 -12h-169q0 7 1 13q2 5 4 8.5t6 3.5q7 0 20 6.5t19 34.5q14 65 25 117q5 22 9 43t8 38t6.5 28.5t2.5 12.5q11 52 10 86.5t-12.5 55.5t-32.5 29.5t-50 8.5q-27 0 -47.5 -5.5t-35 -14t-24.5 -18.5t-18 -19l-77 -362q-3 -15 -1.5 -23.5t5.5 -12.5t9.5 -5
t8.5 -1q5 0 5.5 -3.5t-1.5 -8.5q-1 -5 -4 -12h-169q0 7 1 13q1 5 3 8.5t6 3.5z" />
    <glyph glyph-name="i" unicode="i" 
d="M42 26q7 0 20 6.5t20 34.5l77 361q5 29 -1.5 35t-21.5 6q-7 0 -3 13q1 5 4 12l136 18l-94 -445q-3 -15 -1.5 -23.5t5.5 -12.5t9.5 -5t8.5 -1q5 0 5.5 -3.5t-1.5 -8.5q-1 -5 -4 -12h-169q0 7 1 13q1 5 3 8.5t6 3.5zM172 587q5 27 28.5 44t46.5 17q29 0 41 -19.5t7 -41.5
q-2 -11 -8.5 -22.5t-16.5 -20.5t-22.5 -14.5t-27.5 -5.5q-22 0 -38 17t-10 46z" />
    <glyph glyph-name="j" unicode="j" horiz-adv-x="236" 
d="M-171 -96q0 -29 25 -51t63 -22q18 0 38.5 3t40.5 17t37.5 42.5t28.5 79.5q29 133 47.5 219.5t29.5 139.5q13 62 20 96q3 14 1 22.5t-6 12.5t-9 5t-9 1q-7 0 -3 13q1 5 4 12l137 17l-115 -537q-10 -47 -35 -78.5t-59 -50.5t-73.5 -27.5t-76.5 -8.5q-52 0 -92.5 15
t-59.5 57zM171 586q6 29 29 45.5t46 16.5q22 0 38 -16.5t10 -45.5t-29 -45.5t-46 -16.5q-22 0 -38 16.5t-10 45.5z" />
    <glyph glyph-name="k" unicode="k" horiz-adv-x="506" 
d="M42 26q7 0 20 6.5t20 34.5l117 550q5 29 -1.5 35t-21.5 6q-7 0 -3 13q1 5 4 12l137 18l-107 -499l232 246q14 15 18.5 23.5t3 12.5t-6 4.5t-7.5 0.5q-4 0 -2 3.5t6 8.5l12 12h97q-4 -7 -9 -12q-4 -5 -8 -8.5t-9 -3.5q-8 0 -25.5 -6t-44.5 -35l-147 -156l110 -225
q15 -30 29.5 -35.5t21.5 -5.5q5 0 8 -3.5t5 -8.5q3 -6 5 -13h-174q-4 7 -6 13q-1 5 0 8.5t6 3.5q3 0 7.5 1t6.5 5t1.5 12.5t-7.5 22.5l-76 158l-54 -58l-21 -100q-3 -15 -1.5 -23.5t5.5 -12.5t9.5 -5t8.5 -1q5 0 5.5 -3.5t-1.5 -8.5q-1 -5 -4 -12h-169q0 7 1 13q1 5 3 8.5
t6 3.5z" />
    <glyph glyph-name="l" unicode="l" horiz-adv-x="215" 
d="M42 26q7 0 20 6.5t20 34.5l117 550q5 29 -1.5 35t-20.5 6q-6 0 -4 13q1 5 4 12l137 18l-135 -634q-3 -15 -1.5 -23.5t5.5 -12.5t9.5 -5t8.5 -1q5 0 5.5 -3.5t-1.5 -8.5q-1 -5 -4 -12h-169q0 7 1 13q1 5 3 8.5t6 3.5z" />
    <glyph glyph-name="m" unicode="m" horiz-adv-x="808" 
d="M37 26q7 0 20 6.5t20 34.5l77 361q5 29 -1.5 35t-21.5 6q-7 0 -3 13q1 5 4 12l137 18q-1 -5 -3 -12q-2 -6 -4 -16l-5 -25q12 17 44 34.5t80 17.5q22 0 45.5 -3.5t45 -13t37.5 -25t23 -39.5q7 15 18.5 29.5t28.5 26t40 18.5t53 7q28 0 58.5 -6.5t54 -23t35.5 -45.5t2 -74
l-63 -295q-3 -15 -1 -23.5t6 -12.5t9 -5t9 -1q5 0 5 -3.5t-1 -8.5q-2 -5 -5 -12h-169q0 7 1 13q2 5 4 8.5t6 3.5q7 0 20 6.5t19 34.5q16 75 29 135q5 26 10.5 50.5t9.5 44t7 32.5t3 14q14 69 -4.5 106t-66.5 37q-27 0 -46.5 -7t-33 -18.5t-21.5 -25t-13 -26.5q2 -23 -4 -47
l-63 -295q-3 -15 -1 -23.5t6 -12.5t9 -5t9 -1q5 0 5 -3.5t-1 -8.5q-2 -5 -5 -12h-169q0 7 1 13q2 5 4 8.5t6 3.5q7 0 20 6.5t19 34.5q16 75 29 135q5 26 10.5 50.5t9.5 44t7 32.5t3 14q14 69 -5 106t-69 37q-25 0 -44 -7t-33 -18t-22 -23.5t-11 -24.5l-73 -346
q-3 -15 -1.5 -23.5t5.5 -12.5t9.5 -5t8.5 -1q5 0 5.5 -3.5t-1.5 -8.5q-1 -5 -4 -12h-169q0 7 1 13q1 5 3 8.5t6 3.5z" />
    <glyph glyph-name="n" unicode="n" horiz-adv-x="518" 
d="M37 26q7 0 20 6.5t20 34.5l77 361q5 29 -1.5 35t-21.5 6q-7 0 -3 13q1 5 4 12l137 18q-1 -5 -3 -13q-2 -7 -4 -17l-5 -25q14 20 44.5 37t78.5 17q28 0 59 -6.5t55 -23t36 -45.5t2 -74l-62 -295q-3 -15 -1.5 -23.5t5.5 -12.5t9.5 -5t8.5 -1q5 0 5.5 -3.5t-1.5 -8.5
q-1 -5 -4 -12h-170q0 7 1 13q2 5 4 8.5t6 3.5q7 0 20 6.5t19 34.5q16 75 29 135q5 26 10.5 50.5t9.5 44t7 32.5t3 14q14 69 -4.5 106t-68.5 37q-25 0 -45 -7t-33.5 -17.5t-21.5 -23.5t-11 -25l-73 -346q-3 -15 -1.5 -23.5t5.5 -12.5t9.5 -5t8.5 -1q5 0 5.5 -3.5t-1.5 -8.5
q-1 -5 -4 -12h-169q0 7 1 13q1 5 3 8.5t6 3.5z" />
    <glyph glyph-name="o" unicode="o" horiz-adv-x="604" 
d="M95 257q11 53 42 100t74 81.5t95 54.5t105 20t96.5 -20t72 -54.5t39.5 -81.5t-1 -100q-11 -53 -41 -100t-72.5 -82.5t-94.5 -56t-108 -20.5q-53 0 -96.5 19t-72 53.5t-39.5 82t1 104.5zM308 27q38 0 72 18t62 49.5t48 74t30 91.5q11 49 8.5 90.5t-17.5 71.5t-41.5 47
t-64.5 17q-37 0 -70.5 -17t-61.5 -47t-48 -71.5t-31 -90.5q-10 -49 -8 -91.5t16 -74t40.5 -49.5t65.5 -18z" />
    <glyph glyph-name="p" unicode="p" horiz-adv-x="575" 
d="M-5 -171q4 0 9.5 1t11 5t11 12.5t8.5 22.5l118 557q6 29 -0.5 35t-21.5 6q-4 0 -4.5 4t1.5 9q1 6 4 13l137 18q-2 -6 -3 -14q-2 -7 -4.5 -16.5t-5.5 -23.5q8 8 20 17.5t29.5 17.5t40.5 13.5t52 5.5q48 0 89.5 -15t69 -46t37.5 -79t-4 -115q-14 -66 -46.5 -114.5t-81 -80
t-112.5 -46.5t-142 -15h-49l-27 -131q-3 -15 -1.5 -23.5t5.5 -12.5t9.5 -5t8.5 -1q7 0 5 -8q-1 -4 -4 -8h-168q-1 5 0 8q0 9 8 9zM165 26h48q45 0 88.5 11t81 38t66 71.5t42.5 110.5q13 61 9 104.5t-20 71.5t-42 41t-56 13q-28 0 -49 -5.5t-36.5 -14t-26.5 -19t-20 -19.5z
" />
    <glyph glyph-name="q" unicode="q" horiz-adv-x="575" 
d="M95 257q14 67 44.5 115t71 79t88.5 46t97 15q29 0 49.5 -5.5t34 -13.5t21.5 -17.5t12 -17.5q3 14 5 23.5t4 16.5q1 8 2 14l129 -18q0 -7 -1 -13q-1 -5 -3 -9t-6 -4q-7 0 -13 -1t-11 -5t-9 -12.5t-7 -22.5l-118 -557q-3 -14 -2 -22.5t4.5 -12.5t8 -5t7.5 -1q8 0 7 -6.5
t-2 -10.5q-22 0 -44.5 2t-40 12t-25.5 29.5t-1 54.5l19 91h-49q-78 0 -135.5 15t-92.5 46.5t-46.5 80t2.5 114.5zM373 26h49l86 404q-4 9 -11 19.5t-19 18.5t-31 13.5t-47 5.5q-31 0 -62 -13t-59 -41t-50.5 -71.5t-35.5 -104.5q-14 -66 -4.5 -110.5t36 -71.5t65 -38
t83.5 -11z" />
    <glyph glyph-name="r" unicode="r" horiz-adv-x="501" 
d="M37 25q7 0 20 5.5t20 35.5l78 361q5 29 -1.5 35t-21.5 6q-4 0 -4.5 4t1.5 9q1 6 4 13l137 18q-1 -4 -2 -9t-2.5 -11t-3.5 -15q35 20 72.5 27.5t67.5 7.5q62 0 104.5 -17t59.5 -50l-70 -44q-1 15 -7 30.5t-18 28t-30.5 21t-44.5 8.5q-18 0 -41.5 -3.5t-46.5 -17t-43 -41.5
t-31 -77q-16 -77 -27.5 -129t-18 -84.5t-10 -48.5t-4.5 -22q-3 -14 -1 -22.5t6 -12.5t9 -5t8 -1q5 0 5.5 -3.5t-1.5 -8.5q-1 -5 -4 -12h-169q0 7 1 12t3 8.5t6 3.5z" />
    <glyph glyph-name="s" unicode="s" horiz-adv-x="544" 
d="M55 69l64 90q-6 -28 3 -53.5t29.5 -45t51 -31t67.5 -11.5q29 0 56 5.5t48.5 18t37 34t22.5 53.5q7 30 -15 49.5t-58 34t-79 28t-78 32t-55.5 44.5t-11.5 67q8 35 32 59.5t58 40t73.5 22.5t77.5 7q81 0 125 -17.5t64 -43.5l-54 -70q3 14 -2 33.5t-21 37t-44 30t-72 12.5
q-54 0 -95.5 -21t-52.5 -69q-6 -30 16.5 -49.5t59.5 -34.5t81 -28.5t80.5 -32.5t58 -46.5t13.5 -69.5q-10 -49 -37.5 -78.5t-65 -44.5t-81 -19.5t-84.5 -4.5q-54 0 -94 9t-67 21t-39.5 24t-11.5 18z" />
    <glyph glyph-name="t" unicode="t" horiz-adv-x="330" 
d="M129 146q20 96 32.5 155t19.5 91q8 38 12 54l9 41h-73l5 25l20 -1q45 0 80 19.5t52 56.5h34l-16 -75h110l-6 -25h-110l-2 -9t-9 -43t-21.5 -101.5t-39.5 -185.5q-9 -44 -4.5 -68.5t17 -36.5t31.5 -15t40 -3l-5 -24q-26 0 -61 1.5t-64.5 14t-46 42.5t-4.5 87z" />
    <glyph glyph-name="u" unicode="u" horiz-adv-x="517" 
d="M95 151l59 278q3 15 1.5 23.5t-5.5 12.5t-9.5 5t-8.5 1q-6 0 -4 13q1 5 4 12l136 16q-20 -94 -35 -168q-7 -31 -13.5 -62t-11.5 -55t-8.5 -39.5t-3.5 -17.5q-15 -70 2.5 -107t68.5 -37q27 0 47.5 7t34 18t21 23.5t9.5 24.5l71 330q3 15 1 23.5t-6 12.5t-9 5t-9 1
q-6 0 -4 13q2 5 5 12l136 16l-95 -446q-5 -29 1.5 -35t20.5 -6q5 0 5.5 -3.5t-1.5 -8.5q-1 -6 -4 -13h-79q-22 0 -34 15t-7 42q-17 -23 -45.5 -39.5t-76.5 -16.5q-28 0 -59 6.5t-55.5 23t-37 45.5t-2.5 75z" />
    <glyph glyph-name="v" unicode="v" horiz-adv-x="529" 
d="M120 512h169q2 -7 3 -12t0.5 -8.5t-5.5 -3.5q-3 0 -8 -1t-9.5 -5t-7 -12.5t-1.5 -22.5l4 -28.5t9.5 -71.5t12.5 -93t12.5 -93.5t9.5 -72.5t4 -30l217 389q8 15 9 23.5t-1.5 12t-7.5 4.5t-8 1q-4 0 -3 4t3 9q4 5 9 12h96q-2 -7 -5 -12q-7 -13 -14 -13t-22 -6t-32 -35
l-248 -446h-43q-24 0 -34 16.5t-14 43.5l-50 386q-2 15 -7 23.5t-10.5 12t-11 4.5t-8.5 1q-4 0 -5.5 3.5t-2.5 8.5t0 12z" />
    <glyph glyph-name="w" unicode="w" horiz-adv-x="853" 
d="M120 512h169q2 -7 3 -12q2 -13 -5 -13q-3 0 -8 -1t-9.5 -5t-7 -12.5t-1.5 -22.5q14 -107 26 -192q5 -36 9 -70.5t8 -62t6 -45t2 -18.5l181 324l-8 64q-2 15 -6.5 23.5t-10 12t-11 4.5t-8.5 1q-7 0 -9 13v12h169q2 -7 3 -12q2 -13 -4 -13q-4 0 -9 -1t-9.5 -5t-6.5 -12.5
t-1 -22.5q14 -108 25 -192q5 -36 9.5 -71t8.5 -62.5t6 -44.5t2 -18l217 388q8 15 9 23.5t-1.5 12t-7.5 4.5t-8 1q-4 0 -3 4t3 9q4 6 9 13h96q-2 -7 -5 -13q-3 -5 -6 -9t-8 -4q-7 0 -22 -6t-32 -35q-69 -125 -123 -223q-23 -42 -45.5 -81.5t-40 -71t-28 -51l-10.5 -19.5h-44
q-14 0 -22.5 5.5t-13.5 14.5t-7.5 21t-4.5 25l-37 280q-17 -30 -38 -67.5t-42 -76t-41.5 -75t-36 -64.5t-25 -45.5l-9.5 -17.5h-49q-17 0 -27.5 16.5t-14.5 43.5l-51 386q-2 15 -6.5 23.5t-10 12t-11 4.5t-8.5 1q-6 0 -8 13q-1 5 0 12z" />
    <glyph glyph-name="x" unicode="x" horiz-adv-x="540" 
d="M87 25q7 0 24 5.5t45 35.5l137 152l-98 227q-14 30 -28.5 36t-21.5 6q-4 0 -7 4t-5 9q-2 6 -4 13h169q5 -7 7 -13q2 -5 3 -9t-4 -4q-3 0 -8 -1t-8 -5t-3 -12.5t6 -22.5l68 -156l141 155q14 15 18 23t3 12.5t-5.5 5.5t-7.5 1q-4 0 -2 4t7 9t13 12h97q-5 -7 -10 -12
q-4 -5 -8.5 -9t-9.5 -4q-7 0 -24.5 -6t-44.5 -35l-159 -175l88 -203q13 -29 27.5 -35t21.5 -6q5 0 8 -3.5t5 -8.5q2 -6 4 -13h-169q-5 7 -8 13q-2 5 -2.5 8.5t3.5 3.5q3 0 8 0.5t8 4.5t3 12.5t-6 23.5l-56 131l-122 -133q-13 -14 -17 -22.5t-2.5 -12.5t5.5 -5t8 -1t1.5 -4
t-7 -8.5l-8.5 -8.5l-4 -4h-96q5 7 9 13q5 5 9.5 8.5t8.5 3.5z" />
    <glyph glyph-name="y" unicode="y" horiz-adv-x="495" 
d="M48 -95l72 28q-1 -11 2 -20q3 -8 10 -14t21 -6q10 0 23 7t29 34l30 54l-70 458q-2 14 -7 22.5t-10.5 12.5t-11 5t-8.5 1q-8 0 -10 13q0 5 1 12h171q2 -7 3 -12q0 -5 -0.5 -9t-5.5 -4q-3 0 -8.5 -1t-10 -4.5t-7 -12t-0.5 -23.5l45 -331l188 331q9 15 10 23.5t-1.5 12
t-7.5 4.5t-9 1t-2.5 4t3.5 9q4 5 9 12h98q-3 -7 -6 -12q-2 -5 -5.5 -9t-8.5 -4q-7 0 -22 -6t-32 -35l-298 -530q-6 -9 -13.5 -21t-19.5 -22.5t-28.5 -18t-40.5 -7.5q-12 0 -25 3t-23.5 10t-17 18t-6.5 27z" />
    <glyph glyph-name="z" unicode="z" horiz-adv-x="563" 
d="M58 29q7 0 23 6t38 35l337 376q9 13 12 21t2.5 12.5t-4 6t-7.5 1.5h-160q-15 0 -32 -2.5t-34.5 -11.5t-34.5 -25t-31 -43q-2 -5 -6 -6.5t-8 -2.5q-4 0 -9 1l45 116h453q-4 -7 -8 -12t-8 -9t-8 -4q-7 0 -25.5 -6.5t-41.5 -37.5l-337 -377q-10 -14 -13.5 -22t-2 -12.5
t5.5 -5.5t8 -1h166q15 0 31.5 3t33 12.5t32.5 27t31 45.5q6 10 16 10q5 1 10 0l-48 -124h-454q4 8 8 15q5 5 10 9.5t10 4.5z" />
    <glyph glyph-name="zero" unicode="0" horiz-adv-x="674" 
d="M124 349q20 91 59 157.5t88.5 110t105.5 64.5t109 21t100 -21.5t78.5 -65t42.5 -110t-9 -156.5q-19 -90 -58 -156t-88.5 -109.5t-105.5 -64.5t-109 -21t-100 21t-78.5 64t-42.5 109.5t8 156.5zM343 28q83 0 152.5 80.5t104.5 243.5q17 81 16 142t-17.5 101t-47 60
t-71.5 20q-82 0 -151.5 -80t-104.5 -243q-17 -81 -16 -141.5t17 -101t46.5 -61t71.5 -20.5z" />
    <glyph glyph-name="one" unicode="1" horiz-adv-x="262" 
d="M56 18q7 0 19.5 6.5t19.5 34.5l114 536q5 29 0 35t-19 6q-6 0 -6 9q0 3 2 8l143 47l-137 -641q-3 -15 -1 -23.5t6 -12t9 -4.5t9 -1q6 0 4 -9q-1 -4 -3 -9h-169v9q2 9 9 9z" />
    <glyph glyph-name="two" unicode="2" horiz-adv-x="591" 
d="M50 18q4 0 9.5 2t7.5 8q17 49 59 92t95.5 82.5t112 77t109 76t86 78.5t43.5 85q11 69 -11 113.5t-86 44.5q-46 0 -82.5 -14.5t-63 -38t-42.5 -54t-21 -62.5l-76 69q35 35 66.5 58.5t65.5 38.5t72 21.5t86 6.5q39 0 75.5 -12t62.5 -36t38 -59t3 -81q-11 -56 -44.5 -102.5
t-78.5 -86t-97.5 -74.5t-100.5 -68t-87.5 -66.5t-59.5 -69.5q-12 -22 8 -22h244q15 0 28 3.5t25.5 12t25.5 24.5t28 41q6 10 16 10q5 1 10 0l-46 -116h-488v9q2 9 8 9z" />
    <glyph glyph-name="three" unicode="3" horiz-adv-x="609" 
d="M62 125l96 65q-7 -32 -3.5 -62t20 -53t48 -37t80.5 -14q39 0 72 13t58 36t42 54.5t25 68.5q18 86 -28.5 125t-157.5 39l8 38q33 0 70.5 7.5t70.5 25t57.5 45.5t33.5 69q7 34 1.5 58.5t-21 41t-39.5 24.5t-53 8q-48 0 -83 -14.5t-59 -36t-37 -48t-16 -50.5l-58 61
q32 31 62.5 52t62.5 34t69 19t83 6q34 0 71 -8t66 -26.5t44 -49.5t5 -77q-13 -60 -54 -100t-106 -57q41 -9 67 -26.5t40 -41.5t16.5 -52.5t-3.5 -59.5q-11 -52 -39.5 -90.5t-70 -63.5t-94.5 -37t-115 -12q-51 0 -87.5 7.5t-63 23.5t-45.5 39.5t-35 55.5z" />
    <glyph glyph-name="four" unicode="4" horiz-adv-x="546" 
d="M521 701h97l-113 -532h31l-4 -18h-31l-20 -92q-3 -15 -1 -23.5t6 -12t9 -4.5t9 -1q6 0 4 -9q-1 -4 -3 -9h-169v9q2 9 9 9t20 6.5t20 34.5l19 92h-342zM408 169l89 420l-368 -420h279z" />
    <glyph glyph-name="five" unicode="5" horiz-adv-x="621" 
d="M84 150l127 39q-8 -28 -9.5 -56.5t9 -51t36.5 -37t73 -14.5q40 0 74 20.5t61 52.5t45.5 70.5t26.5 75.5q10 47 9 91t-16 78t-45.5 54t-79.5 20q-37 0 -73.5 -14t-66 -36t-50 -48.5t-26.5 -52.5l-30 -4l65 306q3 15 1.5 23.5t-5.5 12t-9.5 4.5t-8.5 1q-7 0 -5 9q1 3 4 8
h501l-61 -123q-6 0 -11 1q-4 1 -7 3.5t-1 7.5q17 52 5.5 69t-40.5 17h-226q-3 0 -8.5 -1t-11.5 -5t-12 -12.5t-9 -22.5l-31 -145q6 3 20.5 7.5t33 9t39 8t36.5 3.5q74 0 122 -24.5t74.5 -62.5t33.5 -84t-2 -88q-12 -56 -42 -104t-73 -82.5t-96 -54t-111 -19.5q-48 0 -88 7.5
t-70.5 25.5t-49 47t-22.5 71z" />
    <glyph glyph-name="six" unicode="6" horiz-adv-x="664" 
d="M105 259q12 58 39.5 108.5t63.5 94t77.5 80.5t81.5 67t75.5 53.5t59.5 39.5l21 -20q-48 -37 -101 -84.5t-102 -111.5q30 14 62.5 22t64.5 8q48 0 95.5 -17.5t82 -50.5t51 -80.5t3.5 -108.5q-12 -59 -47 -106.5t-82.5 -81t-103 -51.5t-108.5 -18q-67 0 -116 21.5t-78.5 57
t-39 82t0.5 96.5zM344 30q41 0 79 18t69.5 49.5t55 73.5t33.5 91q10 48 5 90t-23.5 73t-49 48.5t-71.5 17.5q-31 0 -67.5 -12.5t-69.5 -39.5t-60 -70.5t-40 -106.5q-10 -49 -5.5 -91t23 -73.5t49.5 -49.5t72 -18z" />
    <glyph glyph-name="seven" unicode="7" horiz-adv-x="548" 
d="M142 0q1 5 3 9q5 9 11 9q8 0 23 6.5t31 34.5l343 617h-249q-15 0 -28.5 -3.5t-27 -13t-28 -26.5t-29.5 -45q-3 -5 -7.5 -7.5t-9.5 -3.5q-5 0 -11 1l46 123h463l-357 -642q-8 -15 -9 -23.5t1.5 -12t7.5 -4.5t8 -1q5 0 4.5 -2.5t-2.5 -6.5q-3 -4 -7 -9h-176z" />
    <glyph glyph-name="eight" unicode="8" horiz-adv-x="674" 
d="M89 181q11 50 34 85.5t55 60t70.5 39.5t80.5 24q-43 14 -67.5 32.5t-36 39t-12.5 42.5t3 43q8 38 32 67t60.5 48t83 28.5t99.5 9.5t95 -9.5t69 -28.5t37.5 -48t2.5 -67q-7 -31 -25.5 -55t-46 -41.5t-63.5 -29.5t-77 -20q63 -18 101.5 -42t58 -52.5t23.5 -60t-3 -64.5
q-8 -38 -34.5 -71.5t-68.5 -58.5t-98 -39.5t-123 -14.5q-69 0 -120 13.5t-83 38t-44 58t-3 73.5zM342 23q41 0 78 12t66.5 33t50 50.5t27.5 64.5q7 33 0.5 59t-21.5 45t-36.5 33t-44.5 23.5t-45 15.5t-38 10q-2 0 -27 -5.5t-57.5 -24.5t-63 -56t-44.5 -100q-7 -35 1 -64.5
t28.5 -50.5t52.5 -33t73 -12zM443 418q40 11 67 21t44.5 24t28 34.5t16.5 51.5q15 70 -13.5 100t-100.5 30q-48 0 -79.5 -11.5t-51 -30.5t-29 -42t-14.5 -46q-6 -30 2.5 -50t27 -34t45.5 -24.5t57 -22.5z" />
    <glyph glyph-name="nine" unicode="9" horiz-adv-x="664" 
d="M134 444q13 59 48 107t82.5 81.5t103 51.5t108.5 18q68 0 116.5 -21.5t78 -57t39 -82t-1.5 -97.5q-12 -57 -39.5 -107.5t-63.5 -94.5t-77.5 -81t-81.5 -67t-75 -53t-59 -39l-22 19q48 37 101.5 84.5t101.5 111.5q-30 -14 -62 -22t-64 -8q-48 0 -95.5 17.5t-82 50.5
t-51.5 81t-4 108zM372 212q31 0 67 12.5t69 39.5t60.5 71t40.5 107q10 48 5 90.5t-23 73.5t-49 49t-72 18t-79.5 -18t-70 -49t-54.5 -73.5t-33 -90.5q-10 -49 -5.5 -91t23 -73t49.5 -48.5t72 -17.5z" />
    <glyph glyph-name="comma" unicode="," horiz-adv-x="111" 
d="M98 52l-75 -91h-17l37 91h55z" />
    <glyph glyph-name="comma" unicode="&#xe911;" horiz-adv-x="111" 
d="M98 52l-75 -91h-17l37 91h55z" />
    <glyph glyph-name="hyphen" unicode="-" 
d="M74 295l9 44h209l-9 -44h-209z" />
    <glyph glyph-name="hyphen" unicode="&#xe90f;" 
d="M74 295l9 44h209l-9 -44h-209z" />
    <glyph glyph-name="plus" unicode="+" horiz-adv-x="242" 
d="M79 294l8 42h76l16 75h58l-16 -75h76l-9 -42h-76l-16 -75h-58l16 75h-75z" />
    <glyph glyph-name="plus" unicode="&#xe910;" horiz-adv-x="242" 
d="M79 294l8 42h76l16 75h58l-16 -75h76l-9 -42h-76l-16 -75h-58l16 75h-75z" />
    <glyph glyph-name="asterisk" unicode="*" horiz-adv-x="235" 
d="M304 672l54 -21l-21 -24l-62 23l-12 -53h-37l11 53l-72 -23l-12 24l64 21l-55 20l22 24l62 -23l11 54h38l-11 -54l72 23l11 -24z" />
    <glyph glyph-name="asterisk" unicode="&#xe90e;" horiz-adv-x="235" 
d="M304 672l54 -21l-21 -24l-62 23l-12 -53h-37l11 53l-72 -23l-12 24l64 21l-55 20l22 24l62 -23l11 54h38l-11 -54l72 23l11 -24z" />
    <glyph glyph-name="asciicircum" unicode="^" horiz-adv-x="260" 
d="M285 729l94 -113h-51l-48 90l-88 -90h-50z" />
    <glyph glyph-name="asciicircum" unicode="&#xe913;" horiz-adv-x="260" 
d="M285 729l94 -113h-51l-48 90l-88 -90h-50z" />
    <glyph glyph-name="tilde" unicode="&#x2dc;" horiz-adv-x="278" 
d="M313 700q10 -5 19.5 -7t17.5 -2q11 0 19 2.5t14 4.5q7 3 13 7l4 -28q-19 -10 -35 -13.5t-30 -3.5q-12 0 -21.5 2t-15.5 4q-8 3 -14 6q-9 5 -18.5 7t-19.5 2q-13 0 -25 -3t-21 -6q-11 -5 -20 -10l-8 26q25 15 46 20.5t38 5.5q24 0 39 -6t18 -8z" />
    <glyph glyph-name="tilde" unicode="&#xe91b;" horiz-adv-x="278" 
d="M313 700q10 -5 19.5 -7t17.5 -2q11 0 19 2.5t14 4.5q7 3 13 7l4 -28q-19 -10 -35 -13.5t-30 -3.5q-12 0 -21.5 2t-15.5 4q-8 3 -14 6q-9 5 -18.5 7t-19.5 2q-13 0 -25 -3t-21 -6q-11 -5 -20 -10l-8 26q25 15 46 20.5t38 5.5q24 0 39 -6t18 -8z" />
    <glyph glyph-name="slash" unicode="/" horiz-adv-x="489" 
d="M71 24q7 0 22.5 6t34.5 35l356 568q9 14 10.5 22.5t-1 12.5t-7 5t-7.5 1q-6 0 1 13q4 5 10 12h97q-3 -7 -6 -12q-7 -13 -15 -13q-7 0 -23 -6.5t-34 -35.5l-356 -567q-9 -15 -11 -23.5t0.5 -12t7.5 -4.5t8 -1q5 0 3.5 -3.5t-4.5 -8.5q-4 -6 -10 -13h-97q3 7 6 13
q3 5 7 8.5t8 3.5z" />
    <glyph glyph-name="slash" unicode="&#xe91f;" horiz-adv-x="489" 
d="M71 24q7 0 22.5 6t34.5 35l356 568q9 14 10.5 22.5t-1 12.5t-7 5t-7.5 1q-6 0 1 13q4 5 10 12h97q-3 -7 -6 -12q-7 -13 -15 -13q-7 0 -23 -6.5t-34 -35.5l-356 -567q-9 -15 -11 -23.5t0.5 -12t7.5 -4.5t8 -1q5 0 3.5 -3.5t-4.5 -8.5q-4 -6 -10 -13h-97q3 7 6 13
q3 5 7 8.5t8 3.5z" />
    <glyph glyph-name="backslash" unicode="\" horiz-adv-x="489" 
d="M198 695h98q3 -7 4 -12q2 -5 1.5 -8.5t-5.5 -3.5q-3 0 -8 -1t-9.5 -5t-6.5 -12.5t1 -22.5l115 -569q6 -28 19 -34.5t20 -6.5q5 0 6.5 -3.5t3.5 -8.5q1 -6 1 -13h-98q-3 7 -4 13q-1 5 -0.5 8.5t4.5 3.5q3 0 8.5 1t9.5 4.5t5.5 12t-1.5 23.5l-114 567q-3 15 -8 23.5t-11 13
t-11.5 5.5t-9.5 1t-6 3.5t-3 8.5t-1 12z" />
    <glyph glyph-name="period" unicode="." horiz-adv-x="111" 
d="M26 10q3 14 15 24t26 10t22 -10t5 -24t-15 -24t-26 -10t-22 10t-5 24z" />
    <glyph glyph-name="period" unicode="&#xe915;" horiz-adv-x="111" 
d="M26 10q3 14 15 24t26 10t22 -10t5 -24t-15 -24t-26 -10t-22 10t-5 24z" />
    <glyph glyph-name="colon" unicode=":" horiz-adv-x="309" 
d="M157 227q4 19 20 32.5t35 13.5q20 0 30 -13.5t6 -32.5t-20 -32.5t-35 -13.5t-30 13.5t-6 32.5zM198 421q4 19 20 32t35 13q20 0 30.5 -13t5.5 -32q-4 -20 -20 -33t-35 -13t-30 13t-6 33z" />
    <glyph glyph-name="colon" unicode="&#xe914;" horiz-adv-x="309" 
d="M157 227q4 19 20 32.5t35 13.5q20 0 30 -13.5t6 -32.5t-20 -32.5t-35 -13.5t-30 13.5t-6 32.5zM198 421q4 19 20 32t35 13q20 0 30.5 -13t5.5 -32q-4 -20 -20 -33t-35 -13t-30 13t-6 33z" />
    <glyph glyph-name="semicolon" unicode=";" horiz-adv-x="309" 
d="M199 427q5 19 21 32.5t35 13.5t29.5 -13.5t6.5 -32.5q-5 -19 -20.5 -32.5t-35.5 -13.5q-19 0 -29.5 13.5t-6.5 32.5zM150 207l39 99h55l-77 -99h-17z" />
    <glyph glyph-name="less" unicode="&#x3c;" horiz-adv-x="294" 
d="M353 373l-130 -44l112 -40l-16 -73l-238 114l287 116z" />
    <glyph glyph-name="less" unicode="&#xe919;" horiz-adv-x="294" 
d="M353 373l-130 -44l112 -40l-16 -73l-238 114l287 116z" />
    <glyph glyph-name="equal" unicode="=" horiz-adv-x="250" 
d="M79 298h210l-10 -45h-209zM97 383h209l-9 -45h-209z" />
    <glyph glyph-name="equal" unicode="&#xe916;" horiz-adv-x="250" 
d="M79 298h210l-10 -45h-209zM97 383h209l-9 -45h-209z" />
    <glyph glyph-name="greater" unicode="&#x3e;" horiz-adv-x="294" 
d="M109 446l237 -116l-286 -114l15 73l129 41l-111 43z" />
    <glyph glyph-name="exclam" unicode="!" horiz-adv-x="227" 
d="M199 630q3 14 1 22.5t-6 12.5t-9 5t-8 1q-8 0 -4 13q1 5 4 12h169q0 -7 -1 -12q-2 -13 -9 -13q-4 0 -9.5 -1t-11.5 -5.5t-11 -13t-8 -23.5l-130 -491q-8 5 -22 5q-13 0 -26 -5zM64 58q5 26 27 44t48 18t40 -18t9 -44q-6 -26 -27.5 -44t-47.5 -18t-40 18t-9 44z" />
    <glyph glyph-name="exclam" unicode="&#xe900;" horiz-adv-x="227" 
d="M199 630q3 14 1 22.5t-6 12.5t-9 5t-8 1q-8 0 -4 13q1 5 4 12h169q0 -7 -1 -12q-2 -13 -9 -13q-4 0 -9.5 -1t-11.5 -5.5t-11 -13t-8 -23.5l-130 -491q-8 5 -22 5q-13 0 -26 -5zM64 58q5 26 27 44t48 18t40 -18t9 -44q-6 -26 -27.5 -44t-47.5 -18t-40 18t-9 44z" />
    <glyph glyph-name="question" unicode="?" horiz-adv-x="577" 
d="M424 696q43 0 89 -8.5t81 -31t53 -63t4 -103.5q-11 -54 -38 -91t-61.5 -63.5t-72.5 -47t-71 -42t-57.5 -46.5t-32.5 -62q-5 3 -11 4t-14 1t-15 -1t-14 -4q8 37 30 67t51 57.5t62 53t62 52.5t51 56t29 64q11 52 4.5 87t-25 56.5t-46.5 30.5t-60 9q-50 0 -85.5 -15.5
t-59.5 -40t-38 -54t-20 -57.5l-68 67q42 58 109.5 91.5t163.5 33.5zM214 58q5 26 27 44t48 18t40 -18t8 -44q-5 -26 -27 -44t-48 -18t-39.5 18t-8.5 44z" />
    <glyph glyph-name="question" unicode="&#xe901;" horiz-adv-x="577" 
d="M424 696q43 0 89 -8.5t81 -31t53 -63t4 -103.5q-11 -54 -38 -91t-61.5 -63.5t-72.5 -47t-71 -42t-57.5 -46.5t-32.5 -62q-5 3 -11 4t-14 1t-15 -1t-14 -4q8 37 30 67t51 57.5t62 53t62 52.5t51 56t29 64q11 52 4.5 87t-25 56.5t-46.5 30.5t-60 9q-50 0 -85.5 -15.5
t-59.5 -40t-38 -54t-20 -57.5l-68 67q42 58 109.5 91.5t163.5 33.5zM214 58q5 26 27 44t48 18t40 -18t8 -44q-5 -26 -27 -44t-48 -18t-39.5 18t-8.5 44z" />
    <glyph glyph-name="quotesingle" unicode="'" horiz-adv-x="119" 
d="M275 781l-94 -113h-28l48 113h74z" />
    <glyph glyph-name="quotedbl" unicode="&#x22;" horiz-adv-x="221" 
d="M201 781h74l-94 -113h-28zM254 668l47 113h75l-95 -113h-27z" />
    <glyph glyph-name="numbersign" unicode="#" horiz-adv-x="416" 
d="M23 25l119 244h-64l12 23h63l40 82h-67l12 23h66l113 234l79 -2l-112 -232h53l113 234l78 -2l-112 -232h67l-12 -23h-67l-39 -82h70l-12 -23h-70l-118 -244h-79l118 244h-53l-118 -244h-80zM285 292l40 82h-53l-40 -82h53z" />
    <glyph glyph-name="numbersign" unicode="&#xe91d;" horiz-adv-x="416" 
d="M23 25l119 244h-64l12 23h63l40 82h-67l12 23h66l113 234l79 -2l-112 -232h53l113 234l78 -2l-112 -232h67l-12 -23h-67l-39 -82h70l-12 -23h-70l-118 -244h-79l118 244h-53l-118 -244h-80zM285 292l40 82h-53l-40 -82h53z" />
    <glyph glyph-name="at" unicode="@" horiz-adv-x="624" 
d="M86 263q12 57 44.5 105t78.5 83t101.5 54.5t113.5 19.5q59 0 106 -20t78 -54.5t43 -81.5t1 -100q-4 -17 -15.5 -45t-32.5 -54.5t-53.5 -46t-78.5 -19.5q-33 0 -54.5 21.5t-14.5 60.5q-18 -25 -45 -42t-64 -17q-26 0 -46 10t-31.5 27.5t-13 41.5t8.5 53q15 39 38.5 62.5
t49 35.5t50 15t42.5 1t31.5 -10t22.5 -19q6 14 7 16.5l1 2.5l1 3t7 16l58 -11q-38 -69 -58 -123q-8 -23 -13 -45t-4 -39t9.5 -28t27.5 -11t37 12.5t33.5 33.5t26.5 47t17 51q12 56 2 100t-35.5 74.5t-62.5 47t-79 16.5q-43 0 -87.5 -17.5t-83.5 -49t-68 -76.5t-41 -101
t-2.5 -100.5t34.5 -76t61 -48.5t78 -18l-4 -19q-52 1 -98.5 18t-78.5 50t-45 81.5t0 112.5zM309 139q16 -1 34.5 14.5t34.5 39.5t28 52t15.5 52.5t-4.5 42t-31 18.5q-29 2 -53.5 -13.5t-42.5 -39.5t-27.5 -52t-8.5 -53t14 -42t41 -19z" />
    <glyph glyph-name="at" unicode="&#xe954;" horiz-adv-x="624" 
d="M86 263q12 57 44.5 105t78.5 83t101.5 54.5t113.5 19.5q59 0 106 -20t78 -54.5t43 -81.5t1 -100q-4 -17 -15.5 -45t-32.5 -54.5t-53.5 -46t-78.5 -19.5q-33 0 -54.5 21.5t-14.5 60.5q-18 -25 -45 -42t-64 -17q-26 0 -46 10t-31.5 27.5t-13 41.5t8.5 53q15 39 38.5 62.5
t49 35.5t50 15t42.5 1t31.5 -10t22.5 -19q6 14 7 16.5l1 2.5l1 3t7 16l58 -11q-38 -69 -58 -123q-8 -23 -13 -45t-4 -39t9.5 -28t27.5 -11t37 12.5t33.5 33.5t26.5 47t17 51q12 56 2 100t-35.5 74.5t-62.5 47t-79 16.5q-43 0 -87.5 -17.5t-83.5 -49t-68 -76.5t-41 -101
t-2.5 -100.5t34.5 -76t61 -48.5t78 -18l-4 -19q-52 1 -98.5 18t-78.5 50t-45 81.5t0 112.5zM309 139q16 -1 34.5 14.5t34.5 39.5t28 52t15.5 52.5t-4.5 42t-31 18.5q-29 2 -53.5 -13.5t-42.5 -39.5t-27.5 -52t-8.5 -53t14 -42t41 -19z" />
    <glyph glyph-name="dollar" unicode="$" horiz-adv-x="619" 
d="M50 92l72 110q-7 -35 3.5 -67.5t35 -57t61 -39.5t79.5 -16l62 294q-39 15 -79 33t-70.5 41.5t-46.5 55.5t-7 75t36.5 75.5t66.5 54t86 32.5t94 12q3 20 -3 41t-9 28h75q-9 -10 -17 -21q-7 -10 -13.5 -22t-10.5 -26q90 -2 141 -25.5t73 -58.5l-60 -84q4 19 -2 43t-24.5 46
t-51.5 37.5t-82 16.5q-6 -30 -21.5 -101t-35.5 -166q48 -15 93 -32.5t78 -41.5t49.5 -57t7.5 -79q-12 -64 -44.5 -102.5t-76.5 -59.5t-94.5 -28t-98.5 -8q-1 -13 1 -25t4 -21q4 -11 8 -20h-75q3 3 8 10.5l11 16.5t12 19t9 20q-62 0 -108.5 12t-77.5 28t-45.5 32t-12.5 25z
M523 174q6 27 -3 46.5t-28.5 35t-48 28t-61.5 25.5q-22 -104 -38 -181t-23 -106q33 1 65.5 9t60 25.5t47.5 46t29 71.5zM383 409l55 261q-31 -1 -62.5 -8.5t-58.5 -23t-46.5 -39t-26.5 -56.5q-6 -26 3 -46t28.5 -35.5t47 -28t60.5 -24.5z" />
    <glyph glyph-name="dollar" unicode="&#xe903;" horiz-adv-x="619" 
d="M50 92l72 110q-7 -35 3.5 -67.5t35 -57t61 -39.5t79.5 -16l62 294q-39 15 -79 33t-70.5 41.5t-46.5 55.5t-7 75t36.5 75.5t66.5 54t86 32.5t94 12q3 20 -3 41t-9 28h75q-9 -10 -17 -21q-7 -10 -13.5 -22t-10.5 -26q90 -2 141 -25.5t73 -58.5l-60 -84q4 19 -2 43t-24.5 46
t-51.5 37.5t-82 16.5q-6 -30 -21.5 -101t-35.5 -166q48 -15 93 -32.5t78 -41.5t49.5 -57t7.5 -79q-12 -64 -44.5 -102.5t-76.5 -59.5t-94.5 -28t-98.5 -8q-1 -13 1 -25t4 -21q4 -11 8 -20h-75q3 3 8 10.5l11 16.5t12 19t9 20q-62 0 -108.5 12t-77.5 28t-45.5 32t-12.5 25z
M523 174q6 27 -3 46.5t-28.5 35t-48 28t-61.5 25.5q-22 -104 -38 -181t-23 -106q33 1 65.5 9t60 25.5t47.5 46t29 71.5zM383 409l55 261q-31 -1 -62.5 -8.5t-58.5 -23t-46.5 -39t-26.5 -56.5q-6 -26 3 -46t28.5 -35.5t47 -28t60.5 -24.5z" />
    <glyph glyph-name="Euro" unicode="&#x20ac;" horiz-adv-x="738" 
d="M90 280l4 21h63q1 15 3.5 29.5t5.5 29.5q3 11 6.5 21t7.5 20h-65l5 21h68q28 64 73.5 112.5t98.5 81.5t109 50.5t105 20.5q5 0 11 0.5t11 -0.5q36 0 72.5 -6.5t68 -19t57 -32t38.5 -45.5l-83 -37q-14 48 -54 78.5t-112 30.5q-43 0 -87 -15.5t-83.5 -45.5t-72.5 -73.5
t-56 -99.5h74l-5 -21h-76q-3 -7 -5.5 -14t-4.5 -14q-1 -5 -3.5 -15t-4.5 -21t-3.5 -21t-0.5 -15h77l-4 -21h-76q-4 -60 10.5 -106t41.5 -77.5t65 -47.5t81 -16q57 0 111 21.5t88 55.5l47 -48q-49 -31 -113.5 -46t-136.5 -15q-55 0 -109 16.5t-96 51t-66.5 87t-20.5 124.5
h-64z" />
    <glyph glyph-name="Euro" unicode="&#xe905;" horiz-adv-x="738" 
d="M90 280l4 21h63q1 15 3.5 29.5t5.5 29.5q3 11 6.5 21t7.5 20h-65l5 21h68q28 64 73.5 112.5t98.5 81.5t109 50.5t105 20.5q5 0 11 0.5t11 -0.5q36 0 72.5 -6.5t68 -19t57 -32t38.5 -45.5l-83 -37q-14 48 -54 78.5t-112 30.5q-43 0 -87 -15.5t-83.5 -45.5t-72.5 -73.5
t-56 -99.5h74l-5 -21h-76q-3 -7 -5.5 -14t-4.5 -14q-1 -5 -3.5 -15t-4.5 -21t-3.5 -21t-0.5 -15h77l-4 -21h-76q-4 -60 10.5 -106t41.5 -77.5t65 -47.5t81 -16q57 0 111 21.5t88 55.5l47 -48q-49 -31 -113.5 -46t-136.5 -15q-55 0 -109 16.5t-96 51t-66.5 87t-20.5 124.5
h-64z" />
    <glyph glyph-name="percent" unicode="%" horiz-adv-x="936" 
d="M129 465q11 50 35.5 86.5t59 60t76.5 35t87 11.5t82 -11.5t61.5 -35.5t34 -60t-1.5 -86q-21 -99 -88.5 -148.5t-170.5 -49.5q-99 0 -147.5 49.5t-27.5 148.5zM519 224q11 50 35.5 86t59 60t76.5 35.5t87 11.5t82 -11.5t61.5 -35.5t34 -60t-1.5 -86q-21 -99 -88.5 -148.5
t-170.5 -49.5q-49 0 -86.5 12.5t-60.5 37t-30.5 62t2.5 86.5zM697 41q70 0 116.5 47.5t66.5 136.5q19 90 -8.5 134t-97.5 44t-115.5 -44t-64.5 -134q-19 -89 7.5 -136.5t95.5 -47.5zM307 282q70 0 116.5 47.5t65.5 137.5q20 90 -7.5 133.5t-97.5 43.5q-142 0 -180 -177
q-19 -90 7 -137.5t96 -47.5zM277 -2q3 7 6 13q3 5 7 8.5t8 3.5q7 0 22.5 6t34.5 35l356 569q9 14 10.5 22.5t-1 12.5t-7 5t-7.5 1q-4 0 -3 3.5t4 8.5q4 5 10 12h97q-3 -7 -6 -12t-6.5 -8.5t-8.5 -3.5q-7 0 -23 -7t-35 -36l-355 -567q-9 -15 -11 -23.5t0.5 -12t7.5 -4.5t8 -1
q5 0 3.5 -3.5t-4.5 -8.5q-4 -6 -10 -13h-97z" />
    <glyph glyph-name="percent" unicode="&#xe920;" horiz-adv-x="936" 
d="M129 465q11 50 35.5 86.5t59 60t76.5 35t87 11.5t82 -11.5t61.5 -35.5t34 -60t-1.5 -86q-21 -99 -88.5 -148.5t-170.5 -49.5q-99 0 -147.5 49.5t-27.5 148.5zM519 224q11 50 35.5 86t59 60t76.5 35.5t87 11.5t82 -11.5t61.5 -35.5t34 -60t-1.5 -86q-21 -99 -88.5 -148.5
t-170.5 -49.5q-49 0 -86.5 12.5t-60.5 37t-30.5 62t2.5 86.5zM697 41q70 0 116.5 47.5t66.5 136.5q19 90 -8.5 134t-97.5 44t-115.5 -44t-64.5 -134q-19 -89 7.5 -136.5t95.5 -47.5zM307 282q70 0 116.5 47.5t65.5 137.5q20 90 -7.5 133.5t-97.5 43.5q-142 0 -180 -177
q-19 -90 7 -137.5t96 -47.5zM277 -2q3 7 6 13q3 5 7 8.5t8 3.5q7 0 22.5 6t34.5 35l356 569q9 14 10.5 22.5t-1 12.5t-7 5t-7.5 1q-4 0 -3 3.5t4 8.5q4 5 10 12h97q-3 -7 -6 -12t-6.5 -8.5t-8.5 -3.5q-7 0 -23 -7t-35 -36l-355 -567q-9 -15 -11 -23.5t0.5 -12t7.5 -4.5t8 -1
q5 0 3.5 -3.5t-4.5 -8.5q-4 -6 -10 -13h-97z" />
    <glyph glyph-name="ampersand" unicode="&#x26;" horiz-adv-x="690" 
d="M71 195q11 50 38.5 82.5t60.5 53t65.5 31t52.5 14.5q-19 32 -31 76.5t-2 91.5q8 38 28 67t49 48.5t64.5 29.5t74.5 10q36 0 66 -9.5t50 -28.5t28 -48t0 -67q-8 -40 -31.5 -68.5t-55 -48.5t-68 -33.5t-71.5 -24.5q40 -77 77.5 -134t79.5 -108q23 34 28.5 74.5t-8.5 78.5
l99 58q17 -31 16 -64.5t-14.5 -66t-37 -62.5t-52.5 -55q24 -26 46.5 -48t49.5 -45h-34q-22 13 -44.5 27.5t-51.5 40.5q-48 -32 -98 -49t-107 -17q-69 0 -123.5 9.5t-90.5 32t-50.5 60t-2.5 92.5zM344 33q58 0 98.5 17t69.5 43q-44 42 -95.5 102t-108.5 151q-24 -9 -45.5 -20
t-39 -28t-31 -42t-21.5 -62q-7 -36 -2.5 -65.5t25 -50.5t57 -33t93.5 -12zM376 398q16 5 39.5 16t47 29t43 44t26.5 61q15 70 -4.5 100.5t-61.5 30.5q-52 0 -80.5 -36t-42.5 -97q-6 -24 -3 -46.5t9.5 -42t14.5 -34.5t12 -25z" />
    <glyph glyph-name="ampersand" unicode="&#xe902;" horiz-adv-x="690" 
d="M71 195q11 50 38.5 82.5t60.5 53t65.5 31t52.5 14.5q-19 32 -31 76.5t-2 91.5q8 38 28 67t49 48.5t64.5 29.5t74.5 10q36 0 66 -9.5t50 -28.5t28 -48t0 -67q-8 -40 -31.5 -68.5t-55 -48.5t-68 -33.5t-71.5 -24.5q40 -77 77.5 -134t79.5 -108q23 34 28.5 74.5t-8.5 78.5
l99 58q17 -31 16 -64.5t-14.5 -66t-37 -62.5t-52.5 -55q24 -26 46.5 -48t49.5 -45h-34q-22 13 -44.5 27.5t-51.5 40.5q-48 -32 -98 -49t-107 -17q-69 0 -123.5 9.5t-90.5 32t-50.5 60t-2.5 92.5zM344 33q58 0 98.5 17t69.5 43q-44 42 -95.5 102t-108.5 151q-24 -9 -45.5 -20
t-39 -28t-31 -42t-21.5 -62q-7 -36 -2.5 -65.5t25 -50.5t57 -33t93.5 -12zM376 398q16 5 39.5 16t47 29t43 44t26.5 61q15 70 -4.5 100.5t-61.5 30.5q-52 0 -80.5 -36t-42.5 -97q-6 -24 -3 -46.5t9.5 -42t14.5 -34.5t12 -25z" />
    <glyph glyph-name="parenleft" unicode="(" horiz-adv-x="405" 
d="M103 342q17 80 62.5 143t106.5 107t129 68.5t130 26.5l-6 -32q-55 -4 -107.5 -29.5t-96.5 -67.5t-75.5 -97t-45.5 -118q-13 -63 -4.5 -118t34.5 -96.5t67.5 -67t94.5 -29.5l-7 -33q-60 3 -117.5 28t-99.5 69t-61.5 106.5t-3.5 139.5z" />
    <glyph glyph-name="parenleft" unicode="&#xe92b;" horiz-adv-x="405" 
d="M103 342q17 80 62.5 143t106.5 107t129 68.5t130 26.5l-6 -32q-55 -4 -107.5 -29.5t-96.5 -67.5t-75.5 -97t-45.5 -118q-13 -63 -4.5 -118t34.5 -96.5t67.5 -67t94.5 -29.5l-7 -33q-60 3 -117.5 28t-99.5 69t-61.5 106.5t-3.5 139.5z" />
    <glyph glyph-name="parenright" unicode=")" horiz-adv-x="405" 
d="M27 32q55 4 107.5 29.5t96 67t75.5 96t45 117.5t4.5 118t-34.5 97t-67.5 68t-94.5 30l7 32q77 -3 136.5 -31.5t96.5 -75.5t50.5 -108.5t-1.5 -130.5t-56 -130t-99 -107t-128.5 -74t-144.5 -31z" />
    <glyph glyph-name="braceleft" unicode="{" horiz-adv-x="461" 
d="M153 315l-50 28l62 28q24 104 59.5 165t86.5 94t119.5 44t157.5 14l-7 -32q-44 -2 -80.5 -5t-67 -12.5t-56 -28.5t-47 -53t-40 -86t-34.5 -128q-22 -104 -19 -164.5t28.5 -92t72 -41.5t110.5 -13l-7 -32q-88 2 -152 13t-100.5 43.5t-46 94t10.5 164.5z" />
    <glyph glyph-name="braceleft" unicode="&#xe92d;" horiz-adv-x="461" 
d="M153 315l-50 28l62 28q24 104 59.5 165t86.5 94t119.5 44t157.5 14l-7 -32q-44 -2 -80.5 -5t-67 -12.5t-56 -28.5t-47 -53t-40 -86t-34.5 -128q-22 -104 -19 -164.5t28.5 -92t72 -41.5t110.5 -13l-7 -32q-88 2 -152 13t-100.5 43.5t-46 94t10.5 164.5z" />
    <glyph glyph-name="braceright" unicode="}" horiz-adv-x="461" 
d="M29 33q63 1 114 13t90.5 45t69 93t50.5 158q23 110 21 171.5t-27 92.5t-72 39.5t-113 10.5l7 32q53 -2 99.5 -6t83 -15.5t63.5 -32t41 -55t15 -85.5t-14 -122l49 -30l-62 -27q-25 -106 -61 -167.5t-87 -94t-119 -42t-155 -12.5z" />
    <glyph glyph-name="bar" unicode="|" horiz-adv-x="141" 
d="M32 26q8 0 20.5 6.5t19.5 34.5l121 569q3 14 1 22.5t-6 12.5t-9 5t-8 1q-4 0 -4.5 3.5t0.5 8.5t4 12h97q0 -7 -1 -12t-2.5 -8.5t-6.5 -3.5q-3 0 -8.5 -1t-11.5 -5.5t-11.5 -13t-8.5 -23.5l-121 -567q-3 -15 -1 -23.5t6 -12t9.5 -4.5t8.5 -1q5 0 5.5 -3.5t-1.5 -8.5
q-1 -6 -4 -13h-98v4t1 8.5t3 8.5t6 4z" />
    <glyph glyph-name="bar" unicode="&#xe91e;" horiz-adv-x="141" 
d="M32 26q8 0 20.5 6.5t19.5 34.5l121 569q3 14 1 22.5t-6 12.5t-9 5t-8 1q-4 0 -4.5 3.5t0.5 8.5t4 12h97q0 -7 -1 -12t-2.5 -8.5t-6.5 -3.5q-3 0 -8.5 -1t-11.5 -5.5t-11.5 -13t-8.5 -23.5l-121 -567q-3 -15 -1 -23.5t6 -12t9.5 -4.5t8.5 -1q5 0 5.5 -3.5t-1.5 -8.5
q-1 -6 -4 -13h-98v4t1 8.5t3 8.5t6 4z" />
    <glyph glyph-name="bracketleft" unicode="[" horiz-adv-x="405" 
d="M103 342q24 113 59 180.5t86 103.5t120.5 47.5t162.5 14.5l-6 -33q-43 -2 -79.5 -4.5t-67.5 -12t-56.5 -28.5t-47 -53t-40 -86t-34.5 -128q-22 -104 -19 -164.5t28.5 -92t72 -41.5t110.5 -13l-7 -33q-92 3 -156.5 14.5t-100.5 47t-42.5 102.5t17.5 179z" />
    <glyph glyph-name="bracketleft" unicode="&#xe92c;" horiz-adv-x="405" 
d="M103 342q24 113 59 180.5t86 103.5t120.5 47.5t162.5 14.5l-6 -33q-43 -2 -79.5 -4.5t-67.5 -12t-56.5 -28.5t-47 -53t-40 -86t-34.5 -128q-22 -104 -19 -164.5t28.5 -92t72 -41.5t110.5 -13l-7 -33q-92 3 -156.5 14.5t-100.5 47t-42.5 102.5t17.5 179z" />
    <glyph glyph-name="bracketright" unicode="]" horiz-adv-x="405" 
d="M29 32q68 2 119.5 15t90 46.5t66 93.5t47.5 155q16 73 20 124t-2.5 84.5t-23.5 53.5t-43.5 30.5t-62 14.5t-79.5 7l7 32q93 -3 157.5 -15t100 -48t42 -103.5t-17.5 -180.5t-59 -179.5t-86 -101.5t-120.5 -46.5t-162.5 -14.5z" />
    <glyph glyph-name="quoteleft" unicode="&#x2018;" horiz-adv-x="119" 
d="M275 781l-94 -113h-28l48 113h74z" />
    <glyph glyph-name="quoteright" unicode="&#x2019;" horiz-adv-x="119" 
d="M154 667l93 114l28 1l-47 -114z" />
    <glyph glyph-name="quotedblleft" unicode="&#x201c;" horiz-adv-x="221" 
d="M201 781h74l-94 -113h-28zM254 668l47 113h75l-95 -113h-27z" />
    <glyph glyph-name="quotedblright" unicode="&#x201d;" horiz-adv-x="221" 
d="M153 669l95 112h28l-49 -113zM253 668l96 112h27l-49 -113z" />
    <glyph glyph-name="quotesinglbase" unicode="&#x201a;" horiz-adv-x="125" 
 />
    <glyph glyph-name="quotedblbase" unicode="&#x201e;" horiz-adv-x="99" 
 />
    <glyph glyph-name="bullet" unicode="&#x2022;" horiz-adv-x="150" 
d="M75 279q5 25 26 42.5t46 17.5t38.5 -17.5t8.5 -42.5t-26.5 -42t-45.5 -17q-25 0 -38.5 17t-8.5 42z" />
    <glyph glyph-name="bullet" unicode="&#xe918;" horiz-adv-x="150" 
d="M75 279q5 25 26 42.5t46 17.5t38.5 -17.5t8.5 -42.5t-26.5 -42t-45.5 -17q-25 0 -38.5 17t-8.5 42z" />
    <glyph glyph-name="underscore" unicode="_" horiz-adv-x="486" 
d="M470 -14l-7 -37h-461l7 37h461z" />
    <glyph glyph-name="underscore" unicode="&#xe90b;" horiz-adv-x="486" 
d="M470 -14l-7 -37h-461l7 37h461z" />
    <glyph glyph-name="trademark" unicode="&#x2122;" horiz-adv-x="656" 
d="M172 676h298v-1q1 -3 4 -16t7.5 -32t10.5 -42.5t12 -47.5q13 -56 30 -125l177 264h67q0 -3 -1 -6q0 -6 -4 -6q-3 0 -9.5 -3t-9.5 -17l-56 -266q-3 -14 2 -16.5t8 -2.5q4 0 2 -6q0 -3 -2 -6h-81q0 3 1 6q0 6 4 6q3 0 9.5 3t9.5 17q16 75 29 135q5 25 10.5 49.5t9.5 44
t6.5 32.5t2.5 14l-9 -13.5t-23.5 -35.5t-33 -49t-37.5 -56q-46 -68 -103 -153q-21 85 -37 152q-7 29 -14 56.5t-12 49t-8.5 35l-3.5 13.5l-2 -5q-1 -7 -4 -22t-7.5 -35t-9.5 -43.5t-10 -47.5q-12 -56 -26 -122q-3 -14 2 -16.5t9 -2.5q3 0 1.5 -5.5t-2.5 -6.5h-46q0 3 1 6
q0 6 4 6q3 0 9.5 3t9.5 16l44 209q2 8 3.5 16.5t3.5 17.5q4 26 -9 34.5t-32 8.5h-32q-5 0 -10 -3t-8 -16l-57 -270q-3 -14 2 -17t8 -3q4 0 2 -4q0 -2 -1 -4h-81v4q2 4 4 4q3 0 9 3t9 17l58 270q2 13 -1.5 16t-8.5 3h-32h-9q-15 -2 -23.5 -12t-18.5 -24q-2 -4 -5 -7t-5 -7
q-4 -4 -10 -4h-6z" />
    <glyph glyph-name="trademark" unicode="&#xe90a;" horiz-adv-x="656" 
d="M172 676h298v-1q1 -3 4 -16t7.5 -32t10.5 -42.5t12 -47.5q13 -56 30 -125l177 264h67q0 -3 -1 -6q0 -6 -4 -6q-3 0 -9.5 -3t-9.5 -17l-56 -266q-3 -14 2 -16.5t8 -2.5q4 0 2 -6q0 -3 -2 -6h-81q0 3 1 6q0 6 4 6q3 0 9.5 3t9.5 17q16 75 29 135q5 25 10.5 49.5t9.5 44
t6.5 32.5t2.5 14l-9 -13.5t-23.5 -35.5t-33 -49t-37.5 -56q-46 -68 -103 -153q-21 85 -37 152q-7 29 -14 56.5t-12 49t-8.5 35l-3.5 13.5l-2 -5q-1 -7 -4 -22t-7.5 -35t-9.5 -43.5t-10 -47.5q-12 -56 -26 -122q-3 -14 2 -16.5t9 -2.5q3 0 1.5 -5.5t-2.5 -6.5h-46q0 3 1 6
q0 6 4 6q3 0 9.5 3t9.5 16l44 209q2 8 3.5 16.5t3.5 17.5q4 26 -9 34.5t-32 8.5h-32q-5 0 -10 -3t-8 -16l-57 -270q-3 -14 2 -17t8 -3q4 0 2 -4q0 -2 -1 -4h-81v4q2 4 4 4q3 0 9 3t9 17l58 270q2 13 -1.5 16t-8.5 3h-32h-9q-15 -2 -23.5 -12t-18.5 -24q-2 -4 -5 -7t-5 -7
q-4 -4 -10 -4h-6z" />
    <glyph glyph-name="registered" unicode="&#xae;" horiz-adv-x="567" 
d="M97 314q11 51 41 96t71.5 78t91.5 52.5t101 19.5t93 -19.5t70 -52.5t39 -78t0 -96t-41 -96t-72 -78.5t-92 -53t-101 -19.5t-93 19.5t-69.5 53t-38.5 78.5t0 96zM303 90q36 0 71.5 14t67.5 39h-52q-2 3 -2 6q-2 5 3 5q3 0 8 4t2 16l-28 102h-18t-35 1h-47l-22 -102
q-3 -14 2 -17.5t9 -3.5q5 0 2 -5l-2 -6h-74q0 3 1 6q0 5 4 5q3 0 9.5 3t9.5 17l59 274q2 14 -3 16.5t-8 2.5q-4 0 -2 6q0 2 1 5q37 0 66 1h70q27 0 51.5 -3.5t41.5 -14.5t24.5 -31t0.5 -52q-11 -48 -40 -69.5t-64 -27.5l29 -107q2 -10 7.5 -14t9.5 -6q35 32 58.5 72t34.5 88
q10 47 3 88t-27 71t-52.5 47.5t-73.5 17.5t-80.5 -17.5t-73 -47.5t-58 -71t-34.5 -88t-3 -88t27.5 -71t53 -47.5t73.5 -17.5zM361 288q17 0 34 3t32 12.5t27.5 27.5t18.5 47q6 30 1.5 47.5t-16.5 27t-29 12.5t-36 3h-63q-4 0 -11 -4.5t-10 -18.5l-34 -157h86z" />
    <glyph glyph-name="registered" unicode="&#xe92f;" horiz-adv-x="567" 
d="M97 314q11 51 41 96t71.5 78t91.5 52.5t101 19.5t93 -19.5t70 -52.5t39 -78t0 -96t-41 -96t-72 -78.5t-92 -53t-101 -19.5t-93 19.5t-69.5 53t-38.5 78.5t0 96zM303 90q36 0 71.5 14t67.5 39h-52q-2 3 -2 6q-2 5 3 5q3 0 8 4t2 16l-28 102h-18t-35 1h-47l-22 -102
q-3 -14 2 -17.5t9 -3.5q5 0 2 -5l-2 -6h-74q0 3 1 6q0 5 4 5q3 0 9.5 3t9.5 17l59 274q2 14 -3 16.5t-8 2.5q-4 0 -2 6q0 2 1 5q37 0 66 1h70q27 0 51.5 -3.5t41.5 -14.5t24.5 -31t0.5 -52q-11 -48 -40 -69.5t-64 -27.5l29 -107q2 -10 7.5 -14t9.5 -6q35 32 58.5 72t34.5 88
q10 47 3 88t-27 71t-52.5 47.5t-73.5 17.5t-80.5 -17.5t-73 -47.5t-58 -71t-34.5 -88t-3 -88t27.5 -71t53 -47.5t73.5 -17.5zM361 288q17 0 34 3t32 12.5t27.5 27.5t18.5 47q6 30 1.5 47.5t-16.5 27t-29 12.5t-36 3h-63q-4 0 -11 -4.5t-10 -18.5l-34 -157h86z" />
    <glyph glyph-name="copyright" unicode="&#xa9;" horiz-adv-x="567" 
d="M98 319q11 51 40.5 95.5t71.5 78t92 53t101 19.5t93 -19.5t70 -53t39 -78t0 -95.5t-41 -96t-72 -78t-92 -52.5t-101 -19.5t-93 19.5t-69.5 52.5t-38.5 78t0 96zM304 96q41 0 80.5 17.5t72.5 47.5t57.5 70.5t34.5 87.5t3 87.5t-27.5 70.5t-53 47t-73.5 17t-80.5 -17
t-72.5 -47t-57.5 -70.5t-34.5 -87.5t-3 -87.5t27.5 -70.5t53 -47.5t73.5 -17.5zM186 319q8 34 28.5 64t49 52.5t62.5 35.5t68 13q35 0 66.5 -12t44.5 -38l-41 -19q-4 26 -25 40t-48 14q-28 0 -54 -11.5t-47.5 -32t-37 -47.5t-22.5 -59q-7 -31 -3 -58.5t17 -47t34.5 -31
t48.5 -11.5q29 0 52 11.5t37 27.5l22 -25q-46 -30 -114 -30q-34 0 -62.5 13t-47.5 35t-27 52t-1 64z" />
    <glyph glyph-name="copyright" unicode="&#xe92e;" horiz-adv-x="567" 
d="M98 319q11 51 40.5 95.5t71.5 78t92 53t101 19.5t93 -19.5t70 -53t39 -78t0 -95.5t-41 -96t-72 -78t-92 -52.5t-101 -19.5t-93 19.5t-69.5 52.5t-38.5 78t0 96zM304 96q41 0 80.5 17.5t72.5 47.5t57.5 70.5t34.5 87.5t3 87.5t-27.5 70.5t-53 47t-73.5 17t-80.5 -17
t-72.5 -47t-57.5 -70.5t-34.5 -87.5t-3 -87.5t27.5 -70.5t53 -47.5t73.5 -17.5zM186 319q8 34 28.5 64t49 52.5t62.5 35.5t68 13q35 0 66.5 -12t44.5 -38l-41 -19q-4 26 -25 40t-48 14q-28 0 -54 -11.5t-47.5 -32t-37 -47.5t-22.5 -59q-7 -31 -3 -58.5t17 -47t34.5 -31
t48.5 -11.5q29 0 52 11.5t37 27.5l22 -25q-46 -30 -114 -30q-34 0 -62.5 13t-47.5 35t-27 52t-1 64z" />
    <glyph glyph-name="currency" unicode="&#xa4;" horiz-adv-x="601" 
d="M129 105q-28 36 -36 94t6 127q17 75 49.5 131.5t74.5 93.5l-51 22l86 70l22 -56q72 42 155 42q86 0 139 -43l47 57l56 -70l-65 -25q27 -36 36 -91.5t-7 -130.5q-17 -76 -48.5 -129.5t-74.5 -90.5l54 -24l-85 -69l-24 54q-36 -22 -75.5 -32t-81.5 -10q-40 0 -74.5 10
t-61.5 30l-46 -52l-56 69zM313 54q41 0 79 17.5t70 52t57 85.5t39 119q29 136 -8.5 205.5t-120.5 69.5q-41 0 -79.5 -17.5t-70.5 -52t-57 -86t-40 -119.5q-14 -68 -11 -119t21 -85.5t49 -52t72 -17.5z" />
    <glyph glyph-name="currency" unicode="&#xe930;" horiz-adv-x="601" 
d="M129 105q-28 36 -36 94t6 127q17 75 49.5 131.5t74.5 93.5l-51 22l86 70l22 -56q72 42 155 42q86 0 139 -43l47 57l56 -70l-65 -25q27 -36 36 -91.5t-7 -130.5q-17 -76 -48.5 -129.5t-74.5 -90.5l54 -24l-85 -69l-24 54q-36 -22 -75.5 -32t-81.5 -10q-40 0 -74.5 10
t-61.5 30l-46 -52l-56 69zM313 54q41 0 79 17.5t70 52t57 85.5t39 119q29 136 -8.5 205.5t-120.5 69.5q-41 0 -79.5 -17.5t-70.5 -52t-57 -86t-40 -119.5q-14 -68 -11 -119t21 -85.5t49 -52t72 -17.5z" />
    <glyph glyph-name="cent" unicode="&#xa2;" horiz-adv-x="678" 
d="M103 344q16 74 55.5 135.5t94.5 106.5t121 72.5t134 31.5q2 20 -3.5 41t-9.5 28h76q-9 -10 -17 -21q-7 -10 -14 -22t-11 -26q39 0 76.5 -6.5t70 -19t58 -32t39.5 -46.5l-83 -36q-12 56 -58 82t-110 26q-5 -25 -15 -72t-22.5 -105.5t-26.5 -123t-26.5 -125.5t-23.5 -112.5
t-18 -83.5q63 -2 114.5 20t85.5 56l47 -47q-24 -15 -54.5 -27t-64 -20t-68 -12t-67.5 -3q-3 -12 -1.5 -26t4 -26t5 -19.5l2.5 -7.5h-75q2 3 8.5 12t13.5 20.5t13.5 24t8.5 23.5q-70 4 -125.5 30.5t-90 70.5t-46.5 105t3 134zM369 37l132 620q-52 -3 -101 -29t-88.5 -68.5
t-68.5 -97.5t-42 -117q-12 -59 -6.5 -113t27 -96t59 -68t88.5 -31z" />
    <glyph glyph-name="cent" unicode="&#xe904;" horiz-adv-x="678" 
d="M103 344q16 74 55.5 135.5t94.5 106.5t121 72.5t134 31.5q2 20 -3.5 41t-9.5 28h76q-9 -10 -17 -21q-7 -10 -14 -22t-11 -26q39 0 76.5 -6.5t70 -19t58 -32t39.5 -46.5l-83 -36q-12 56 -58 82t-110 26q-5 -25 -15 -72t-22.5 -105.5t-26.5 -123t-26.5 -125.5t-23.5 -112.5
t-18 -83.5q63 -2 114.5 20t85.5 56l47 -47q-24 -15 -54.5 -27t-64 -20t-68 -12t-67.5 -3q-3 -12 -1.5 -26t4 -26t5 -19.5l2.5 -7.5h-75q2 3 8.5 12t13.5 20.5t13.5 24t8.5 23.5q-70 4 -125.5 30.5t-90 70.5t-46.5 105t3 134zM369 37l132 620q-52 -3 -101 -29t-88.5 -68.5
t-68.5 -97.5t-42 -117q-12 -59 -6.5 -113t27 -96t59 -68t88.5 -31z" />
    <glyph glyph-name="sterling" unicode="&#xa3;" horiz-adv-x="666" 
d="M11 0q2 5 5 9q7 9 13 9q8 0 24 6t38 35l78 104h-75l8 20h82l104 139q-16 16 -29 34t-20.5 40t-8.5 49t6 62q9 45 37.5 80.5t68.5 61t87 39t95 13.5t83.5 -7t63 -23t48.5 -40.5t38 -60.5l-106 -68q12 29 12.5 59.5t-14 56t-46.5 42t-84 16.5q-37 0 -70 -13t-59.5 -35
t-44.5 -50.5t-24 -59.5q-6 -29 -2 -53t14.5 -43.5t26.5 -34.5t33 -26q40 -26 96 -40l-64 -74q-11 3 -22 8q-22 8 -47 25l-71 -97h62l-8 -20h-69l-73 -96q-10 -14 -13.5 -22t-2 -12.5t5.5 -5.5t8 -1h251q15 0 30.5 3t31.5 12t32.5 26.5t31.5 46.5q4 6 10 8.5t12 3.5q7 1 14 0
l-56 -126h-541z" />
    <glyph glyph-name="sterling" unicode="&#xe90c;" horiz-adv-x="666" 
d="M11 0q2 5 5 9q7 9 13 9q8 0 24 6t38 35l78 104h-75l8 20h82l104 139q-16 16 -29 34t-20.5 40t-8.5 49t6 62q9 45 37.5 80.5t68.5 61t87 39t95 13.5t83.5 -7t63 -23t48.5 -40.5t38 -60.5l-106 -68q12 29 12.5 59.5t-14 56t-46.5 42t-84 16.5q-37 0 -70 -13t-59.5 -35
t-44.5 -50.5t-24 -59.5q-6 -29 -2 -53t14.5 -43.5t26.5 -34.5t33 -26q40 -26 96 -40l-64 -74q-11 3 -22 8q-22 8 -47 25l-71 -97h62l-8 -20h-69l-73 -96q-10 -14 -13.5 -22t-2 -12.5t5.5 -5.5t8 -1h251q15 0 30.5 3t31.5 12t32.5 26.5t31.5 46.5q4 6 10 8.5t12 3.5q7 1 14 0
l-56 -126h-541z" />
    <glyph glyph-name="section" unicode="&#xa7;" horiz-adv-x="578" 
d="M26 78l64 71q-5 -25 9 -46t42 -37t66.5 -25t81.5 -9q26 0 58.5 3t62.5 12t52 25.5t28 42.5q4 20 -12 33t-44.5 23t-66.5 18t-77 16.5t-76 19.5t-64.5 27.5t-41.5 39t-7 54.5q5 23 19.5 41t35.5 31.5t46 23.5t51 16q-25 9 -46 19.5t-35.5 24.5t-20.5 32t-1 40q7 32 32 56
t62.5 39.5t85.5 23t100 7.5q98 0 154 -16t81 -39l-54 -55q3 12 -5.5 27.5t-30.5 28.5t-58 22t-88 9q-31 0 -62.5 -4t-58 -13.5t-44.5 -24.5t-23 -38q-4 -21 12 -35.5t45 -25.5t67.5 -19.5t79 -17t79 -19t67.5 -25t45 -34.5t11 -49q-4 -25 -18.5 -45.5t-35 -36t-46 -26.5
t-52.5 -18q22 -7 42.5 -16t35 -21.5t22 -28t3.5 -36.5q-7 -43 -39 -71t-77 -44.5t-97.5 -22.5t-100.5 -6q-63 0 -111 10t-81 23t-49.5 26t-16.5 19zM417 266q44 8 79 25t42 52q5 21 -14 35t-51.5 24t-75 19.5t-86.5 21.5q-19 -3 -38.5 -9t-36 -15t-28.5 -21t-15 -29
q-5 -23 13.5 -38t50.5 -26t74.5 -20t85.5 -19z" />
    <glyph glyph-name="section" unicode="&#xe908;" horiz-adv-x="578" 
d="M26 78l64 71q-5 -25 9 -46t42 -37t66.5 -25t81.5 -9q26 0 58.5 3t62.5 12t52 25.5t28 42.5q4 20 -12 33t-44.5 23t-66.5 18t-77 16.5t-76 19.5t-64.5 27.5t-41.5 39t-7 54.5q5 23 19.5 41t35.5 31.5t46 23.5t51 16q-25 9 -46 19.5t-35.5 24.5t-20.5 32t-1 40q7 32 32 56
t62.5 39.5t85.5 23t100 7.5q98 0 154 -16t81 -39l-54 -55q3 12 -5.5 27.5t-30.5 28.5t-58 22t-88 9q-31 0 -62.5 -4t-58 -13.5t-44.5 -24.5t-23 -38q-4 -21 12 -35.5t45 -25.5t67.5 -19.5t79 -17t79 -19t67.5 -25t45 -34.5t11 -49q-4 -25 -18.5 -45.5t-35 -36t-46 -26.5
t-52.5 -18q22 -7 42.5 -16t35 -21.5t22 -28t3.5 -36.5q-7 -43 -39 -71t-77 -44.5t-97.5 -22.5t-100.5 -6q-63 0 -111 10t-81 23t-49.5 26t-16.5 19zM417 266q44 8 79 25t42 52q5 21 -14 35t-51.5 24t-75 19.5t-86.5 21.5q-19 -3 -38.5 -9t-36 -15t-28.5 -21t-15 -29
q-5 -23 13.5 -38t50.5 -26t74.5 -20t85.5 -19z" />
    <glyph glyph-name="divide" unicode="&#xf7;" horiz-adv-x="287" 
d="M91 368h262l-16 -74h-262zM189 427q4 19 20 32.5t35 13.5q20 0 30 -13.5t6 -32.5t-20 -32.5t-35 -13.5t-30 13.5t-6 32.5zM148 234q4 19 20 32.5t35 13.5t29.5 -13.5t6.5 -32.5t-20 -32.5t-35 -13.5q-20 0 -30.5 13.5t-5.5 32.5z" />
    <glyph glyph-name="uniE933" unicode="&#xe933;" horiz-adv-x="563" 
d="M72 176q11 51 38.5 85.5t66.5 55t85.5 29.5t94.5 9q43 0 72.5 -9t48.5 -20l5 24q11 50 5 77.5t-20.5 41t-34 16.5t-37.5 3q-39 0 -69 -18t-44 -54l-63 30q42 35 85.5 50.5t94.5 15.5q28 0 64 -6t65.5 -24t46 -50t5.5 -83l-87 -406q-11 -51 -4.5 -72t32.5 -21q15 0 25 4.5
t16 11t9.5 14t4.5 12.5q-1 -11 -6 -22.5t-15 -20.5t-25 -14.5t-37 -5.5q-62 0 -83 38.5t-6 109.5l5 23h-50q-32 0 -69 0.5t-72 5.5t-66 15.5t-52 30t-29.5 50t0.5 74.5zM365 25q17 0 34.5 7t23.5 35l50 234q-18 12 -43 20.5t-65 8.5q-27 0 -56.5 -4.5t-56 -20.5t-48 -47
t-32.5 -83q-12 -54 4 -84t46.5 -45t69.5 -18t73 -3z" />
    <glyph glyph-name="uniE934" unicode="&#xe934;" horiz-adv-x="554" 
d="M-76 -108q-1 -5 -0.5 -12t4 -14t11.5 -11.5t23 -4.5q26 0 41 22.5t25 70.5l144 674q5 29 -1.5 35t-21.5 6q-7 0 -3 13q1 5 4 12l137 18l-52 -242q16 17 49.5 34.5t91.5 17.5q48 0 89.5 -15t69 -46t37.5 -79t-4 -115q-28 -133 -127 -194.5t-254 -61.5h-19t-30 1l-5 -24
q-7 -31 -18 -58t-29 -47t-43.5 -31.5t-61.5 -11.5q-21 0 -33.5 5.5t-18.5 14.5t-7 20t2 23zM192 24q43 0 86.5 11.5t81.5 38.5t67 71.5t43 110.5q13 61 8.5 104.5t-21 71.5t-43.5 41t-60 13q-26 0 -45.5 -5t-34.5 -13.5t-26 -18.5t-19 -20l-78 -367q-5 -25 7 -31.5t34 -6.5z
" />
    <glyph glyph-name="uniE935" unicode="&#xe935;" horiz-adv-x="551" 
d="M85 257q13 67 43.5 115t71.5 79t89 45.5t97 14.5q29 0 49.5 -5t34.5 -12.5t22 -17t12 -17.5l50 242l130 -18q0 -7 -1 -13q-1 -5 -3 -9t-6 -4q-7 0 -13 -1t-11 -5t-9 -12.5t-7 -22.5q-26 -121 -51 -241q-11 -51 -23 -107l-24 -112t-23.5 -110.5t-21.5 -102.5
q-11 -48 -4.5 -70.5t32.5 -22.5q15 0 24.5 4.5t16 11.5t10 14t4.5 12q-2 -11 -7 -22t-15 -20t-25 -15t-37 -6q-62 0 -82.5 39t-5.5 109l5 24q-17 -1 -30 -1h-18q-158 0 -229.5 62t-44.5 195zM362 24q23 0 37.5 7t20.5 34l77 363q-4 9 -10.5 19.5t-17.5 19t-29 14t-46 5.5
q-33 0 -65 -13t-60 -40.5t-50.5 -71t-35.5 -104.5q-12 -57 -4 -100.5t32 -73t63 -44.5t88 -15z" />
    <glyph glyph-name="uniE936" unicode="&#xe936;" horiz-adv-x="336" 
d="M-32 -108q-1 -5 -1 -12t3.5 -14t11.5 -11.5t23 -4.5q28 0 42 22.5t25 70.5q20 96 41 193t37 175q20 91 38 176h-84l5 25h84l6 26q10 49 37.5 80.5t62 50t72 25.5t67.5 7q33 0 58 -5t43 -14.5t31.5 -23t23.5 -29.5l-69 -21q-2 30 -27 50t-62 20q-18 0 -38 -3.5t-39.5 -18
t-36.5 -42t-27 -75.5l-5 -27h153l-6 -25h-153l-109 -510q-6 -31 -17 -57.5t-29 -46.5t-43.5 -31.5t-61.5 -11.5q-22 0 -34.5 5.5t-18.5 14.5t-6 20t3 22z" />
    <glyph glyph-name="uniE937" unicode="&#xe937;" horiz-adv-x="549" 
d="M56 97q2 9 13.5 24t36.5 26q-17 28 -23 62t2 75q10 46 38 85t67 67.5t85.5 45t92.5 16.5q55 0 103 -25q6 10 17 25t26 29.5t33 24.5t37 10l19 -55q-4 1 -8 3q-10 2 -21 2q-17 0 -41 -9t-47 -38q46 -30 65 -78t6 -107q-9 -45 -36 -84t-65.5 -68t-85 -45.5t-94.5 -16.5
q-51 0 -92 18t-67 50q-9 -3 -17 -10t-11 -21q-4 -15 11 -27q13 -11 47 -19.5t105 -8.5q68 0 122 -10q23 -4 45 -11.5t39 -19t28 -26.5t11 -36q-10 2 -25.5 -1t-31 -9t-30 -14.5t-22.5 -17.5q4 15 0.5 29.5t-19 26t-47 19t-83.5 8.5q-53 1 -87.5 8t-55.5 17.5t-30.5 23
t-12 24.5t-0.5 22t3 16zM281 93q33 0 62 14t52 39.5t40 60t26 75.5t7 76t-14.5 60.5t-35.5 40t-56 14.5t-61.5 -14t-52 -39t-40.5 -59t-26 -75t-7 -76t14.5 -61t35.5 -41t56 -15z" />
    <glyph glyph-name="uniE938" unicode="&#xe938;" horiz-adv-x="562" 
d="M42 26q7 0 20 6.5t20 34.5l117 550q5 29 -1.5 35t-21.5 6q-7 0 -3 13q1 5 4 12l137 18l-52 -242q8 9 20 18t29 17t40 13t52 5q47 0 82.5 -9.5t57.5 -31.5t28.5 -58t-4.5 -88q-8 -39 -20 -95q-10 -48 -25 -119t-36 -168q-11 -50 -5 -71t32 -21q15 0 25 4.5t16.5 11
t10 13.5t4.5 12q-4 -23 -22.5 -42.5t-61.5 -19.5q-36 0 -56.5 11.5t-30 31.5t-9 46.5t7.5 57.5q19 90 34 162q6 30 12.5 59.5t11 53t8 38.5t3.5 16q11 52 10 86.5t-12.5 55.5t-32.5 29.5t-50 8.5q-27 0 -47 -5t-35 -13.5t-25 -18.5t-18 -19l-77 -363q-3 -15 -1.5 -23.5
t5.5 -12.5t9.5 -5t8.5 -1q5 0 5.5 -3.5t-1.5 -8.5q-1 -5 -4 -12h-169q0 7 1 13q1 5 3 8.5t6 3.5z" />
    <glyph glyph-name="uniE939" unicode="&#xe939;" horiz-adv-x="516" 
d="M42 26q7 0 20 6.5t20 34.5l117 549q5 29 -1.5 35t-21.5 6q-4 0 -4.5 4t1.5 9q1 6 4 13l137 18l-107 -499l237 252q14 15 18.5 23.5t3 12t-6 4.5t-7.5 1q-4 0 -3 3t4 6q4 4 10 9h98q-3 -5 -7 -9q-3 -3 -6.5 -6t-8.5 -3q-7 0 -24.5 -6t-45.5 -35l-152 -163l160 -328
q12 -26 22.5 -41.5t20 -24t19 -11t21.5 -2.5q29 0 42.5 13t11.5 26q2 -8 -2 -19.5t-15.5 -22.5t-29.5 -19t-44 -8q-49 0 -81.5 25t-61.5 86l-126 260l-54 -58l-21 -100q-3 -15 -1.5 -23.5t5.5 -12.5t9.5 -5t8.5 -1q5 0 5.5 -3.5t-1.5 -8.5q-1 -5 -4 -12h-169q0 7 1 13
q1 5 3 8.5t6 3.5z" />
    <glyph glyph-name="uniE93A" unicode="&#xe93a;" horiz-adv-x="810" 
d="M37 25q7 0 20 6.5t20 34.5l76 361q6 29 -1 35t-21 6q-6 0 -4 13q1 5 4 12l138 18q-1 -5 -3 -12q-2 -6 -4 -16l-5 -25q12 17 43 34.5t80 17.5q22 0 45.5 -3.5t45 -13t37.5 -25.5t23 -40q7 14 18.5 28.5t28 26.5t39.5 19.5t53 7.5q28 0 59 -6.5t55 -23t36 -45.5t2 -74
q-8 -37 -20 -96q-11 -51 -28 -130t-41 -193q-11 -48 -5 -70.5t32 -22.5q15 0 24.5 4.5t16 11.5t10 14t4.5 12q-5 -23 -23 -42.5t-60 -19.5q-36 0 -56.5 11.5t-30 31t-9 46.5t6.5 57q21 101 38 180q7 34 14 67t12.5 59t9 42.5t3.5 17.5q15 70 -3.5 107t-69.5 37
q-26 0 -45 -7.5t-32.5 -18.5t-21.5 -25t-13 -27q2 -10 0.5 -21.5t-3.5 -24.5l-63 -295q-3 -15 -1 -23.5t6 -12.5t9 -5t8 -1q5 0 5.5 -3.5t-1.5 -8.5q-1 -6 -4 -13h-169q0 7 1 13q2 13 9 13q8 0 20.5 6.5t19.5 34.5q16 75 29 135q5 26 10.5 50.5t9.5 44t6.5 32t2.5 13.5
q15 70 -3.5 107t-70.5 37q-25 0 -44 -7t-32.5 -18t-21.5 -23.5t-11 -24.5l-74 -346q-3 -15 -1 -23.5t6 -12.5t9 -5t9 -1q5 0 5 -3.5t-1 -8.5q-2 -6 -5 -13h-168q0 7 1 13q2 13 9 13z" />
    <glyph glyph-name="uniE93B" unicode="&#xe93b;" horiz-adv-x="520" 
d="M37 26q7 0 20 6.5t20 34.5l77 360q5 29 -1.5 35t-21.5 6q-4 0 -4.5 4t1.5 9q1 6 4 13l137 18q-1 -5 -3 -13q-2 -7 -4 -17l-5 -25q14 20 44.5 37t78.5 17q28 0 59 -6.5t55 -23t36 -45.5t2 -74q-11 -50 -24 -114q-12 -55 -28.5 -131.5t-36.5 -173.5q-10 -48 -4.5 -70.5
t31.5 -22.5q15 0 25 4.5t16.5 11.5t9.5 14t4 12q-2 -11 -7 -22.5t-15 -20.5t-25 -14.5t-36 -5.5q-62 0 -82.5 39t-6.5 109q22 101 39 182q7 34 14 67t12.5 58.5t9 41.5t3.5 17q14 69 -4.5 106t-69.5 37q-25 0 -44.5 -7t-33 -17.5t-21.5 -23.5t-11 -25l-73 -346
q-3 -15 -1.5 -23.5t5.5 -12.5t9.5 -5t8.5 -1q5 0 5.5 -3.5t-1.5 -8.5q-1 -5 -4 -12h-169q0 7 1 13q1 5 3 8.5t6 3.5z" />
    <glyph glyph-name="uniE93C" unicode="&#xe93c;" horiz-adv-x="575" 
d="M-61 -140q-1 -5 -0.5 -12.5t4 -14t11.5 -11t23 -4.5q29 0 42.5 24.5t24.5 72.5q20 97 40 189t36 166q18 86 35 164q5 29 -1.5 35t-21.5 6q-4 0 -4.5 3t0.5 6q1 4 3 9l137 18q-2 -6 -3 -14q-2 -7 -4 -16.5t-5 -23.5q8 8 20 17.5t29 17.5t40 13.5t52 5.5q48 0 89.5 -15
t69 -46t37.5 -79t-4 -115q-28 -133 -127 -194.5t-254 -61.5h-49q-5 -21 -7 -30.5t-4 -20.5q-7 -31 -17.5 -58.5t-28 -48.5t-43 -33t-63.5 -12q-21 0 -34 6t-19 15t-6.5 20t2.5 22zM164 25h49q45 0 88.5 11t80.5 38t65.5 71.5t42.5 110.5q13 61 9 104.5t-19.5 71.5t-41.5 41
t-56 13q-28 0 -49 -5.5t-37 -13.5t-27 -18.5t-19 -19.5z" />
    <glyph glyph-name="uniE93D" unicode="&#xe93d;" horiz-adv-x="577" 
d="M94 254q14 67 44.5 115t71.5 79t88.5 46t96.5 15q29 0 49.5 -5.5t34.5 -13.5t22 -17.5t12 -17.5q3 14 4.5 23.5t3.5 16.5q2 8 3 14l129 -18q0 -7 -1 -12q-2 -5 -3.5 -9t-6.5 -4q-14 0 -23.5 -6t-15.5 -35q-16 -76 -34 -160q-16 -72 -35.5 -163.5t-39.5 -188.5
q-10 -48 -6 -72t33 -24q15 0 25 4.5t16 11t9.5 13.5t4.5 12q-2 -10 -6.5 -21t-14 -20t-24.5 -15t-39 -6q-62 0 -82.5 38t-4.5 113q2 11 4 20.5t7 30.5h-49q-156 0 -228.5 61.5t-44.5 194.5zM372 23h49l86 405q-4 9 -11.5 19.5t-19.5 18.5t-30.5 13.5t-46.5 5.5
q-30 0 -61.5 -13t-59 -41t-50 -72t-35.5 -105q-12 -58 -4.5 -101.5t32 -72.5t63.5 -43t88 -14z" />
    <glyph glyph-name="uniE93E" unicode="&#xe93e;" horiz-adv-x="498" 
d="M-56 -108q-1 -5 -0.5 -12t4 -13.5t11 -11t22.5 -4.5q29 0 43 22t24 70l104 485q5 29 -1.5 35t-21.5 6q-7 0 -3 13q1 5 4 12l138 18l-2 -9q-2 -10 -6 -26q36 20 74.5 27.5t68.5 7.5q58 0 101 -16.5t59 -50.5l-70 -44q-1 15 -6.5 30.5t-17.5 28t-31 21t-45 8.5
q-14 0 -37 -2.5t-47 -16t-45.5 -41t-32.5 -78.5q-14 -66 -24.5 -117t-19 -89.5t-14.5 -66t-10 -46.5q-9 -44 -12 -55q-6 -31 -17 -57.5t-28.5 -46.5t-43 -31.5t-61.5 -11.5q-21 0 -34 5.5t-19 14t-6.5 19.5t2.5 23z" />
    <glyph glyph-name="uniE93F" unicode="&#xe93f;" horiz-adv-x="330" 
d="M94 -23l108 510h-73l5 25l20 -1q45 0 79.5 17.5t52.5 58.5h34l-16 -75h110l-6 -25h-110q-18 -85 -37 -176q-16 -78 -37 -175t-41 -193q-11 -48 -5.5 -70.5t33.5 -22.5q15 0 24.5 4.5t16 11.5t10 14t4.5 12q-2 -12 -7.5 -23t-15 -19.5t-24.5 -14t-37 -5.5
q-62 0 -82.5 37.5t-5.5 109.5z" />
    <glyph glyph-name="uniE940" unicode="&#xe940;" horiz-adv-x="514" 
d="M94 148l60 279q3 15 1 23.5t-6 12.5t-9 5t-9 1t-4.5 3.5t0.5 8.5t4 11l137 18q-20 -94 -36 -168q-6 -31 -12.5 -61.5t-11.5 -55t-8.5 -39.5t-3.5 -17q-15 -70 2.5 -107.5t68.5 -37.5q27 0 47 7t33.5 17.5t21 23t10.5 24.5l70 331q3 15 1.5 23.5t-5.5 12.5t-9.5 5t-8.5 1
q-4 0 -4.5 3.5t0.5 8.5t4 11l136 18l-5 -24.5t-14 -66t-20.5 -97.5t-25 -119.5t-27.5 -130t-28 -130.5q-11 -51 -5 -72.5t32 -21.5q15 0 25 5t16.5 11.5t10 14t4.5 12.5q-2 -12 -7.5 -23.5t-15 -20.5t-24.5 -14.5t-37 -5.5q-62 0 -82.5 38.5t-5.5 108.5l16 80
q-17 -23 -46.5 -39.5t-77.5 -16.5q-28 0 -58.5 6.5t-54.5 23t-36.5 45.5t-2.5 75z" />
    <glyph glyph-name="uniE941" unicode="&#xe941;" horiz-adv-x="542" 
d="M87 24q3 0 9 0.5t14.5 4.5t19.5 12.5t25 23.5l138 150l-99 228q-14 30 -28.5 36.5t-21.5 6.5q-4 0 -7 3.5t-5 8.5t-4 12h170q5 -7 7 -12t3 -8.5t-4 -3.5q-3 0 -8 -1t-8 -5t-3 -12.5t6 -22.5l68 -157l141 154q14 15 18 23.5t3 13t-5.5 5.5t-7.5 1q-4 0 -2 3.5t6 8.5
q5 5 13 12h96q-5 -7 -9 -12q-5 -5 -9 -8.5t-9 -3.5q-3 0 -9.5 -1t-15 -5t-19.5 -12.5t-24 -22.5l-159 -174l142 -333q19 -42 38 -64.5t45 -22.5q25 0 42.5 9t24.5 37q1 -32 -27 -50t-67 -18q-61 0 -100 38.5t-65 100.5l-99 230l-121 -132q-13 -14 -17 -22.5t-2.5 -12.5
t5.5 -5t8 -1t2 -3.5t-7 -8.5q-5 -6 -13 -13h-96q5 7 9 13q5 5 9.5 8.5t8.5 3.5z" />
    <glyph glyph-name="uniE942" unicode="&#xe942;" horiz-adv-x="556" 
d="M17 26q7 0 20 6.5t20 34.5l108 509q11 48 5 69t-32 21q-15 0 -24.5 -4.5t-16 -11t-9.5 -13.5t-5 -12q4 30 27.5 46t55.5 16q62 0 83 -38t6 -107l-17 -84q15 17 48 35t92 18q49 0 90.5 -15t69 -46t37.5 -79t-4 -115q-14 -66 -46.5 -114.5t-81 -80t-112.5 -46.5t-142 -15
h-182q0 7 1 13q2 13 9 13zM194 24q44 0 87.5 11.5t81 38.5t66 71.5t42.5 110.5q13 61 9.5 104.5t-19.5 71.5t-43 41t-61 13q-27 0 -47 -5.5t-35 -14t-25.5 -18.5t-18.5 -20l-77 -361q-6 -28 5.5 -35.5t34.5 -7.5z" />
    <glyph glyph-name="uniE943" unicode="&#xe943;" horiz-adv-x="581" 
d="M95 257q14 66 44.5 114t71 79t88.5 46t96 15q29 0 49.5 -5t34.5 -12.5t22.5 -17t12.5 -17.5l17 83q15 69 52 107t99 38q32 0 49 -16t8 -46q1 5 0.5 12t-4 13.5t-11 11t-22.5 4.5q-26 0 -41 -21t-26 -69l-108 -510q-3 -14 -1 -22.5t6 -12.5t9 -5t8 -1q4 0 4.5 -4
t-0.5 -8.5t-2.5 -8.5l-1.5 -4h-182q-78 0 -135.5 15t-92.5 46.5t-46.5 80t2.5 115.5zM372 24q23 0 37.5 7.5t20.5 34.5l77 363q-4 9 -11 19t-18.5 18.5t-29.5 14t-45 5.5q-33 0 -65 -13t-60 -41t-50 -71.5t-35 -104.5q-12 -56 -4 -99t32 -72.5t63 -45t88 -15.5z" />
    <glyph glyph-name="uniE944" unicode="&#xe944;" horiz-adv-x="518" 
d="M42 26q7 0 20 6.5t20 34.5l117 549q5 29 -1.5 35t-21.5 6q-7 0 -3 13q1 5 4 12l137 18l-107 -499l316 339q35 36 63.5 48.5t49.5 12.5q20 0 34 -7q7 -3 12 -7l-45 -62q-2 10 -12 17.5t-27 7.5q-16 0 -36 -10t-43 -34q-68 -74 -108 -116.5t-61 -64.5t-27 -28t-7 -6
l111 -224q7 -15 14.5 -23.5t14.5 -12t13 -4.5t9 -1q5 0 8 -4t5 -9q3 -6 5 -13h-174q-3 7 -5 13q-4 13 2 13q4 0 9 1t8 5t2.5 12.5t-7.5 22.5l-77 157l-54 -58l-22 -99q-3 -15 -1 -24t6 -13t9.5 -5t8.5 -1q5 0 5 -3.5t-1 -8.5q-2 -5 -5 -12h-168q0 7 1 13q2 13 9 13z" />
    <glyph glyph-name="uniE945" unicode="&#xe945;" horiz-adv-x="516" 
d="M37 25q3 0 8.5 0.5t11.5 4.5t11.5 12.5t8.5 23.5l77 360q6 29 -0.5 35t-21.5 6q-4 0 -4.5 4t0.5 9q1 6 4 13l138 18l-2 -9q-1 -8 -6 -25q9 12 31 34t53 43.5t70 37.5t83 16q49 0 78 -15t47 -47l-74 -22q-2 30 -24 43.5t-53 13.5q-22 0 -57.5 -12.5t-71 -40t-65.5 -70.5
t-43 -104q-13 -62 -23 -107.5t-16.5 -77.5t-11 -52t-7.5 -31q-5 -27 -4 -20q-3 -14 -1.5 -22.5t5.5 -12.5t9 -5t9 -1q5 0 5.5 -3.5t-1.5 -8.5q-1 -6 -4 -13h-169q0 7 1 13q1 5 3 8.5t6 3.5z" />
    <glyph glyph-name="uniE946" unicode="&#xe946;" horiz-adv-x="517" 
d="M95 151l82 388q11 48 7 71.5t-33 23.5q-15 0 -25 -4.5t-16 -11.5t-9 -14t-5 -12q3 23 22 43t60 20q37 0 57.5 -12t29.5 -32.5t8 -47.5t-7 -58q-19 -92 -35 -164q-6 -31 -12.5 -61t-11 -54t-8 -39t-3.5 -17q-15 -69 3 -106.5t68 -37.5q27 0 47 7t33.5 18t21.5 23.5
t10 24.5l70 330q3 15 1.5 23.5t-5.5 13t-9.5 5.5t-8.5 1q-4 0 -4.5 3.5t0.5 8.5t4 12l137 16l-95 -446q-5 -29 1.5 -35t20.5 -6q5 0 5.5 -3.5t-1.5 -8.5q-1 -6 -4 -13l-78 1q-23 0 -35.5 14.5t-6.5 41.5q-17 -23 -46.5 -39.5t-78.5 -16.5q-28 0 -58.5 6.5t-54.5 23t-36 45.5
t-2 75z" />
    <glyph glyph-name="uniE947" unicode="&#xe947;" horiz-adv-x="528" 
d="M122 655q31 0 53.5 -10.5t38 -29t24.5 -44t13 -56.5q17 -127 30 -227q6 -43 11 -84t9.5 -73t7 -52t2.5 -21l217 389q8 15 9 23t-1.5 12t-7.5 5t-8 1q-4 0 -3 4t3 9q4 5 9 12h97q-2 -7 -5 -12q-7 -13 -14 -13t-22 -6t-32 -35q-69 -125 -124 -223q-23 -42 -45 -81.5
t-39.5 -71t-28.5 -51l-11 -19.5h-44q-24 0 -33.5 17t-14.5 48q-17 130 -30 233q-6 44 -11.5 87t-10 77.5t-7.5 56.5t-3 25q-5 44 -18.5 66t-39.5 22q-13 0 -24 -5t-19.5 -12.5t-14 -15t-5.5 -13.5q-1 10 4.5 21.5t17.5 22t29.5 17.5t40.5 7z" />
    <glyph glyph-name="uniE948" unicode="&#xe948;" horiz-adv-x="848" 
d="M127 655q31 0 53.5 -10.5t38 -29t24.5 -44t13 -56.5q17 -127 30 -227q6 -43 11 -84t9.5 -73t7 -52t2.5 -21l181 324l-8 64q-2 15 -6.5 23.5t-10 12t-11 4.5t-8.5 1q-7 0 -9 13v12h170l1 -4t2 -8.5t0 -8.5t-5 -4q-3 0 -8 -1t-9.5 -5t-7 -12.5t-1.5 -22.5q14 -108 25 -192
q5 -36 9.5 -71t8.5 -62.5t6 -44.5t2 -18l217 389q8 15 9 23t-1.5 12t-7.5 5t-8 1q-4 0 -3 3.5t3 8.5q4 5 9 12h97q-2 -7 -5 -12t-6 -8.5t-8 -3.5q-7 0 -22 -6t-32 -35q-69 -125 -124 -223q-23 -42 -45 -82t-39.5 -71.5t-28.5 -51l-11 -19.5h-44q-25 0 -34 17.5t-14 48.5
l-37 280q-17 -31 -38 -69l-42 -76t-41.5 -74.5t-36 -64.5t-25 -45l-9.5 -17h-43q-25 0 -34.5 17.5t-14.5 48.5q-17 127 -30 230q-6 44 -11 86.5t-9.5 77l-7.5 57.5t-4 28q-5 44 -18.5 66t-39.5 22q-13 0 -24 -5t-19.5 -12.5t-14 -15t-5.5 -13.5q-1 10 4.5 21.5t17.5 22
t29.5 17.5t40.5 7z" />
    <glyph glyph-name="uniE949" unicode="&#xe949;" horiz-adv-x="536" 
d="M96 654q31 0 55.5 -10t44.5 -28.5t35.5 -44.5t28.5 -57l96 -224l141 154q14 15 18 23.5t3 13t-5.5 5.5t-7.5 1q-4 0 -2 3.5t7 8.5t13 12h97q-5 -7 -10 -12q-4 -5 -8.5 -8.5t-9.5 -3.5q-8 0 -25 -6.5t-44 -35.5l-159 -174l88 -204q13 -28 27.5 -34.5t21.5 -6.5
q5 0 7.5 -3.5t4.5 -8.5q2 -6 4 -13h-169q-5 7 -7 13q-2 5 -2.5 8.5t3.5 3.5q3 0 8 1t8 4.5t3 12t-6 23.5l-57 131l-121 -132q-13 -15 -16.5 -23t-2.5 -12t5.5 -5t7.5 -1q5 0 2.5 -3.5t-7.5 -8.5q-5 -6 -13 -13h-96q5 7 9 13q5 5 9.5 8.5t8.5 3.5q7 0 24 5.5t44 35.5l138 151
q-13 30 -31.5 73t-38 89t-38 90t-31.5 75q-17 42 -37.5 65t-46.5 23t-43.5 -13.5t-16.5 -32.5q-1 11 3.5 23t15.5 22t28.5 16.5t41.5 6.5z" />
    <glyph glyph-name="uniE94A" unicode="&#xe94a;" horiz-adv-x="494" 
d="M124 655q31 0 53.5 -10.5t38 -29t24.5 -44t13 -56.5l52 -401l189 332q8 15 9 23.5t-1.5 12t-7.5 4.5t-8 1q-4 0 -3 4t3 9q4 5 9 12h98q-2 -7 -5 -12q-7 -13 -14 -13q-3 0 -9 -1t-13.5 -5t-15.5 -12.5t-17 -22.5l-298 -530q-7 -11 -15 -23t-19.5 -22.5t-28 -17t-39.5 -6.5
q-32 0 -52 15t-19 43l72 29q-1 -11 2 -21q2 -8 9 -14t21 -6q13 0 26 8.5t27 34.5l29 52q-22 146 -40 264q-8 50 -15.5 99t-13.5 89.5t-10.5 67.5t-5.5 34q-6 43 -18.5 67t-36.5 24q-13 0 -24 -5t-19.5 -12.5t-13.5 -15t-5 -13.5q-1 10 4.5 21.5t17.5 22t29.5 17.5t40.5 7z
" />
    <glyph glyph-name="endash" unicode="&#x2013;" horiz-adv-x="251" 
d="M73 248l14 63h202l-13 -63h-203z" />
    <glyph glyph-name="emdash" unicode="&#x2014;" horiz-adv-x="443" 
d="M75 292l13 63h418l-14 -63h-417z" />
    <glyph glyph-name="logicalnot" unicode="&#xac;" horiz-adv-x="422" 
d="M151 655h399l-32 -153h-64l17 84h-335z" />
    <glyph glyph-name="macron" unicode="&#xaf;" horiz-adv-x="443" 
d="M141 605l13 63h418l-13 -63h-418z" />
    <glyph glyph-name="yen" unicode="&#xa5;" horiz-adv-x="668" 
d="M326 692q5 -6 8 -11q2 -4 2.5 -7.5t-4.5 -3.5q-2 0 -6.5 -1.5t-7.5 -6t-3 -13t6 -22.5l126 -266l239 264q12 15 15.5 23.5t3 13.5t-4 6.5t-6.5 1.5q-4 0 -2.5 3.5t4.5 7.5q4 5 11 11h97q-5 -6 -9 -11q-4 -4 -8 -7.5t-7 -3.5q-8 0 -26 -7.5t-44 -35.5l-252 -283l-29 -137
h70l-4 -21h-70l-10 -45h70l-5 -21h-69l-12 -56q-5 -26 5.5 -33.5t18.5 -7.5q5 0 5 -3t-1 -8q-2 -5 -5 -11h-167q-1 6 0 11q2 11 9 11q8 0 21 6t20 34l12 57h-72l4 21h72l10 45h-72l4 21h72l29 133l-139 285q-14 29 -27 37t-21 8q-5 0 -8 3.5t-5 7.5q-3 5 -5 11h167z" />
    <glyph glyph-name="florin" unicode="&#x192;" horiz-adv-x="599" 
d="M39 125q0 -9 5.5 -20t16 -20.5t24.5 -15.5t31 -6t35 7.5t37.5 25.5t38.5 48.5t37 75.5q25 60 39 96t22 56q9 23 12 32h-82l12 32h84l47 118q20 48 46.5 76.5t54.5 43.5t55.5 19.5t49.5 4.5q32 0 54.5 -8t36.5 -20.5t19.5 -28.5t1.5 -31q-6 -35 -29 -52t-44 -17
q-12 0 -21.5 5.5t-12.5 16.5q17 15 25.5 32t7 31.5t-12.5 24.5t-32 10q-22 0 -39 -8.5t-30 -22t-22 -30.5t-16 -34l-51 -130h72l-11 -32h-75l-75 -184q-30 -74 -59.5 -117t-57.5 -65.5t-52.5 -29t-45.5 -6.5q-17 0 -35.5 5t-33.5 19t-23 38t-4 61z" />
    <glyph glyph-name="minus" unicode="&#x2212;" horiz-adv-x="234" 
d="M76 296l12 59h209l-12 -59h-209z" />
    <glyph glyph-name="plusminus" unicode="&#xb1;" horiz-adv-x="235" 
d="M76 296l12 59h75l16 75h59l-16 -75h75l-12 -59h-75l-16 -75h-59l16 75h-75zM43 144l13 59h209l-13 -59h-209z" />
    <glyph glyph-name="multiply" unicode="&#xd7;" horiz-adv-x="277" 
d="M200 318l87 74l46 -58l-90 -71l59 -75l-70 -54l-56 71l-86 -71l-47 54l87 75l-56 71l71 58z" />
    <glyph glyph-name="brokenbar" unicode="&#xa6;" horiz-adv-x="103" 
d="M91 333h63l-52 -244h-63zM154 629h63l-52 -245h-63z" />
    <glyph glyph-name="ellipsis" unicode="&#x2026;" horiz-adv-x="268" 
d="M103 0q3 13 14 22t24 9t20 -9t4 -22q-2 -13 -13 -22t-25 -9q-13 0 -20 9t-4 22zM191 0q3 13 13.5 22t24.5 9q13 0 20 -9t4 -22t-13.5 -22t-24.5 -9q-13 0 -20 9t-4 22zM14 0q2 13 13 22t25 9q13 0 20 -9t4 -22t-14 -22t-24 -9t-20 9t-4 22z" />
    <glyph glyph-name="periodcentered" unicode="&#xb7;" horiz-adv-x="104" 
d="M87 314q3 13 14 22t24 9t20 -9t4 -22q-2 -13 -13 -22t-24 -9t-20 9t-5 22z" />
    <glyph glyph-name="exclamdown" unicode="&#xa1;" horiz-adv-x="227" 
d="M38 21q4 0 9.5 1t11.5 5.5t11 13t8 23.5l130 491q7 -4 22 -4q7 0 14 1t12 3l-81 -493q-3 -14 -1 -22.5t6 -12.5t9 -5t8 -1q5 0 5.5 -3.5t-0.5 -8.5q-2 -6 -5 -13h-169q0 7 1 13q1 5 3 8.5t6 3.5zM186 634q6 26 27.5 44t47.5 18t40 -18t9 -44t-27 -44t-48 -18t-40 18
t-9 44z" />
    <glyph glyph-name="questiondown" unicode="&#xbf;" horiz-adv-x="577" 
d="M72 207q12 54 39.5 90.5t62.5 63t73 46t71.5 40t58.5 45.5t33 62q8 -5 25 -5q16 0 28 4q-8 -36 -30.5 -66.5t-52 -57.5t-62.5 -52t-62.5 -51t-52 -55t-30.5 -64q-12 -52 -6 -87.5t24.5 -57t46 -31t58.5 -10.5q50 -1 86 14.5t60 39.5t38.5 53t20.5 57l67 -68
q-42 -58 -110.5 -90.5t-163.5 -30.5q-42 1 -87.5 10t-80.5 32.5t-52 64.5t-2 104zM392 635q6 26 28 43.5t48 17.5q26 -1 39.5 -19t7.5 -44t-28 -44t-48 -17t-39.5 19t-7.5 44z" />
    <glyph glyph-name="caron" unicode="&#x2c7;" horiz-adv-x="257" 
d="M169 777h60l43 -94l88 94h53l-145 -113z" />
    <glyph glyph-name="grave" unicode="`" horiz-adv-x="119" 
d="M246 781l7 -113h-24l-53 113h70z" />
    <glyph glyph-name="guilsinglleft" unicode="&#x2039;" horiz-adv-x="293" 
d="M353 373l-130 -44l112 -40l-16 -73l-238 114l287 116z" />
    <glyph glyph-name="guilsinglright" unicode="&#x203a;" horiz-adv-x="293" 
d="M108 446l236 -116l-285 -114l15 73l129 41l-111 43z" />
    <glyph glyph-name="guillemotleft" unicode="&#xab;" horiz-adv-x="505" 
d="M564 373l-130 -44l112 -40l-15 -73l-238 114l286 116zM353 373l-130 -44l112 -40l-16 -73l-238 114l287 116z" />
    <glyph glyph-name="guillemotright" unicode="&#xbb;" horiz-adv-x="505" 
d="M352 330l-286 -114l16 73l129 40l-112 44l16 73zM564 330l-287 -114l16 73l129 40l-112 44l16 73z" />
    <glyph glyph-name="ring" unicode="&#x2da;" horiz-adv-x="117" 
d="M161 722q5 22 23.5 37t39.5 15q22 0 34 -15t7 -37q-5 -21 -23 -36t-40 -15q-21 0 -33.5 15t-7.5 36zM207 693q12 0 22.5 8.5t13.5 20.5q2 13 -4.5 21.5t-19.5 8.5q-12 0 -22.5 -8.5t-12.5 -21.5q-3 -12 4 -20.5t19 -8.5z" />
    <glyph glyph-name="ogonek" unicode="&#x2db;" horiz-adv-x="144" 
d="M8 -65q5 20 21.5 34t36.5 16l6 28h21l-11 -50h-19q-11 0 -21 -8.5t-12 -19.5t4.5 -19.5t17.5 -8.5t20.5 7t12.5 18h22q-5 -20 -22 -33t-37 -13q-21 0 -32.5 14.5t-7.5 34.5z" />
    <glyph glyph-name="hungarumlaut" unicode="&#x2dd;" horiz-adv-x="220" 
d="M248 668l48 113h74l-94 -113h-28zM195 781h75l-95 -113h-27z" />
    <glyph glyph-name="circumflex" unicode="&#x2c6;" horiz-adv-x="257" 
d="M294 780l95 -113h-51l-49 90l-88 -90h-49z" />
    <glyph glyph-name="cedilla" unicode="&#xb8;" horiz-adv-x="129" 
d="M-2 -77h22q-2 -11 4.5 -18t17.5 -7q12 0 22 8.5t12 19.5q3 11 -3 19.5t-17 8.5h-20l12 59h21l-8 -37q20 -2 31 -16t6 -34t-22.5 -34.5t-37.5 -14.5t-31 13t-9 33z" />
    <glyph glyph-name="acute" unicode="&#xb4;" horiz-adv-x="119" 
d="M205 781h71l-102 -113h-23z" />
    <glyph glyph-name="dotlessi" unicode="&#x131;" horiz-adv-x="202" 
d="M27 26q7 0 20 6.5t20 34.5l77 361q5 29 -1.5 35t-21.5 6q-7 0 -3 13q1 5 4 12l136 18l-95 -445q-3 -15 -1 -23.5t6 -12.5t9 -5t9 -1q5 0 5 -3.5t-1 -8.5q-2 -5 -5 -12h-168q0 7 1 13q1 5 3 8.5t6 3.5z" />
    <glyph glyph-name="paragraph" unicode="&#xb6;" horiz-adv-x="258" 
d="M136 529q6 21 19.5 39t31.5 31.5t38.5 21.5t41.5 8h103l-115 -371h-35l107 350h-31l-107 -350h-36l52 170q-41 0 -61.5 29.5t-7.5 71.5z" />
    <glyph glyph-name="uni03BC" unicode="&#x3bc;" horiz-adv-x="304" 
d="M44 107l167 542h43l-63 -203q-17 -57 -10 -79t36 -22q30 0 54 21t43 82l62 201h44l-113 -364h-43l15 53q-1 -1 -8.5 -3t-17.5 -3.5t-22 -3t-23 -1.5q-32 0 -49 10l-72 -230h-43z" />
    <glyph glyph-name="asciitilde" unicode="~" horiz-adv-x="325" 
d="M326 629q13 -7 25 -9.5t23 -2.5q14 0 24.5 3t18.5 6q9 4 16 9l6 -41q-24 -13 -45.5 -18t-38.5 -5q-15 0 -27 2.5t-20 5.5q-10 4 -18 8q-12 7 -25 10t-25 3q-17 0 -32.5 -3.5t-27.5 -8.5q-14 -6 -26 -13l-11 39q32 20 59 27t49 7q32 0 51.5 -8.5t23.5 -10.5z" />
    <glyph glyph-name="dagger" unicode="&#x2020;" horiz-adv-x="216" 
d="M64 96q1 8 3 15q1 6 2.5 10.5t3.5 4.5q4 0 13 4t13 22l67 313h-47l3 16h47l2 7q2 11 0.5 16.5t-4.5 8t-6 3t-5 0.5t-2 5t2 10q1 7 4 15h127q-1 -8 -2 -15q-2 -5 -3.5 -10t-3.5 -5q-3 0 -12.5 -3.5t-14.5 -25.5l-1 -6h49l-4 -16h-48l-67 -313q-4 -19 3.5 -22.5t11.5 -3.5
q3 0 3 -4.5t-2 -10.5q-1 -7 -4 -15h-128z" />
    <glyph glyph-name="dieresis" unicode="&#xa8;" horiz-adv-x="189" 
d="M265 736q2 13 13 22t24 9q14 0 21 -9t4 -22t-14 -22t-24 -9t-20 9t-4 22zM180 736q3 13 14 22t24 9t20 -9t4 -22q-2 -13 -13 -22t-24 -9q-14 0 -21 9t-4 22z" />
    <glyph glyph-name="daggerdbl" unicode="&#x2021;" horiz-adv-x="206" 
d="M55 164h47l64 300h-47l2 13h48l2 9q4 18 -3 22.5t-12 4.5q-2 0 -2 4.5t1 10.5q2 6 4 14h117q0 -8 -1 -14t-2.5 -10.5t-4.5 -4.5q-5 0 -13 -4.5t-12 -23.5l-2 -8h47l-3 -13h-47l-63 -300h46l-3 -16h-47q-3 -18 3 -21.5t11 -3.5q3 0 3 -4.5t-2 -9.5q-2 -6 -5 -14h-117
q1 8 2 14q2 5 3.5 9.5t3.5 4.5q5 0 13.5 4.5t12.5 20.5h-48z" />
    <glyph glyph-name="AE" unicode="&#xc6;" horiz-adv-x="850" 
d="M29 23q8 0 22.5 6t31.5 35l334 599q2 5 -4 7.5t-10 2.5q-6 0 -7.5 3.5t-1.5 8.5t3 12l565 -2l-62 -134q-13 -1 -23 1q-8 2 -13.5 7t-2.5 16q6 21 3 37t-12 27.5t-22.5 17.5t-29.5 6h-227q-8 -1 -20 -8t-18 -35l-58 -270h90q15 0 31.5 2.5t30.5 8.5t24.5 16t14.5 25
q4 11 10 14.5t11 4.5q6 0 13 -2l-35 -164q-8 -2 -14 -1q-5 1 -9 4.5t-3 13.5q3 17 -4.5 27.5t-20.5 16t-29.5 7.5t-31.5 2h-83l-58 -271q-3 -14 -1.5 -22t5 -12.5t8 -5.5t8.5 -1h224q38 0 66.5 22.5t35.5 64.5q2 12 10.5 17t16.5 7q11 1 23 0l4 -136l-546 -1q0 7 1 13
q1 5 3 8.5t6 3.5q7 0 20 6.5t20 34.5l41 195h-142l-110 -197q-7 -13 -8 -21t1.5 -11.5t7 -4.5t7.5 -1q5 0 4 -4t-3 -9q-2 -6 -7 -13h-100q3 7 6 13q7 13 14 13zM365 288l59 277q5 24 7 39t2 24t-0.5 12.5l-0.5 3.5l-199 -356h132z" />
    <glyph glyph-name="ae" unicode="&#xe6;" horiz-adv-x="981" 
d="M72 176q11 51 38.5 85.5t66.5 55t85.5 29.5t94.5 9q43 0 72.5 -8.5t48.5 -19.5l1 6q1 4 2 8.5t2 9.5q10 46 6 73t-17.5 41.5t-34 19t-41.5 4.5q-39 0 -68.5 -18t-44.5 -55l-62 31q35 32 81.5 48.5t97.5 16.5q29 0 59 -4.5t55 -16t43.5 -30t24.5 -46.5q44 45 101 71.5
t120 26.5q65 0 106.5 -25t63 -63t26.5 -83t-4 -85h-400q-10 -48 -7.5 -89.5t17 -72.5t40.5 -49t64 -18q44 0 80 21t64 52l46 -33q-35 -28 -86 -49t-109 -21q-62 0 -107.5 23.5t-71.5 63.5l-4 -18q-3 -15 -1.5 -23.5t5.5 -12t9.5 -4.5t8.5 -1q5 0 5.5 -3.5t-1.5 -8.5
q-1 -6 -4 -13h-183q-49 0 -105 2.5t-101.5 18.5t-70.5 52t-11 102zM365 26q17 0 34.5 7t23.5 35l50 234q-14 10 -40.5 19t-66.5 9q-34 0 -65 -7t-56.5 -24t-44 -47t-28.5 -76q-12 -55 4.5 -85.5t47.5 -45t69.5 -17t71.5 -2.5zM902 284q8 44 5.5 81t-15 64t-36 42t-59.5 15
t-66.5 -15t-55.5 -42t-44 -64t-30 -81h301z" />
    <glyph glyph-name="ae" unicode="&#xe929;" horiz-adv-x="981" 
d="M72 176q11 51 38.5 85.5t66.5 55t85.5 29.5t94.5 9q43 0 72.5 -8.5t48.5 -19.5l1 6q1 4 2 8.5t2 9.5q10 46 6 73t-17.5 41.5t-34 19t-41.5 4.5q-39 0 -68.5 -18t-44.5 -55l-62 31q35 32 81.5 48.5t97.5 16.5q29 0 59 -4.5t55 -16t43.5 -30t24.5 -46.5q44 45 101 71.5
t120 26.5q65 0 106.5 -25t63 -63t26.5 -83t-4 -85h-400q-10 -48 -7.5 -89.5t17 -72.5t40.5 -49t64 -18q44 0 80 21t64 52l46 -33q-35 -28 -86 -49t-109 -21q-62 0 -107.5 23.5t-71.5 63.5l-4 -18q-3 -15 -1.5 -23.5t5.5 -12t9.5 -4.5t8.5 -1q5 0 5.5 -3.5t-1.5 -8.5
q-1 -6 -4 -13h-183q-49 0 -105 2.5t-101.5 18.5t-70.5 52t-11 102zM365 26q17 0 34.5 7t23.5 35l50 234q-14 10 -40.5 19t-66.5 9q-34 0 -65 -7t-56.5 -24t-44 -47t-28.5 -76q-12 -55 4.5 -85.5t47.5 -45t69.5 -17t71.5 -2.5zM902 284q8 44 5.5 81t-15 64t-36 42t-59.5 15
t-66.5 -15t-55.5 -42t-44 -64t-30 -81h301z" />
    <glyph glyph-name="germandbls" unicode="&#xdf;" horiz-adv-x="668" 
d="M42 22q8 0 20.5 6.5t19.5 34.5l98 461q11 55 35 89t53 52.5t60 25t55 6.5h88q41 0 80.5 -5.5t68.5 -21.5t43 -45t4 -76q-7 -32 -21.5 -55.5t-35 -39.5t-46 -26t-52.5 -16q39 -4 72 -16t55.5 -36t31 -61t-3.5 -93q-14 -66 -46 -107t-74 -63.5t-91 -30.5t-97 -8h-109l5 25
h89q29 0 62.5 6t65 25t57.5 55.5t39 97.5q11 52 4.5 88t-27.5 58t-54 32t-75 10h-25t-45.5 -0.5t-52 -0.5h-44.5l-70 -330q-3 -13 -0.5 -21t8 -12t11.5 -5.5t9 -1.5q5 0 2 -11t-5 -15h-172q0 7 1 13q2 5 3.5 8.5t5.5 3.5zM255 419h131q29 0 58.5 5t56 18.5t46.5 39t29 67.5
q9 43 -0.5 68t-29 37.5t-45.5 15.5t-49 3h-73q-38 0 -59.5 -26t-31.5 -71z" />
    <glyph glyph-name="eth" unicode="&#xf0;" horiz-adv-x="604" 
d="M83 200q9 41 37.5 77.5t69.5 63.5t92 42.5t105 15.5q22 0 49 -4t45 -9q-13 32 -30.5 59.5t-37.5 50.5l-76 -62l-11 36l67 48q-13 14 -25 26t-25 23l26 21q8 -5 17 -11q8 -6 19.5 -14t24.5 -19l61 44l13 -18l-53 -44q28 -25 60 -59t57 -76t37 -90.5t1 -102.5
q-7 -34 -32 -70t-64.5 -64.5t-92 -47t-115.5 -18.5q-57 0 -102 16t-74 43.5t-40.5 64.5t-2.5 78zM306 21q38 0 71.5 14t60 39t44.5 58t26 70q10 46 2.5 79t-26 54.5t-45.5 32t-57 10.5q-38 0 -71 -13.5t-59 -37t-44 -55.5t-26 -70q-8 -37 -4 -70t19.5 -58t43 -39t65.5 -14z
" />
    <glyph glyph-name="Oslash" unicode="&#xd8;" horiz-adv-x="802" 
d="M124 347q15 71 56 133t98.5 108.5t127 73t141.5 26.5t130 -26.5t96.5 -73t53 -108.5t-0.5 -133t-54.5 -134t-96.5 -110.5t-127.5 -75.5t-147.5 -28q-76 0 -134 28t-94.5 75.5t-49.5 110.5t2 134zM408 32q55 0 107 25t95.5 67.5t75 100t45.5 122.5t7 121.5t-32 98
t-67 65.5t-98 24q-55 0 -106.5 -24t-94.5 -65.5t-74 -98t-45 -121.5t-7 -122.5t32 -100t66 -67.5t96 -25zM228 24q7 0 22.5 6t34.5 35l356 568q9 14 10.5 22.5t-1 12.5t-7 5t-7.5 1q-6 0 1 13q4 5 10 12h97q-3 -7 -6 -12q-7 -13 -15 -13q-7 0 -23 -6.5t-34 -35.5l-356 -567
q-9 -15 -11 -23.5t0.5 -12t7.5 -4.5t8 -1q5 0 3.5 -3.5t-4.5 -8.5q-4 -6 -10 -13h-97q3 7 6 13q3 5 7 8.5t8 3.5z" />
    <glyph glyph-name="Thorn" unicode="&#xde;" horiz-adv-x="661" 
d="M37 24q7 0 20 6.5t20 34.5l120 568q3 14 1 22.5t-6 12.5t-9 5t-8 1q-6 0 -4 13q1 5 4 12h170q0 -7 -1 -12q-2 -5 -3.5 -9t-6.5 -4q-7 0 -20 -6.5t-20 -36.5l-16 -76q45 43 99 63.5t112 20.5q53 0 98 -17.5t74 -54t39 -91.5t-6 -130t-49.5 -130.5t-78 -91.5t-97 -53.5
t-105.5 -17.5q-58 0 -103.5 20.5t-71.5 63.5l-15 -72q-3 -15 -1.5 -23.5t5.5 -12t9.5 -4.5t8.5 -1q5 0 5.5 -3.5t-1.5 -8.5q-1 -6 -4 -13h-170q0 7 1 13q2 5 4 8.5t6 3.5zM368 79q83 0 139.5 66t85.5 203t1 203t-111 66t-140.5 -66t-86.5 -203t0 -203t112 -66z" />
    <glyph glyph-name="thorn" unicode="&#xfe;" horiz-adv-x="536" 
d="M37 24q7 0 20 6.5t20 34.5l80 378q3 14 1 22.5t-6 12.5t-9 5t-8 1q-6 0 -4 13q1 5 4 12h169q0 -7 -1 -12q-2 -13 -9 -13q-8 0 -21 -6.5t-20 -36.5l-12 -56q32 25 71.5 37t81.5 12q40 0 73 -11t54.5 -33.5t29.5 -56.5t-2 -80t-32.5 -80t-53.5 -56t-68.5 -33t-77.5 -11
q-42 0 -76 11.5t-56 36.5l-12 -56q-3 -15 -1 -23.5t6 -12t9.5 -4.5t8.5 -1q5 0 5.5 -3.5t-1.5 -8.5q-1 -6 -4 -13h-169v4t0.5 8.5t3 8.5t6.5 4zM321 89q62 0 95.5 40.5t50.5 124.5q18 85 2.5 125.5t-78.5 40.5q-125 0 -161 -166q-34 -165 91 -165z" />
    <glyph glyph-name="Agrave" unicode="&#xc0;" horiz-adv-x="651" 
d="M29 25q7 0 22 6t32 35l338 606q-2 5 -8 5q-5 0 -7 3.5t-2 8.5t1 11h83q17 0 23 -16.5t10 -43.5l75 -574q2 -15 6.5 -23.5t10 -12t11 -4.5t8.5 -1q5 0 6.5 -3.5t2.5 -8.5v-13h-164q-2 7 -3 13q-1 5 0 8.5t5 3.5q3 0 8 1t9.5 5t7.5 12.5t1 22.5l-26 196h-259l-109 -196
q-9 -15 -10 -23.5t2 -12t8 -4.5t8 -1q5 0 3.5 -3.5t-3.5 -8.5q-4 -6 -9 -13h-100q2 7 5 13q3 5 6.5 8.5t7.5 3.5zM476 291q-13 96 -22 173q-4 32 -8.5 63.5t-7.5 56t-5 40t-2 16.5l-195 -349h240zM558 981l7 -113h-24l-53 113h70z" />
    <glyph glyph-name="Aacute" unicode="&#xc1;" horiz-adv-x="651" 
d="M29 25q7 0 22 6t32 35l338 606q-2 5 -8 5q-5 0 -7 3.5t-2 8.5t1 11h83q17 0 23 -16.5t10 -43.5l75 -574q2 -15 6.5 -23.5t10 -12t11 -4.5t8.5 -1q5 0 6.5 -3.5t2.5 -8.5v-13h-164q-2 7 -3 13q-1 5 0 8.5t5 3.5q3 0 8 1t9.5 5t7.5 12.5t1 22.5l-26 196h-259l-109 -196
q-9 -15 -10 -23.5t2 -12t8 -4.5t8 -1q5 0 3.5 -3.5t-3.5 -8.5q-4 -6 -9 -13h-100q2 7 5 13q3 5 6.5 8.5t7.5 3.5zM476 291q-13 96 -22 173q-4 32 -8.5 63.5t-7.5 56t-5 40t-2 16.5l-195 -349h240zM518 981h71l-102 -113h-23z" />
    <glyph glyph-name="Acircumflex" unicode="&#xc2;" horiz-adv-x="651" 
d="M29 25q7 0 22 6t32 35l338 606q-2 5 -8 5q-5 0 -7 3.5t-2 8.5t1 11h83q17 0 23 -16.5t10 -43.5l75 -574q2 -15 6.5 -23.5t10 -12t11 -4.5t8.5 -1q5 0 6.5 -3.5t2.5 -8.5v-13h-164q-2 7 -3 13q-1 5 0 8.5t5 3.5q3 0 8 1t9.5 5t7.5 12.5t1 22.5l-26 196h-259l-109 -196
q-9 -15 -10 -23.5t2 -12t8 -4.5t8 -1q5 0 3.5 -3.5t-3.5 -8.5q-4 -6 -9 -13h-100q2 7 5 13q3 5 6.5 8.5t7.5 3.5zM476 291q-13 96 -22 173q-4 32 -8.5 63.5t-7.5 56t-5 40t-2 16.5l-195 -349h240zM537 980l95 -113h-51l-49 90l-88 -90h-49z" />
    <glyph glyph-name="Adieresis" unicode="&#xc4;" horiz-adv-x="651" 
d="M29 25q7 0 22 6t32 35l338 606q-2 5 -8 5q-5 0 -7 3.5t-2 8.5t1 11h83q17 0 23 -16.5t10 -43.5l75 -574q2 -15 6.5 -23.5t10 -12t11 -4.5t8.5 -1q5 0 6.5 -3.5t2.5 -8.5v-13h-164q-2 7 -3 13q-1 5 0 8.5t5 3.5q3 0 8 1t9.5 5t7.5 12.5t1 22.5l-26 196h-259l-109 -196
q-9 -15 -10 -23.5t2 -12t8 -4.5t8 -1q5 0 3.5 -3.5t-3.5 -8.5q-4 -6 -9 -13h-100q2 7 5 13q3 5 6.5 8.5t7.5 3.5zM476 291q-13 96 -22 173q-4 32 -8.5 63.5t-7.5 56t-5 40t-2 16.5l-195 -349h240zM540 936q2 13 13 22t24 9q14 0 21 -9t4 -22t-14 -22t-24 -9t-20 9t-4 22z
M455 936q3 13 14 22t24 9t20 -9t4 -22q-2 -13 -13 -22t-24 -9q-14 0 -21 9t-4 22z" />
    <glyph glyph-name="Aring" unicode="&#xc5;" horiz-adv-x="651" 
d="M29 25q7 0 22 6t32 35l338 606q-2 5 -8 5q-5 0 -7 3.5t-2 8.5t1 11h83q17 0 23 -16.5t10 -43.5l75 -574q2 -15 6.5 -23.5t10 -12t11 -4.5t8.5 -1q5 0 6.5 -3.5t2.5 -8.5v-13h-164q-2 7 -3 13q-1 5 0 8.5t5 3.5q3 0 8 1t9.5 5t7.5 12.5t1 22.5l-26 196h-259l-109 -196
q-9 -15 -10 -23.5t2 -12t8 -4.5t8 -1q5 0 3.5 -3.5t-3.5 -8.5q-4 -6 -9 -13h-100q2 7 5 13q3 5 6.5 8.5t7.5 3.5zM476 291q-13 96 -22 173q-4 32 -8.5 63.5t-7.5 56t-5 40t-2 16.5l-195 -349h240zM473 922q5 22 23.5 37t39.5 15q22 0 34 -15t7 -37q-5 -21 -23 -36t-40 -15
q-21 0 -33.5 15t-7.5 36zM519 893q12 0 22.5 8.5t13.5 20.5q2 13 -4.5 21.5t-19.5 8.5q-12 0 -22.5 -8.5t-12.5 -21.5q-3 -12 4 -20.5t19 -8.5z" />
    <glyph glyph-name="Ccedilla" unicode="&#xc7;" horiz-adv-x="718" 
d="M122 338q18 85 65 149.5t108 108.5t128.5 66.5t127.5 22.5q36 0 73 -6t70 -19t59 -32t39 -46l-83 -37q-14 48 -54 78.5t-112 30.5q-51 0 -102 -21.5t-95 -62t-77 -99t-49 -132.5q-15 -72 -6 -129.5t36.5 -97t69 -60.5t90.5 -21q57 0 111 21.5t88 55.5l47 -48
q-49 -31 -113.5 -46.5t-136.5 -15.5q-62 0 -120.5 22.5t-100.5 66t-61 107t-2 144.5zM293 -77h22q-2 -11 4.5 -18t17.5 -7q12 0 22 8.5t12 19.5q3 11 -3 19.5t-17 8.5h-20l12 59h21l-8 -37q20 -2 31 -16t6 -34t-22.5 -34.5t-37.5 -14.5t-31 13t-9 33z" />
    <glyph glyph-name="Eth" unicode="&#xd0;" horiz-adv-x="662" 
d="M32 25q7 0 20 6.5t20 34.5l121 569q3 14 1 22.5t-6.5 12.5t-9.5 5t-8 1q-4 0 -4.5 3.5t0.5 8.5t4 12h270q95 0 150.5 -29.5t81.5 -78.5t27 -112t-13 -129q-14 -67 -44 -130t-79 -112t-117.5 -79t-158.5 -30h-265q0 7 1 13q1 5 3 8.5t6 3.5zM194 25h101q59 0 107 27.5
t85 73.5t62 104.5t38 119.5t11.5 119.5t-19 104t-52.5 73.5t-90 28h-49t-67 -1q-9 0 -18 -9t-14 -32l-121 -567q-3 -15 -0.5 -23t7.5 -12t10.5 -5t8.5 -1zM44 345l9 44h209l-9 -44h-209z" />
    <glyph glyph-name="Dcroat" unicode="&#x110;" horiz-adv-x="662" 
d="M32 25q7 0 20 6.5t20 34.5l121 569q3 14 1 22.5t-6.5 12.5t-9.5 5t-8 1q-4 0 -4.5 3.5t0.5 8.5t4 12h270q95 0 150.5 -29.5t81.5 -78.5t27 -112t-13 -129q-14 -67 -44 -130t-79 -112t-117.5 -79t-158.5 -30h-265q0 7 1 13q1 5 3 8.5t6 3.5zM194 25h101q59 0 107 27.5
t85 73.5t62 104.5t38 119.5t11.5 119.5t-19 104t-52.5 73.5t-90 28h-49t-67 -1q-9 0 -18 -9t-14 -32l-121 -567q-3 -15 -0.5 -23t7.5 -12t10.5 -5t8.5 -1zM44 345l9 44h209l-9 -44h-209z" />
    <glyph glyph-name="Egrave" unicode="&#xc8;" horiz-adv-x="614" 
d="M42 25q7 0 20 6.5t20 34.5l121 568q3 14 1 22.5t-6.5 12.5t-9.5 5t-8 1q-6 0 -4 13q1 5 4 12h547l-63 -138q-13 -1 -23 2q-8 2 -13.5 7.5t-3.5 16.5q6 21 3.5 37t-11 27t-21 17t-27.5 6h-231q-8 -1 -20 -8t-18 -34l-57 -271h87q15 0 31.5 2.5t31.5 8.5t26.5 16t14.5 26
q2 10 7.5 13.5t11.5 4.5q7 1 15 -1l-35 -164q-8 -2 -15 -1q-5 1 -9 4.5t-3 13.5q3 14 -3 24t-17.5 16t-27.5 9t-33 3h-88l-57 -271q-3 -14 -2 -22t4.5 -12.5t8.5 -5.5t9 -1h228q15 0 30.5 6t29.5 17t24 27.5t13 37.5q2 11 10 16t17 7q10 2 23 1l5 -137h-547q0 7 1 13
q1 5 3 8.5t6 3.5zM532 981l7 -113h-24l-53 113h70z" />
    <glyph glyph-name="Eacute" unicode="&#xc9;" horiz-adv-x="614" 
d="M42 25q7 0 20 6.5t20 34.5l121 568q3 14 1 22.5t-6.5 12.5t-9.5 5t-8 1q-6 0 -4 13q1 5 4 12h547l-63 -138q-13 -1 -23 2q-8 2 -13.5 7.5t-3.5 16.5q6 21 3.5 37t-11 27t-21 17t-27.5 6h-231q-8 -1 -20 -8t-18 -34l-57 -271h87q15 0 31.5 2.5t31.5 8.5t26.5 16t14.5 26
q2 10 7.5 13.5t11.5 4.5q7 1 15 -1l-35 -164q-8 -2 -15 -1q-5 1 -9 4.5t-3 13.5q3 14 -3 24t-17.5 16t-27.5 9t-33 3h-88l-57 -271q-3 -14 -2 -22t4.5 -12.5t8.5 -5.5t9 -1h228q15 0 30.5 6t29.5 17t24 27.5t13 37.5q2 11 10 16t17 7q10 2 23 1l5 -137h-547q0 7 1 13
q1 5 3 8.5t6 3.5zM492 981h71l-102 -113h-23z" />
    <glyph glyph-name="Ecircumflex" unicode="&#xca;" horiz-adv-x="614" 
d="M42 25q7 0 20 6.5t20 34.5l121 568q3 14 1 22.5t-6.5 12.5t-9.5 5t-8 1q-6 0 -4 13q1 5 4 12h547l-63 -138q-13 -1 -23 2q-8 2 -13.5 7.5t-3.5 16.5q6 21 3.5 37t-11 27t-21 17t-27.5 6h-231q-8 -1 -20 -8t-18 -34l-57 -271h87q15 0 31.5 2.5t31.5 8.5t26.5 16t14.5 26
q2 10 7.5 13.5t11.5 4.5q7 1 15 -1l-35 -164q-8 -2 -15 -1q-5 1 -9 4.5t-3 13.5q3 14 -3 24t-17.5 16t-27.5 9t-33 3h-88l-57 -271q-3 -14 -2 -22t4.5 -12.5t8.5 -5.5t9 -1h228q15 0 30.5 6t29.5 17t24 27.5t13 37.5q2 11 10 16t17 7q10 2 23 1l5 -137h-547q0 7 1 13
q1 5 3 8.5t6 3.5zM512 980l95 -113h-51l-49 90l-88 -90h-49z" />
    <glyph glyph-name="Edieresis" unicode="&#xcb;" horiz-adv-x="614" 
d="M42 25q7 0 20 6.5t20 34.5l121 568q3 14 1 22.5t-6.5 12.5t-9.5 5t-8 1q-6 0 -4 13q1 5 4 12h547l-63 -138q-13 -1 -23 2q-8 2 -13.5 7.5t-3.5 16.5q6 21 3.5 37t-11 27t-21 17t-27.5 6h-231q-8 -1 -20 -8t-18 -34l-57 -271h87q15 0 31.5 2.5t31.5 8.5t26.5 16t14.5 26
q2 10 7.5 13.5t11.5 4.5q7 1 15 -1l-35 -164q-8 -2 -15 -1q-5 1 -9 4.5t-3 13.5q3 14 -3 24t-17.5 16t-27.5 9t-33 3h-88l-57 -271q-3 -14 -2 -22t4.5 -12.5t8.5 -5.5t9 -1h228q15 0 30.5 6t29.5 17t24 27.5t13 37.5q2 11 10 16t17 7q10 2 23 1l5 -137h-547q0 7 1 13
q1 5 3 8.5t6 3.5zM515 936q2 13 13 22t24 9q14 0 21 -9t4 -22t-14 -22t-24 -9t-20 9t-4 22zM430 936q3 13 14 22t24 9t20 -9t4 -22q-2 -13 -13 -22t-24 -9q-14 0 -21 9t-4 22z" />
    <glyph glyph-name="zcaron" unicode="&#x17e;" horiz-adv-x="563" 
d="M58 29q7 0 23 6t38 35l337 376q9 13 12 21t2.5 12.5t-4 6t-7.5 1.5h-160q-15 0 -32 -2.5t-34.5 -11.5t-34.5 -25t-31 -43q-2 -5 -6 -6.5t-8 -2.5q-4 0 -9 1l45 116h453q-4 -7 -8 -12t-8 -9t-8 -4q-7 0 -25.5 -6.5t-41.5 -37.5l-337 -377q-10 -14 -13.5 -22t-2 -12.5
t5.5 -5.5t8 -1h166q15 0 31.5 3t33 12.5t32.5 27t31 45.5q6 10 16 10q5 1 10 0l-48 -124h-454q4 8 8 15q5 5 10 9.5t10 4.5zM325 777h60l43 -94l88 94h53l-145 -113z" />
    <glyph glyph-name="ydieresis" unicode="&#xff;" horiz-adv-x="495" 
d="M48 -95l72 28q-1 -11 2 -20q3 -8 10 -14t21 -6q10 0 23 7t29 34l30 54l-70 458q-2 14 -7 22.5t-10.5 12.5t-11 5t-8.5 1q-8 0 -10 13q0 5 1 12h171q2 -7 3 -12q0 -5 -0.5 -9t-5.5 -4q-3 0 -8.5 -1t-10 -4.5t-7 -12t-0.5 -23.5l45 -331l188 331q9 15 10 23.5t-1.5 12
t-7.5 4.5t-9 1t-2.5 4t3.5 9q4 5 9 12h98q-3 -7 -6 -12q-2 -5 -5.5 -9t-8.5 -4q-7 0 -22 -6t-32 -35l-298 -530q-6 -9 -13.5 -21t-19.5 -22.5t-28.5 -18t-40.5 -7.5q-12 0 -25 3t-23.5 10t-17 18t-6.5 27zM415 736q2 13 13 22t24 9q14 0 21 -9t4 -22t-14 -22t-24 -9t-20 9
t-4 22zM330 736q3 13 14 22t24 9t20 -9t4 -22q-2 -13 -13 -22t-24 -9q-14 0 -21 9t-4 22z" />
    <glyph glyph-name="yacute" unicode="&#xfd;" horiz-adv-x="495" 
d="M48 -95l72 28q-1 -11 2 -20q3 -8 10 -14t21 -6q10 0 23 7t29 34l30 54l-70 458q-2 14 -7 22.5t-10.5 12.5t-11 5t-8.5 1q-8 0 -10 13q0 5 1 12h171q2 -7 3 -12q0 -5 -0.5 -9t-5.5 -4q-3 0 -8.5 -1t-10 -4.5t-7 -12t-0.5 -23.5l45 -331l188 331q9 15 10 23.5t-1.5 12
t-7.5 4.5t-9 1t-2.5 4t3.5 9q4 5 9 12h98q-3 -7 -6 -12q-2 -5 -5.5 -9t-8.5 -4q-7 0 -22 -6t-32 -35l-298 -530q-6 -9 -13.5 -21t-19.5 -22.5t-28.5 -18t-40.5 -7.5q-12 0 -25 3t-23.5 10t-17 18t-6.5 27zM393 781h71l-102 -113h-23z" />
    <glyph glyph-name="udieresis" unicode="&#xfc;" horiz-adv-x="517" 
d="M95 151l59 278q3 15 1.5 23.5t-5.5 12.5t-9.5 5t-8.5 1q-6 0 -4 13q1 5 4 12l136 16q-20 -94 -35 -168q-7 -31 -13.5 -62t-11.5 -55t-8.5 -39.5t-3.5 -17.5q-15 -70 2.5 -107t68.5 -37q27 0 47.5 7t34 18t21 23.5t9.5 24.5l71 330q3 15 1 23.5t-6 12.5t-9 5t-9 1
q-6 0 -4 13q2 5 5 12l136 16l-95 -446q-5 -29 1.5 -35t20.5 -6q5 0 5.5 -3.5t-1.5 -8.5q-1 -6 -4 -13h-79q-22 0 -34 15t-7 42q-17 -23 -45.5 -39.5t-76.5 -16.5q-28 0 -59 6.5t-55.5 23t-37 45.5t-2.5 75zM427 736q2 13 13 22t24 9q14 0 21 -9t4 -22t-14 -22t-24 -9t-20 9
t-4 22zM342 736q3 13 14 22t24 9t20 -9t4 -22q-2 -13 -13 -22t-24 -9q-14 0 -21 9t-4 22z" />
    <glyph glyph-name="ucircumflex" unicode="&#xfb;" horiz-adv-x="517" 
d="M95 151l59 278q3 15 1.5 23.5t-5.5 12.5t-9.5 5t-8.5 1q-6 0 -4 13q1 5 4 12l136 16q-20 -94 -35 -168q-7 -31 -13.5 -62t-11.5 -55t-8.5 -39.5t-3.5 -17.5q-15 -70 2.5 -107t68.5 -37q27 0 47.5 7t34 18t21 23.5t9.5 24.5l71 330q3 15 1 23.5t-6 12.5t-9 5t-9 1
q-6 0 -4 13q2 5 5 12l136 16l-95 -446q-5 -29 1.5 -35t20.5 -6q5 0 5.5 -3.5t-1.5 -8.5q-1 -6 -4 -13h-79q-22 0 -34 15t-7 42q-17 -23 -45.5 -39.5t-76.5 -16.5q-28 0 -59 6.5t-55.5 23t-37 45.5t-2.5 75zM424 780l95 -113h-51l-49 90l-88 -90h-49z" />
    <glyph glyph-name="uacute" unicode="&#xfa;" horiz-adv-x="517" 
d="M95 151l59 278q3 15 1.5 23.5t-5.5 12.5t-9.5 5t-8.5 1q-6 0 -4 13q1 5 4 12l136 16q-20 -94 -35 -168q-7 -31 -13.5 -62t-11.5 -55t-8.5 -39.5t-3.5 -17.5q-15 -70 2.5 -107t68.5 -37q27 0 47.5 7t34 18t21 23.5t9.5 24.5l71 330q3 15 1 23.5t-6 12.5t-9 5t-9 1
q-6 0 -4 13q2 5 5 12l136 16l-95 -446q-5 -29 1.5 -35t20.5 -6q5 0 5.5 -3.5t-1.5 -8.5q-1 -6 -4 -13h-79q-22 0 -34 15t-7 42q-17 -23 -45.5 -39.5t-76.5 -16.5q-28 0 -59 6.5t-55.5 23t-37 45.5t-2.5 75zM405 781h71l-102 -113h-23z" />
    <glyph glyph-name="ugrave" unicode="&#xf9;" horiz-adv-x="517" 
d="M95 151l59 278q3 15 1.5 23.5t-5.5 12.5t-9.5 5t-8.5 1q-6 0 -4 13q1 5 4 12l136 16q-20 -94 -35 -168q-7 -31 -13.5 -62t-11.5 -55t-8.5 -39.5t-3.5 -17.5q-15 -70 2.5 -107t68.5 -37q27 0 47.5 7t34 18t21 23.5t9.5 24.5l71 330q3 15 1 23.5t-6 12.5t-9 5t-9 1
q-6 0 -4 13q2 5 5 12l136 16l-95 -446q-5 -29 1.5 -35t20.5 -6q5 0 5.5 -3.5t-1.5 -8.5q-1 -6 -4 -13h-79q-22 0 -34 15t-7 42q-17 -23 -45.5 -39.5t-76.5 -16.5q-28 0 -59 6.5t-55.5 23t-37 45.5t-2.5 75zM445 781l7 -113h-24l-53 113h70z" />
    <glyph glyph-name="scaron" unicode="&#x161;" horiz-adv-x="544" 
d="M55 69l64 90q-6 -28 3 -53.5t29.5 -45t51 -31t67.5 -11.5q29 0 56 5.5t48.5 18t37 34t22.5 53.5q7 30 -15 49.5t-58 34t-79 28t-78 32t-55.5 44.5t-11.5 67q8 35 32 59.5t58 40t73.5 22.5t77.5 7q81 0 125 -17.5t64 -43.5l-54 -70q3 14 -2 33.5t-21 37t-44 30t-72 12.5
q-54 0 -95.5 -21t-52.5 -69q-6 -30 16.5 -49.5t59.5 -34.5t81 -28.5t80.5 -32.5t58 -46.5t13.5 -69.5q-10 -49 -37.5 -78.5t-65 -44.5t-81 -19.5t-84.5 -4.5q-54 0 -94 9t-67 21t-39.5 24t-11.5 18zM315 777h60l43 -94l88 94h53l-145 -113z" />
    <glyph glyph-name="oe" unicode="&#x153;" horiz-adv-x="1003" 
d="M95 256q11 53 42 100t74 81.5t95 54.5t105 20t96.5 -20t72 -54.5t39.5 -81.5t-1 -100q-11 -53 -41 -100t-72.5 -82.5t-94.5 -56t-108 -20.5q-53 0 -96.5 19t-72 53.5t-39.5 82t1 104.5zM308 26q38 0 72 18t62 49.5t48 74t30 91.5q11 49 8.5 90.5t-17.5 71.5t-41.5 47
t-64.5 17q-37 0 -70.5 -17t-61.5 -47t-48 -71.5t-31 -90.5q-10 -49 -8 -91.5t16 -74t40.5 -49.5t65.5 -18zM519 255q12 54 41.5 101t70.5 81.5t91.5 54.5t103.5 20q51 0 92 -20t67 -54.5t35 -81t-2 -99.5h-399q-10 -48 -8 -90t16.5 -73t41 -49t64.5 -18q41 0 77.5 20
t65.5 54l46 -34q-42 -32 -91 -50.5t-109 -18.5q-53 0 -95.5 20t-70.5 55t-38 82t1 100zM625 283h300q16 93 -10 148t-95 55t-120.5 -55t-74.5 -148z" />
    <glyph glyph-name="oslash" unicode="&#xf8;" horiz-adv-x="604" 
d="M95 257q11 53 42 100t74 81.5t95 54.5t105 20t96.5 -20t72 -54.5t39.5 -81.5t-1 -100q-11 -53 -41 -100t-72.5 -82.5t-94.5 -56t-108 -20.5q-53 0 -96.5 19t-72 53.5t-39.5 82t1 104.5zM308 27q38 0 72 18t62 49.5t48 74t30 91.5q11 49 8.5 90.5t-17.5 71.5t-41.5 47
t-64.5 17q-37 0 -70.5 -17t-61.5 -47t-48 -71.5t-31 -90.5q-10 -49 -8 -91.5t16 -74t40.5 -49.5t65.5 -18zM79 -55q7 0 22.5 6t34.5 35l356 568q9 14 10.5 22.5t-1 12.5t-7 5t-7.5 1q-6 0 1 13q4 5 10 12h97q-3 -7 -6 -12q-7 -13 -15 -13q-7 0 -23 -6.5t-34 -35.5l-356 -567
q-9 -15 -11 -23.5t0.5 -12t7.5 -4.5t8 -1q5 0 3.5 -3.5t-4.5 -8.5q-4 -6 -10 -13h-97q3 7 6 13q3 5 7 8.5t8 3.5z" />
    <glyph glyph-name="odieresis" unicode="&#xf6;" horiz-adv-x="604" 
d="M95 257q11 53 42 100t74 81.5t95 54.5t105 20t96.5 -20t72 -54.5t39.5 -81.5t-1 -100q-11 -53 -41 -100t-72.5 -82.5t-94.5 -56t-108 -20.5q-53 0 -96.5 19t-72 53.5t-39.5 82t1 104.5zM308 27q38 0 72 18t62 49.5t48 74t30 91.5q11 49 8.5 90.5t-17.5 71.5t-41.5 47
t-64.5 17q-37 0 -70.5 -17t-61.5 -47t-48 -71.5t-31 -90.5q-10 -49 -8 -91.5t16 -74t40.5 -49.5t65.5 -18zM470 736q2 13 13 22t24 9q14 0 21 -9t4 -22t-14 -22t-24 -9t-20 9t-4 22zM385 736q3 13 14 22t24 9t20 -9t4 -22q-2 -13 -13 -22t-24 -9q-14 0 -21 9t-4 22z" />
    <glyph glyph-name="ocircumflex" unicode="&#xf4;" horiz-adv-x="604" 
d="M95 257q11 53 42 100t74 81.5t95 54.5t105 20t96.5 -20t72 -54.5t39.5 -81.5t-1 -100q-11 -53 -41 -100t-72.5 -82.5t-94.5 -56t-108 -20.5q-53 0 -96.5 19t-72 53.5t-39.5 82t1 104.5zM308 27q38 0 72 18t62 49.5t48 74t30 91.5q11 49 8.5 90.5t-17.5 71.5t-41.5 47
t-64.5 17q-37 0 -70.5 -17t-61.5 -47t-48 -71.5t-31 -90.5q-10 -49 -8 -91.5t16 -74t40.5 -49.5t65.5 -18zM468 780l95 -113h-51l-49 90l-88 -90h-49z" />
    <glyph glyph-name="oacute" unicode="&#xf3;" horiz-adv-x="604" 
d="M95 257q11 53 42 100t74 81.5t95 54.5t105 20t96.5 -20t72 -54.5t39.5 -81.5t-1 -100q-11 -53 -41 -100t-72.5 -82.5t-94.5 -56t-108 -20.5q-53 0 -96.5 19t-72 53.5t-39.5 82t1 104.5zM308 27q38 0 72 18t62 49.5t48 74t30 91.5q11 49 8.5 90.5t-17.5 71.5t-41.5 47
t-64.5 17q-37 0 -70.5 -17t-61.5 -47t-48 -71.5t-31 -90.5q-10 -49 -8 -91.5t16 -74t40.5 -49.5t65.5 -18zM448 781h71l-102 -113h-23z" />
    <glyph glyph-name="ograve" unicode="&#xf2;" horiz-adv-x="604" 
d="M95 257q11 53 42 100t74 81.5t95 54.5t105 20t96.5 -20t72 -54.5t39.5 -81.5t-1 -100q-11 -53 -41 -100t-72.5 -82.5t-94.5 -56t-108 -20.5q-53 0 -96.5 19t-72 53.5t-39.5 82t1 104.5zM308 27q38 0 72 18t62 49.5t48 74t30 91.5q11 49 8.5 90.5t-17.5 71.5t-41.5 47
t-64.5 17q-37 0 -70.5 -17t-61.5 -47t-48 -71.5t-31 -90.5q-10 -49 -8 -91.5t16 -74t40.5 -49.5t65.5 -18zM488 781l7 -113h-24l-53 113h70z" />
    <glyph glyph-name="idieresis" unicode="&#xef;" 
d="M42 26q7 0 20 6.5t20 34.5l77 361q5 29 -1.5 35t-21.5 6q-7 0 -3 13q1 5 4 12l136 18l-95 -445q-3 -15 -1 -23.5t6 -12.5t9 -5t9 -1q5 0 5 -3.5t-1 -8.5q-2 -5 -5 -12h-168q0 7 1 13q1 5 3 8.5t6 3.5zM284 736q2 13 13 22t24 9q14 0 21 -9t4 -22t-14 -22t-24 -9t-20 9
t-4 22zM199 736q3 13 14 22t24 9t20 -9t4 -22q-2 -13 -13 -22t-24 -9q-14 0 -21 9t-4 22z" />
    <glyph glyph-name="icircumflex" unicode="&#xee;" 
d="M42 26q7 0 20 6.5t20 34.5l77 361q5 29 -1.5 35t-21.5 6q-7 0 -3 13q1 5 4 12l136 18l-95 -445q-3 -15 -1 -23.5t6 -12.5t9 -5t9 -1q5 0 5 -3.5t-1 -8.5q-2 -5 -5 -12h-168q0 7 1 13q1 5 3 8.5t6 3.5zM282 780l95 -113h-51l-49 90l-88 -90h-49z" />
    <glyph glyph-name="iacute" unicode="&#xed;" 
d="M42 26q7 0 20 6.5t20 34.5l77 361q5 29 -1.5 35t-21.5 6q-7 0 -3 13q1 5 4 12l136 18l-95 -445q-3 -15 -1 -23.5t6 -12.5t9 -5t9 -1q5 0 5 -3.5t-1 -8.5q-2 -5 -5 -12h-168q0 7 1 13q1 5 3 8.5t6 3.5zM262 781h71l-102 -113h-23z" />
    <glyph glyph-name="igrave" unicode="&#xec;" 
d="M42 26q7 0 20 6.5t20 34.5l77 361q5 29 -1.5 35t-21.5 6q-7 0 -3 13q1 5 4 12l136 18l-95 -445q-3 -15 -1 -23.5t6 -12.5t9 -5t9 -1q5 0 5 -3.5t-1 -8.5q-2 -5 -5 -12h-168q0 7 1 13q1 5 3 8.5t6 3.5zM302 781l7 -113h-24l-53 113h70z" />
    <glyph glyph-name="edieresis" unicode="&#xeb;" horiz-adv-x="579" 
d="M94 255q12 54 41.5 101t70.5 81.5t91.5 54.5t103.5 20q51 0 92 -20t67 -54.5t35 -81t-2 -99.5h-399q-10 -48 -8 -90t16.5 -73t41 -49t64.5 -18q41 0 77.5 20t65.5 54l46 -34q-42 -32 -91 -50.5t-109 -18.5q-53 0 -95.5 20t-70.5 55t-38 82t1 100zM200 283h300
q16 93 -10 148t-95 55t-120.5 -55t-74.5 -148zM457 736q2 13 13 22t24 9q14 0 21 -9t4 -22t-14 -22t-24 -9t-20 9t-4 22zM372 736q3 13 14 22t24 9t20 -9t4 -22q-2 -13 -13 -22t-24 -9q-14 0 -21 9t-4 22z" />
    <glyph glyph-name="ecircumflex" unicode="&#xea;" horiz-adv-x="579" 
d="M94 255q12 54 41.5 101t70.5 81.5t91.5 54.5t103.5 20q51 0 92 -20t67 -54.5t35 -81t-2 -99.5h-399q-10 -48 -8 -90t16.5 -73t41 -49t64.5 -18q41 0 77.5 20t65.5 54l46 -34q-42 -32 -91 -50.5t-109 -18.5q-53 0 -95.5 20t-70.5 55t-38 82t1 100zM200 283h300
q16 93 -10 148t-95 55t-120.5 -55t-74.5 -148zM455 780l95 -113h-51l-49 90l-88 -90h-49z" />
    <glyph glyph-name="eacute" unicode="&#xe9;" horiz-adv-x="579" 
d="M94 255q12 54 41.5 101t70.5 81.5t91.5 54.5t103.5 20q51 0 92 -20t67 -54.5t35 -81t-2 -99.5h-399q-10 -48 -8 -90t16.5 -73t41 -49t64.5 -18q41 0 77.5 20t65.5 54l46 -34q-42 -32 -91 -50.5t-109 -18.5q-53 0 -95.5 20t-70.5 55t-38 82t1 100zM200 283h300
q16 93 -10 148t-95 55t-120.5 -55t-74.5 -148zM435 781h71l-102 -113h-23z" />
    <glyph glyph-name="egrave" unicode="&#xe8;" horiz-adv-x="579" 
d="M94 255q12 54 41.5 101t70.5 81.5t91.5 54.5t103.5 20q51 0 92 -20t67 -54.5t35 -81t-2 -99.5h-399q-10 -48 -8 -90t16.5 -73t41 -49t64.5 -18q41 0 77.5 20t65.5 54l46 -34q-42 -32 -91 -50.5t-109 -18.5q-53 0 -95.5 20t-70.5 55t-38 82t1 100zM200 283h300
q16 93 -10 148t-95 55t-120.5 -55t-74.5 -148zM475 781l7 -113h-24l-53 113h70z" />
    <glyph glyph-name="OE" unicode="&#x152;" horiz-adv-x="1203" 
d="M124 347q15 71 56 133t98.5 108.5t127 73t141.5 26.5t130 -26.5t96.5 -73t53 -108.5t-0.5 -133t-54.5 -134t-96.5 -110.5t-127.5 -75.5t-147.5 -28q-76 0 -134 28t-94.5 75.5t-49.5 110.5t2 134zM408 32q55 0 107 25t95.5 67.5t75 100t45.5 122.5t7 121.5t-32 98
t-67 65.5t-98 24q-55 0 -106.5 -24t-94.5 -65.5t-74 -98t-45 -121.5t-7 -122.5t32 -100t66 -67.5t96 -25zM632 25q7 0 20 6.5t20 34.5l121 568q3 14 1 22.5t-6.5 12.5t-9.5 5t-8 1q-6 0 -4 13q1 5 4 12h547l-63 -138q-13 -1 -23 2q-8 2 -13.5 7.5t-3.5 16.5q6 21 3.5 37
t-11 27t-21 17t-27.5 6h-231q-8 -1 -20 -8t-18 -34l-57 -271h87q15 0 31.5 2.5t31.5 8.5t26.5 16t14.5 26q2 10 7.5 13.5t11.5 4.5q7 1 15 -1l-35 -164q-8 -2 -15 -1q-5 1 -9 4.5t-3 13.5q3 14 -3 24t-17.5 16t-27.5 9t-33 3h-88l-57 -271q-3 -14 -2 -22t4.5 -12.5t8.5 -5.5
t9 -1h228q15 0 30.5 6t29.5 17t24 27.5t13 37.5q2 11 10 16t17 7q10 2 23 1l5 -137h-547q0 7 1 13q1 5 3 8.5t6 3.5z" />
    <glyph glyph-name="Scaron" unicode="&#x160;" horiz-adv-x="654" 
d="M71 97l72 110q-8 -38 3.5 -71t37.5 -57t64 -38t81 -14q30 0 64 6t64 22.5t53.5 46.5t33.5 77q7 31 -7.5 53t-41.5 39t-63.5 31t-74 28.5t-73.5 31t-62 39t-38.5 53t-3.5 71.5q11 52 45 85.5t77.5 53.5t89.5 28t82 8q96 0 150 -24t76 -59l-60 -86q4 20 -2.5 44.5t-26.5 47
t-55 37.5t-87 15q-33 0 -66 -7t-61.5 -22.5t-49 -39.5t-27.5 -58q-7 -32 8 -55t43.5 -40t66.5 -30.5t78 -27.5t78 -30t65.5 -38.5t41 -53.5t5.5 -75q-13 -66 -47.5 -105.5t-80 -60t-98 -26.5t-101.5 -6q-63 0 -111 12t-80.5 28t-48 32t-13.5 25zM415 977h60l43 -94l88 94h53
l-145 -113z" />
    <glyph glyph-name="Ugrave" unicode="&#xd9;" horiz-adv-x="645" 
d="M116 229l87 405q3 14 1 22.5t-6.5 12.5t-9.5 5t-8 1q-6 0 -4 13q1 5 4 12h169q0 -7 -1 -12q-2 -13 -9 -13t-20 -5.5t-20 -35.5q-24 -112 -42 -200q-8 -38 -15.5 -74.5t-14 -65t-10.5 -46.5t-4 -19q-7 -36 -9 -72.5t11.5 -66t46 -48t93.5 -18.5q56 0 97 12.5t70.5 38
t48.5 64t30 90.5q30 141 47.5 222t25.5 122q10 47 13 61t1 22.5t-6 12.5t-9 5t-9 1q-7 0 -3 13q1 5 4 12h97q0 -7 -1 -12q-2 -13 -9 -13t-20 -6.5t-20 -35.5q-24 -110 -42 -198q-8 -37 -15.5 -73.5t-14 -65t-10.5 -47t-4 -20.5q-12 -55 -32 -98t-53 -71.5t-81 -43.5
t-114 -15q-134 0 -193.5 58.5t-36.5 169.5zM551 981l7 -113h-24l-53 113h70z" />
    <glyph glyph-name="Uacute" unicode="&#xda;" horiz-adv-x="645" 
d="M116 229l87 405q3 14 1 22.5t-6.5 12.5t-9.5 5t-8 1q-6 0 -4 13q1 5 4 12h169q0 -7 -1 -12q-2 -13 -9 -13t-20 -5.5t-20 -35.5q-24 -112 -42 -200q-8 -38 -15.5 -74.5t-14 -65t-10.5 -46.5t-4 -19q-7 -36 -9 -72.5t11.5 -66t46 -48t93.5 -18.5q56 0 97 12.5t70.5 38
t48.5 64t30 90.5q30 141 47.5 222t25.5 122q10 47 13 61t1 22.5t-6 12.5t-9 5t-9 1q-7 0 -3 13q1 5 4 12h97q0 -7 -1 -12q-2 -13 -9 -13t-20 -6.5t-20 -35.5q-24 -110 -42 -198q-8 -37 -15.5 -73.5t-14 -65t-10.5 -47t-4 -20.5q-12 -55 -32 -98t-53 -71.5t-81 -43.5
t-114 -15q-134 0 -193.5 58.5t-36.5 169.5zM511 981h71l-102 -113h-23z" />
    <glyph glyph-name="dcroat" unicode="&#x111;" horiz-adv-x="581" 
d="M95 257q14 67 44.5 115t71 79t88.5 45.5t97 14.5q29 0 49.5 -5t34.5 -12.5t22 -17t12 -17.5l51 242l129 -18q0 -7 -1 -12q-2 -13 -9 -13t-13 -1t-11 -5t-9 -12.5t-7 -22.5l-117 -550q-3 -14 -1 -22.5t6 -12.5t9 -5t9 -1t4.5 -3.5t-1.5 -8.5q-1 -6 -4 -13h-85
q-33 -1 -62 -1h-35q-78 0 -135.5 15.5t-92.5 47t-46.5 80t2.5 114.5zM372 25q23 0 37.5 7.5t20.5 34.5l77 362q-4 9 -10.5 19t-17.5 18.5t-29 14t-46 5.5q-33 0 -65 -13t-60 -40.5t-50 -71t-35 -104.5q-14 -67 -4.5 -111.5t35.5 -71.5t65 -38t82 -11zM303 568l13 63h418
l-13 -63h-418z" />
    <glyph glyph-name="ccedilla" unicode="&#xe7;" horiz-adv-x="526" 
d="M94 255q12 54 43 101t74 81.5t95 54.5t105 20q36 0 65.5 -7.5t51 -19t35 -25.5t18.5 -26l-73 -23q-11 38 -38 55.5t-65 17.5q-39 0 -73 -18t-61.5 -49t-47.5 -73.5t-30 -90.5q-10 -49 -8 -90.5t16.5 -72t41 -48t64.5 -17.5q36 0 66 15.5t56 39.5l45 -29
q-38 -26 -83.5 -39.5t-93.5 -13.5q-53 0 -95.5 20t-70.5 55t-38 82t1 100zM198 -77h22q-2 -11 4.5 -18t17.5 -7q12 0 22 8.5t12 19.5q3 11 -3 19.5t-17 8.5h-20l12 59h21l-8 -37q20 -2 31 -16t6 -34t-22.5 -34.5t-37.5 -14.5t-31 13t-9 33z" />
    <glyph glyph-name="Odieresis" unicode="&#xd6;" horiz-adv-x="802" 
d="M124 347q15 71 56 133t98.5 108.5t127 73t141.5 26.5t130 -26.5t96.5 -73t53 -108.5t-0.5 -133t-54.5 -134t-96.5 -110.5t-127.5 -75.5t-147.5 -28q-76 0 -134 28t-94.5 75.5t-49.5 110.5t2 134zM408 32q55 0 107 25t95.5 67.5t75 100t45.5 122.5t7 121.5t-32 98
t-67 65.5t-98 24q-55 0 -106.5 -24t-94.5 -65.5t-74 -98t-45 -121.5t-7 -122.5t32 -100t66 -67.5t96 -25zM612 936q2 13 13 22t24 9q14 0 21 -9t4 -22t-14 -22t-24 -9t-20 9t-4 22zM527 936q3 13 14 22t24 9t20 -9t4 -22q-2 -13 -13 -22t-24 -9q-14 0 -21 9t-4 22z" />
    <glyph glyph-name="Ocircumflex" unicode="&#xd4;" horiz-adv-x="802" 
d="M124 347q15 71 56 133t98.5 108.5t127 73t141.5 26.5t130 -26.5t96.5 -73t53 -108.5t-0.5 -133t-54.5 -134t-96.5 -110.5t-127.5 -75.5t-147.5 -28q-76 0 -134 28t-94.5 75.5t-49.5 110.5t2 134zM408 32q55 0 107 25t95.5 67.5t75 100t45.5 122.5t7 121.5t-32 98
t-67 65.5t-98 24q-55 0 -106.5 -24t-94.5 -65.5t-74 -98t-45 -121.5t-7 -122.5t32 -100t66 -67.5t96 -25zM609 980l95 -113h-51l-49 90l-88 -90h-49z" />
    <glyph glyph-name="Oacute" unicode="&#xd3;" horiz-adv-x="802" 
d="M124 347q15 71 56 133t98.5 108.5t127 73t141.5 26.5t130 -26.5t96.5 -73t53 -108.5t-0.5 -133t-54.5 -134t-96.5 -110.5t-127.5 -75.5t-147.5 -28q-76 0 -134 28t-94.5 75.5t-49.5 110.5t2 134zM408 32q55 0 107 25t95.5 67.5t75 100t45.5 122.5t7 121.5t-32 98
t-67 65.5t-98 24q-55 0 -106.5 -24t-94.5 -65.5t-74 -98t-45 -121.5t-7 -122.5t32 -100t66 -67.5t96 -25zM589 981h71l-102 -113h-23z" />
    <glyph glyph-name="Ograve" unicode="&#xd2;" horiz-adv-x="802" 
d="M124 347q15 71 56 133t98.5 108.5t127 73t141.5 26.5t130 -26.5t96.5 -73t53 -108.5t-0.5 -133t-54.5 -134t-96.5 -110.5t-127.5 -75.5t-147.5 -28q-76 0 -134 28t-94.5 75.5t-49.5 110.5t2 134zM408 32q55 0 107 25t95.5 67.5t75 100t45.5 122.5t7 121.5t-32 98
t-67 65.5t-98 24q-55 0 -106.5 -24t-94.5 -65.5t-74 -98t-45 -121.5t-7 -122.5t32 -100t66 -67.5t96 -25zM629 981l7 -113h-24l-53 113h70z" />
    <glyph glyph-name="Lslash" unicode="&#x141;" horiz-adv-x="624" 
d="M58 23q7 0 19.5 6.5t19.5 34.5l121 568q3 14 1 22.5t-6 12.5t-9 5t-8 1q-4 0 -4.5 3.5t0.5 8.5t4 12h169q0 -7 -1 -12t-3 -8.5t-6 -3.5q-8 0 -21 -6.5t-20 -35.5l-120 -567q-3 -14 -2 -22t4.5 -12.5t8.5 -5.5t9 -1h223q39 0 66 23.5t38 66.5q6 11 14 15.5t16 6.5
q9 2 19 0l4 -138h-547q0 7 1 13q4 13 10 13zM84 248l14 63h202l-13 -63h-203z" />
    <glyph glyph-name="Idieresis" unicode="&#xcf;" horiz-adv-x="212" 
d="M32 25q7 0 20 6.5t20 34.5l121 568q3 14 1 22.5t-6.5 12.5t-9.5 5t-8 1q-6 0 -4 13q1 5 4 12h169q0 -7 -1 -12q-2 -13 -9 -13t-20 -6.5t-20 -35.5l-120 -567q-3 -15 -1.5 -23.5t5.5 -12t9 -4.5t9 -1q5 0 5.5 -3.5t-1.5 -8.5q-1 -6 -4 -13h-169q0 7 1 13q1 5 3 8.5t6 3.5z
M317 936q2 13 13 22t24 9q14 0 21 -9t4 -22t-14 -22t-24 -9t-20 9t-4 22zM232 936q3 13 14 22t24 9t20 -9t4 -22q-2 -13 -13 -22t-24 -9q-14 0 -21 9t-4 22z" />
    <glyph glyph-name="Icircumflex" unicode="&#xce;" 
d="M42 25q7 0 20 6.5t20 34.5l121 568q3 14 1 22.5t-6.5 12.5t-9.5 5t-8 1q-6 0 -4 13q1 5 4 12h169q0 -7 -1 -12q-2 -13 -9 -13t-20 -6.5t-20 -35.5l-120 -567q-3 -15 -1.5 -23.5t5.5 -12t9 -4.5t9 -1q5 0 5.5 -3.5t-1.5 -8.5q-1 -6 -4 -13h-169q0 7 1 13q1 5 3 8.5t6 3.5z
M324 980l95 -113h-51l-49 90l-88 -90h-49z" />
    <glyph glyph-name="Iacute" unicode="&#xcd;" 
d="M42 25q7 0 20 6.5t20 34.5l121 568q3 14 1 22.5t-6.5 12.5t-9.5 5t-8 1q-6 0 -4 13q1 5 4 12h169q0 -7 -1 -12q-2 -13 -9 -13t-20 -6.5t-20 -35.5l-120 -567q-3 -15 -1.5 -23.5t5.5 -12t9 -4.5t9 -1q5 0 5.5 -3.5t-1.5 -8.5q-1 -6 -4 -13h-169q0 7 1 13q1 5 3 8.5t6 3.5z
M304 981h71l-102 -113h-23z" />
    <glyph glyph-name="Igrave" unicode="&#xcc;" 
d="M42 25q7 0 20 6.5t20 34.5l121 568q3 14 1 22.5t-6.5 12.5t-9.5 5t-8 1q-6 0 -4 13q1 5 4 12h169q0 -7 -1 -12q-2 -13 -9 -13t-20 -6.5t-20 -35.5l-120 -567q-3 -15 -1.5 -23.5t5.5 -12t9 -4.5t9 -1q5 0 5.5 -3.5t-1.5 -8.5q-1 -6 -4 -13h-169q0 7 1 13q1 5 3 8.5t6 3.5z
M344 981l7 -113h-24l-53 113h70z" />
    <glyph glyph-name="aring" unicode="&#xe5;" horiz-adv-x="564" 
d="M72 176q11 51 38.5 85.5t66.5 55t85.5 29.5t95.5 9q43 0 72.5 -8.5t48.5 -19.5l5 24q11 49 5 76.5t-21 41t-34.5 16.5t-37.5 3q-39 0 -68.5 -18t-44.5 -54l-62 31q35 32 81.5 48.5t97.5 16.5q29 0 64.5 -6t65 -23.5t46 -49.5t5.5 -84l-60 -282q-3 -15 -1.5 -23.5t5.5 -12
t9.5 -4.5t8.5 -1q5 0 5.5 -3.5t-1.5 -8.5q-1 -6 -4 -13h-162q-38 0 -78 0.5t-77.5 5t-70 15t-54 30t-30.5 49.5t1 75zM365 26q17 0 34.5 7t23.5 34l50 235q-17 11 -42.5 19.5t-64.5 8.5q-34 0 -65 -7t-56.5 -24t-44 -47t-28.5 -76q-12 -54 4 -84.5t46.5 -45t69.5 -17.5
t73 -3zM388 722q5 22 23.5 37t39.5 15q22 0 34 -15t7 -37q-5 -21 -23 -36t-40 -15q-21 0 -33.5 15t-7.5 36zM434 693q12 0 22.5 8.5t13.5 20.5q2 13 -4.5 21.5t-19.5 8.5q-12 0 -22.5 -8.5t-12.5 -21.5q-3 -12 4 -20.5t19 -8.5z" />
    <glyph glyph-name="adieresis" unicode="&#xe4;" horiz-adv-x="564" 
d="M72 176q11 51 38.5 85.5t66.5 55t85.5 29.5t95.5 9q43 0 72.5 -8.5t48.5 -19.5l5 24q11 49 5 76.5t-21 41t-34.5 16.5t-37.5 3q-39 0 -68.5 -18t-44.5 -54l-62 31q35 32 81.5 48.5t97.5 16.5q29 0 64.5 -6t65 -23.5t46 -49.5t5.5 -84l-60 -282q-3 -15 -1.5 -23.5t5.5 -12
t9.5 -4.5t8.5 -1q5 0 5.5 -3.5t-1.5 -8.5q-1 -6 -4 -13h-162q-38 0 -78 0.5t-77.5 5t-70 15t-54 30t-30.5 49.5t1 75zM365 26q17 0 34.5 7t23.5 34l50 235q-17 11 -42.5 19.5t-64.5 8.5q-34 0 -65 -7t-56.5 -24t-44 -47t-28.5 -76q-12 -54 4 -84.5t46.5 -45t69.5 -17.5
t73 -3zM455 736q2 13 13 22t24 9q14 0 21 -9t4 -22t-14 -22t-24 -9t-20 9t-4 22zM370 736q3 13 14 22t24 9t20 -9t4 -22q-2 -13 -13 -22t-24 -9q-14 0 -21 9t-4 22z" />
    <glyph glyph-name="acircumflex" unicode="&#xe2;" horiz-adv-x="564" 
d="M72 176q11 51 38.5 85.5t66.5 55t85.5 29.5t95.5 9q43 0 72.5 -8.5t48.5 -19.5l5 24q11 49 5 76.5t-21 41t-34.5 16.5t-37.5 3q-39 0 -68.5 -18t-44.5 -54l-62 31q35 32 81.5 48.5t97.5 16.5q29 0 64.5 -6t65 -23.5t46 -49.5t5.5 -84l-60 -282q-3 -15 -1.5 -23.5t5.5 -12
t9.5 -4.5t8.5 -1q5 0 5.5 -3.5t-1.5 -8.5q-1 -6 -4 -13h-162q-38 0 -78 0.5t-77.5 5t-70 15t-54 30t-30.5 49.5t1 75zM365 26q17 0 34.5 7t23.5 34l50 235q-17 11 -42.5 19.5t-64.5 8.5q-34 0 -65 -7t-56.5 -24t-44 -47t-28.5 -76q-12 -54 4 -84.5t46.5 -45t69.5 -17.5
t73 -3zM453 780l95 -113h-51l-49 90l-88 -90h-49z" />
    <glyph glyph-name="aacute" unicode="&#xe1;" horiz-adv-x="564" 
d="M72 176q11 51 38.5 85.5t66.5 55t85.5 29.5t95.5 9q43 0 72.5 -8.5t48.5 -19.5l5 24q11 49 5 76.5t-21 41t-34.5 16.5t-37.5 3q-39 0 -68.5 -18t-44.5 -54l-62 31q35 32 81.5 48.5t97.5 16.5q29 0 64.5 -6t65 -23.5t46 -49.5t5.5 -84l-60 -282q-3 -15 -1.5 -23.5t5.5 -12
t9.5 -4.5t8.5 -1q5 0 5.5 -3.5t-1.5 -8.5q-1 -6 -4 -13h-162q-38 0 -78 0.5t-77.5 5t-70 15t-54 30t-30.5 49.5t1 75zM365 26q17 0 34.5 7t23.5 34l50 235q-17 11 -42.5 19.5t-64.5 8.5q-34 0 -65 -7t-56.5 -24t-44 -47t-28.5 -76q-12 -54 4 -84.5t46.5 -45t69.5 -17.5
t73 -3zM433 781h71l-102 -113h-23z" />
    <glyph glyph-name="agrave" unicode="&#xe0;" horiz-adv-x="564" 
d="M72 176q11 51 38.5 85.5t66.5 55t85.5 29.5t95.5 9q43 0 72.5 -8.5t48.5 -19.5l5 24q11 49 5 76.5t-21 41t-34.5 16.5t-37.5 3q-39 0 -68.5 -18t-44.5 -54l-62 31q35 32 81.5 48.5t97.5 16.5q29 0 64.5 -6t65 -23.5t46 -49.5t5.5 -84l-60 -282q-3 -15 -1.5 -23.5t5.5 -12
t9.5 -4.5t8.5 -1q5 0 5.5 -3.5t-1.5 -8.5q-1 -6 -4 -13h-162q-38 0 -78 0.5t-77.5 5t-70 15t-54 30t-30.5 49.5t1 75zM365 26q17 0 34.5 7t23.5 34l50 235q-17 11 -42.5 19.5t-64.5 8.5q-34 0 -65 -7t-56.5 -24t-44 -47t-28.5 -76q-12 -54 4 -84.5t46.5 -45t69.5 -17.5
t73 -3zM473 781l7 -113h-24l-53 113h70z" />
    <glyph glyph-name="Zcaron" unicode="&#x17d;" horiz-adv-x="606" 
d="M30 0q3 7 7 13q4 5 8 8.5t9 3.5q7 0 23 6t38 35l423 568q9 13 12 21t2.5 12.5t-4 6t-7.5 1.5h-213q-15 0 -32 -2.5t-34.5 -11.5t-34.5 -25.5t-32 -44.5q-6 -11 -13.5 -16t-14.5 -7q-8 -2 -16 -1l40 133h529q-3 -7 -7 -13q-4 -5 -8.5 -9t-9.5 -4q-7 0 -23.5 -6.5
t-39.5 -35.5l-420 -566q-10 -13 -13 -21.5t-2 -12.5t5 -5.5t8 -1.5h221q15 0 30 3.5t30 12.5t29.5 25.5t27.5 42.5q7 12 14.5 17t13.5 7q8 2 16 0l-36 -133h-526zM386 977h60l43 -94l88 94h53l-145 -113z" />
    <glyph glyph-name="Yacute" unicode="&#xdd;" horiz-adv-x="681" 
d="M332 700q5 -7 8 -12q2 -5 3 -9t-4 -4q-3 0 -8 -1t-8 -5t-2.5 -12.5t7.5 -22.5l128 -268l238 267q13 15 17 23.5t3.5 12.5t-5 5t-7.5 1q-4 0 -2 4t6 9l12 12h97q-4 -7 -9 -12q-4 -5 -8 -9t-9 -4q-8 0 -25.5 -6t-43.5 -35l-254 -288l-59 -279q-3 -15 -1 -23t6 -12.5t9 -5.5
t8 -1q5 0 5.5 -3.5t-1.5 -8.5q-1 -6 -4 -13h-169q0 7 1 13q1 5 3 8.5t6 3.5q7 0 20 6.5t20 34.5l59 279l-138 288q-14 29 -28.5 35.5t-21.5 6.5q-4 0 -7.5 4t-5.5 9t-4 12h168zM529 981h71l-102 -113h-23z" />
    <glyph glyph-name="Ydieresis" unicode="&#x178;" horiz-adv-x="681" 
d="M332 700q5 -7 8 -12q2 -5 3 -9t-4 -4q-3 0 -8 -1t-8 -5t-2.5 -12.5t7.5 -22.5l128 -268l238 267q13 15 17 23.5t3.5 12.5t-5 5t-7.5 1q-4 0 -2 4t6 9l12 12h97q-4 -7 -9 -12q-4 -5 -8 -9t-9 -4q-8 0 -25.5 -6t-43.5 -35l-254 -288l-59 -279q-3 -15 -1 -23t6 -12.5t9 -5.5
t8 -1q5 0 5.5 -3.5t-1.5 -8.5q-1 -6 -4 -13h-169q0 7 1 13q1 5 3 8.5t6 3.5q7 0 20 6.5t20 34.5l59 279l-138 288q-14 29 -28.5 35.5t-21.5 6.5q-4 0 -7.5 4t-5.5 9t-4 12h168zM551 936q2 13 13 22t24 9q14 0 21 -9t4 -22t-14 -22t-24 -9t-20 9t-4 22zM466 936q3 13 14 22
t24 9t20 -9t4 -22q-2 -13 -13 -22t-24 -9q-14 0 -21 9t-4 22z" />
    <glyph glyph-name="Udieresis" unicode="&#xdc;" horiz-adv-x="645" 
d="M116 229l87 405q3 14 1 22.5t-6.5 12.5t-9.5 5t-8 1q-6 0 -4 13q1 5 4 12h169q0 -7 -1 -12q-2 -13 -9 -13t-20 -5.5t-20 -35.5q-24 -112 -42 -200q-8 -38 -15.5 -74.5t-14 -65t-10.5 -46.5t-4 -19q-7 -36 -9 -72.5t11.5 -66t46 -48t93.5 -18.5q56 0 97 12.5t70.5 38
t48.5 64t30 90.5q30 141 47.5 222t25.5 122q10 47 13 61t1 22.5t-6 12.5t-9 5t-9 1q-7 0 -3 13q1 5 4 12h97q0 -7 -1 -12q-2 -13 -9 -13t-20 -6.5t-20 -35.5q-24 -110 -42 -198q-8 -37 -15.5 -73.5t-14 -65t-10.5 -47t-4 -20.5q-12 -55 -32 -98t-53 -71.5t-81 -43.5
t-114 -15q-134 0 -193.5 58.5t-36.5 169.5zM533 936q2 13 13 22t24 9q14 0 21 -9t4 -22t-14 -22t-24 -9t-20 9t-4 22zM448 936q3 13 14 22t24 9t20 -9t4 -22q-2 -13 -13 -22t-24 -9q-14 0 -21 9t-4 22z" />
    <glyph glyph-name="Ucircumflex" unicode="&#xdb;" horiz-adv-x="645" 
d="M116 229l87 405q3 14 1 22.5t-6.5 12.5t-9.5 5t-8 1q-6 0 -4 13q1 5 4 12h169q0 -7 -1 -12q-2 -13 -9 -13t-20 -5.5t-20 -35.5q-24 -112 -42 -200q-8 -38 -15.5 -74.5t-14 -65t-10.5 -46.5t-4 -19q-7 -36 -9 -72.5t11.5 -66t46 -48t93.5 -18.5q56 0 97 12.5t70.5 38
t48.5 64t30 90.5q30 141 47.5 222t25.5 122q10 47 13 61t1 22.5t-6 12.5t-9 5t-9 1q-7 0 -3 13q1 5 4 12h97q0 -7 -1 -12q-2 -13 -9 -13t-20 -6.5t-20 -35.5q-24 -110 -42 -198q-8 -37 -15.5 -73.5t-14 -65t-10.5 -47t-4 -20.5q-12 -55 -32 -98t-53 -71.5t-81 -43.5
t-114 -15q-134 0 -193.5 58.5t-36.5 169.5zM531 980l95 -113h-51l-49 90l-88 -90h-49z" />
    <glyph glyph-name="Atilde" unicode="&#xc3;" horiz-adv-x="651" 
d="M29 25q7 0 22 6t32 35l338 606q-2 5 -8 5q-5 0 -7 3.5t-2 8.5t1 11h83q17 0 23 -16.5t10 -43.5l75 -574q2 -15 6.5 -23.5t10 -12t11 -4.5t8.5 -1q5 0 6.5 -3.5t2.5 -8.5v-13h-164q-2 7 -3 13q-1 5 0 8.5t5 3.5q3 0 8 1t9.5 5t7.5 12.5t1 22.5l-26 196h-259l-109 -196
q-9 -15 -10 -23.5t2 -12t8 -4.5t8 -1q5 0 3.5 -3.5t-3.5 -8.5q-4 -6 -9 -13h-100q2 7 5 13q3 5 6.5 8.5t7.5 3.5zM476 291q-13 96 -22 173q-4 32 -8.5 63.5t-7.5 56t-5 40t-2 16.5l-195 -349h240zM550 900q10 -5 19.5 -7t17.5 -2q11 0 19 2.5t14 4.5q7 3 13 7l4 -28
q-19 -10 -35 -13.5t-30 -3.5q-12 0 -21.5 2t-15.5 4q-8 3 -14 6q-9 5 -18.5 7t-19.5 2q-13 0 -25 -3t-21 -6q-11 -5 -20 -10l-8 26q25 15 46 20.5t38 5.5q24 0 39 -6t18 -8z" />
    <glyph glyph-name="Otilde" unicode="&#xd5;" horiz-adv-x="802" 
d="M124 347q15 71 56 133t98.5 108.5t127 73t141.5 26.5t130 -26.5t96.5 -73t53 -108.5t-0.5 -133t-54.5 -134t-96.5 -110.5t-127.5 -75.5t-147.5 -28q-76 0 -134 28t-94.5 75.5t-49.5 110.5t2 134zM408 32q55 0 107 25t95.5 67.5t75 100t45.5 122.5t7 121.5t-32 98
t-67 65.5t-98 24q-55 0 -106.5 -24t-94.5 -65.5t-74 -98t-45 -121.5t-7 -122.5t32 -100t66 -67.5t96 -25zM621 900q10 -5 19.5 -7t17.5 -2q11 0 19 2.5t14 4.5q7 3 13 7l4 -28q-19 -10 -35 -13.5t-30 -3.5q-12 0 -21.5 2t-15.5 4q-8 3 -14 6q-9 5 -18.5 7t-19.5 2
q-13 0 -25 -3t-21 -6q-11 -5 -20 -10l-8 26q25 15 46 20.5t38 5.5q24 0 39 -6t18 -8z" />
    <glyph glyph-name="atilde" unicode="&#xe3;" horiz-adv-x="564" 
d="M72 176q11 51 38.5 85.5t66.5 55t85.5 29.5t95.5 9q43 0 72.5 -8.5t48.5 -19.5l5 24q11 49 5 76.5t-21 41t-34.5 16.5t-37.5 3q-39 0 -68.5 -18t-44.5 -54l-62 31q35 32 81.5 48.5t97.5 16.5q29 0 64.5 -6t65 -23.5t46 -49.5t5.5 -84l-60 -282q-3 -15 -1.5 -23.5t5.5 -12
t9.5 -4.5t8.5 -1q5 0 5.5 -3.5t-1.5 -8.5q-1 -6 -4 -13h-162q-38 0 -78 0.5t-77.5 5t-70 15t-54 30t-30.5 49.5t1 75zM365 26q17 0 34.5 7t23.5 34l50 235q-17 11 -42.5 19.5t-64.5 8.5q-34 0 -65 -7t-56.5 -24t-44 -47t-28.5 -76q-12 -54 4 -84.5t46.5 -45t69.5 -17.5
t73 -3zM465 700q10 -5 19.5 -7t17.5 -2q11 0 19 2.5t14 4.5q7 3 13 7l4 -28q-19 -10 -35 -13.5t-30 -3.5q-12 0 -21.5 2t-15.5 4q-8 3 -14 6q-9 5 -18.5 7t-19.5 2q-13 0 -25 -3t-21 -6q-11 -5 -20 -10l-8 26q25 15 46 20.5t38 5.5q24 0 39 -6t18 -8z" />
    <glyph glyph-name="otilde" unicode="&#xf5;" horiz-adv-x="604" 
d="M95 257q11 53 42 100t74 81.5t95 54.5t105 20t96.5 -20t72 -54.5t39.5 -81.5t-1 -100q-11 -53 -41 -100t-72.5 -82.5t-94.5 -56t-108 -20.5q-53 0 -96.5 19t-72 53.5t-39.5 82t1 104.5zM308 27q38 0 72 18t62 49.5t48 74t30 91.5q11 49 8.5 90.5t-17.5 71.5t-41.5 47
t-64.5 17q-37 0 -70.5 -17t-61.5 -47t-48 -71.5t-31 -90.5q-10 -49 -8 -91.5t16 -74t40.5 -49.5t65.5 -18zM480 700q10 -5 19.5 -7t17.5 -2q11 0 19 2.5t14 4.5q7 3 13 7l4 -28q-19 -10 -35 -13.5t-30 -3.5q-12 0 -21.5 2t-15.5 4q-8 3 -14 6q-9 5 -18.5 7t-19.5 2
q-13 0 -25 -3t-21 -6q-11 -5 -20 -10l-8 26q25 15 46 20.5t38 5.5q24 0 39 -6t18 -8z" />
    <glyph glyph-name="Ntilde" unicode="&#xd1;" horiz-adv-x="584" 
d="M42 25q7 0 20 6.5t20 34.5l121 568q3 14 1 22.5t-6.5 12.5t-9.5 5t-8 1q-6 0 -4 13q1 5 4 12h142l201 -545q8 34 16 72.5t17 78.5t17.5 80t16.5 76q18 86 37 172q3 14 1 22.5t-6.5 12.5t-9.5 5t-8 1q-6 0 -4 13q1 5 4 12h98q0 -7 -1 -12q-2 -5 -3.5 -9t-6.5 -4
q-7 0 -20 -6.5t-20 -35.5l-135 -633h-25q-71 184 -127 329q-24 62 -47 121.5t-41.5 106t-30 75.5t-12.5 30q0 -1 -5.5 -27.5t-14.5 -68.5t-20.5 -95.5t-23.5 -109.5q-28 -130 -63 -295q-3 -15 -1 -23.5t6 -12t9 -4.5t9 -1q5 0 5 -3.5t-1 -8.5q-2 -6 -5 -13h-96q0 7 1 13
q1 5 3 8.5t6 3.5zM512 900q10 -5 19.5 -7t17.5 -2q11 0 19 2.5t14 4.5q7 3 13 7l4 -28q-19 -10 -35 -13.5t-30 -3.5q-12 0 -21.5 2t-15.5 4q-8 3 -14 6q-9 5 -18.5 7t-19.5 2q-13 0 -25 -3t-21 -6q-11 -5 -20 -10l-8 26q25 15 46 20.5t38 5.5q24 0 39 -6t18 -8z" />
    <glyph glyph-name="ntilde" unicode="&#xf1;" horiz-adv-x="518" 
d="M37 26q7 0 20 6.5t20 34.5l77 361q5 29 -1.5 35t-21.5 6q-7 0 -3 13q1 5 4 12l137 18q-1 -5 -3 -13q-2 -7 -4 -17l-5 -25q14 20 44.5 37t78.5 17q28 0 59 -6.5t55 -23t36 -45.5t2 -74l-62 -295q-3 -15 -1.5 -23.5t5.5 -12.5t9.5 -5t8.5 -1q5 0 5.5 -3.5t-1.5 -8.5
q-1 -5 -4 -12h-170q0 7 1 13q2 5 4 8.5t6 3.5q7 0 20 6.5t19 34.5q16 75 29 135q5 26 10.5 50.5t9.5 44t7 32.5t3 14q14 69 -4.5 106t-68.5 37q-25 0 -45 -7t-33.5 -17.5t-21.5 -23.5t-11 -25l-73 -346q-3 -15 -1.5 -23.5t5.5 -12.5t9.5 -5t8.5 -1q5 0 5.5 -3.5t-1.5 -8.5
q-1 -5 -4 -12h-169q0 7 1 13q1 5 3 8.5t6 3.5zM437 700q10 -5 19.5 -7t17.5 -2q11 0 19 2.5t14 4.5q7 3 13 7l4 -28q-19 -10 -35 -13.5t-30 -3.5q-12 0 -21.5 2t-15.5 4q-8 3 -14 6q-9 5 -18.5 7t-19.5 2q-13 0 -25 -3t-21 -6q-11 -5 -20 -10l-8 26q25 15 46 20.5t38 5.5
q24 0 39 -6t18 -8z" />
    <glyph glyph-name="lslash" unicode="&#x142;" horiz-adv-x="215" 
d="M42 26q7 0 20 6.5t20 34.5l117 550q5 29 -1.5 35t-20.5 6q-6 0 -4 13q1 5 4 12l137 18l-135 -634q-3 -15 -1.5 -23.5t5.5 -12.5t9.5 -5t8.5 -1q5 0 5.5 -3.5t-1.5 -8.5q-1 -5 -4 -12h-169q0 7 1 13q1 5 3 8.5t6 3.5zM73 248l14 63h202l-13 -63h-203z" />
    </font>
</defs>
</svg>
